<?xml version="1.0" encoding="UTF-8"?>
<!DOCTYPE svg PUBLIC "-//W3C//DTD SVG 1.1//EN" "http://www.w3.org/Graphics/SVG/1.1/DTD/svg11.dtd">
<!-- Creator: CorelDRAW 2019 (64-Bit) -->
<svg xmlns="http://www.w3.org/2000/svg" xml:space="preserve" width="20" height="20" version="1.1" style="shape-rendering:geometricPrecision; text-rendering:geometricPrecision; image-rendering:optimizeQuality; fill-rule:evenodd; clip-rule:evenodd"
viewBox="0 0 32061.28 32048"
 xmlns:xlink="http://www.w3.org/1999/xlink"
 xmlns:xodm="http://www.corel.com/coreldraw/odm/2003">
 <defs>
  <style type="text/css">
   <![CDATA[
    .fil0 {fill:#0056FF}
    .fil1 {fill:#FEFEFF}
   ]]>
  </style>
 </defs>
 <g id="Слой_x0020_1">
  <metadata id="CorelCorpID_0Corel-Layer"/>
  <g id="_2665593666416">
   <path class="fil0" d="M26454.92 19201.17c-65.24,853.59 -998.6,2094.61 -1962.1,2591.88 -1096.35,565.85 -2676.91,700.14 -3948.47,329.87 -2241.12,-652.6 -3730.63,-2953.98 -3106.82,-5893.92 1126.03,-5306.89 9512.98,-5287.14 9200.43,1819.96l-6734.88 0.08c-26.27,2531.65 2314.26,2653.31 3406.25,2111.05 594.51,-295.24 608.54,-489.29 961.52,-964.7l2184.08 5.78zm-20544.43 -9571.2c1967.8,0 6989.66,-231.19 8507.16,378.24 1036.83,416.38 1690.76,1304.37 1707.42,2722 24.18,2058.24 -1331.74,2365.14 -1698.68,2777.71 3142.57,652.82 3907.8,6901.25 -2508.1,6901.63l-6006.94 0.7 -0.41 -12669.09 -0.44 -111.2zm13185.84 607.12l5787.8 -1.21 0.34 1321.19 -5786.52 -11.35 -1.63 -1308.62zm-12179.99 -10159.25c-2187.77,238.99 -4005.74,812.59 -5374.14,2650.04 -1435.78,1927.91 -1508.72,3675.15 -1508.72,6490.02 0,1855.86 -95.92,14441.86 37.02,15956.06 179,2039.04 1000.05,4198.14 2671.1,5330.3 847.09,573.92 1474.49,979.22 2698.74,1259.6 1834.36,420.11 9600.96,250.09 11785.15,250.09 1739.95,0 6565.31,74.59 7950.56,-44.51 1137.91,-97.85 2218.39,-336.14 3140.62,-822.49 807.6,-425.86 1781.13,-1217.83 2198.91,-1836.79 1476.73,-2187.87 1509.94,-3387.83 1509.94,-6487.86 0,-2009.05 102.68,-14268.54 -40.03,-15951.61 -210.66,-2484.58 -1266.22,-4304.48 -2665.97,-5336.06 -1990.88,-1467.26 -3613.67,-1508.38 -6487.82,-1508.38 -1605.84,0 -14662.76,-85.25 -15915.36,51.59z"/>
   <path class="fil1" d="M8785.05 16714.6c2372.87,11.06 5079.61,-561.97 5121.03,1771.7 40.62,2287.61 -2865.89,1720.28 -5150.85,1732.32l29.81 -3504.01zm-28.74 -4901.52c1947.4,12.84 4724.85,-503.46 4615.29,1593 -50.39,964.54 -669.9,1342.21 -1607.62,1391.28 -950.63,49.75 -2016.03,3.3 -3003.87,5.89l-3.8 -2990.16zm-2845.38 -2071.91l0.41 12669.09 6006.94 -0.7c6415.9,-0.38 5650.67,-6248.81 2508.1,-6901.63 366.95,-412.57 1722.86,-719.47 1698.68,-2777.71 -16.65,-1417.63 -670.58,-2305.61 -1707.42,-2722 -1517.5,-609.43 -6539.36,-378.24 -8507.16,-378.24l0.44 111.2z"/>
   <path class="fil1" d="M19908.35 16407.81c112.97,-1215.81 822.08,-1993.4 2100.92,-1992.66 1333.52,0.78 1866.15,767.52 2064.55,1996.49l-4165.47 -3.83zm6546.58 2793.36l-2184.08 -5.78c-352.98,475.41 -367.01,669.46 -961.52,964.7 -1091.99,542.26 -3432.52,420.6 -3406.25,-2111.05l6734.88 -0.08c312.56,-7107.1 -8074.4,-7126.85 -9200.43,-1819.96 -623.81,2939.94 865.7,5241.32 3106.82,5893.92 1271.56,370.27 2852.12,235.98 3948.47,-329.87 963.5,-497.26 1896.87,-1738.29 1962.1,-2591.88z"/>
   <path class="fil0" d="M8755.24 20218.61c2284.96,-12.04 5191.47,555.29 5150.85,-1732.32 -41.42,-2333.67 -2748.16,-1760.64 -5121.03,-1771.7l-29.81 3504.01z"/>
   <path class="fil0" d="M8760.12 14803.24c987.84,-2.59 2053.23,43.86 3003.87,-5.89 937.72,-49.07 1557.23,-426.74 1607.62,-1391.28 109.56,-2096.46 -2667.88,-1580.16 -4615.29,-1593l3.8 2990.16z"/>
   <polygon class="fil1" points="19097.96,11545.72 24884.48,11557.07 24884.13,10235.88 19096.33,10237.1 "/>
   <path class="fil0" d="M19908.35 16407.81l4165.47 3.83c-198.4,-1228.97 -731.03,-1995.71 -2064.55,-1996.49 -1278.84,-0.74 -1987.94,776.85 -2100.92,1992.66z"/>
  </g>
 </g>
</svg>
