<?xml version="1.0" encoding="UTF-8"?>
<!DOCTYPE svg PUBLIC "-//W3C//DTD SVG 1.1//EN" "http://www.w3.org/Graphics/SVG/1.1/DTD/svg11.dtd">
<!-- Creator: CorelDRAW 2019 (64-Bit) -->
<svg xmlns="http://www.w3.org/2000/svg" xml:space="preserve" width="20" height="20" version="1.1" style="shape-rendering:geometricPrecision; text-rendering:geometricPrecision; image-rendering:optimizeQuality; fill-rule:evenodd; clip-rule:evenodd"
viewBox="0 0 35928.97 35588.28"
 xmlns:xlink="http://www.w3.org/1999/xlink"
 xmlns:xodm="http://www.corel.com/coreldraw/odm/2003">
 <defs>
  <style type="text/css">
   <![CDATA[
    .fil0 {fill:#22589A}
    .fil2 {fill:#A3B7D4}
    .fil1 {fill:white}
   ]]>
  </style>
 </defs>
 <g id="Слой_x0020_1">
  <metadata id="CorelCorpID_0Corel-Layer"/>
  <path class="fil0" d="M19131.43 35575.04l-15.71 -12917.36 -4863.64 -3.5 -3.2 -6090.88 4864.75 -4.41c76.17,-300.96 -24.36,-3624.97 52.03,-4516.92 126.82,-1480.65 359.89,-2518.89 910.5,-3683.16 705.63,-1492.12 1946.48,-2804.95 3463.68,-3427.35 339.45,-139.25 1345.14,-501.56 1766.41,-482.71l179.82 -53.37c338.44,-69.83 935.44,-54.76 1279.06,-54.71 607.01,0.09 4310.73,-33.72 4585.59,17.39l-12.49 6102.47c-263.49,65.39 -2023.86,14.64 -2557.08,25.11 -282.83,5.55 -545.4,52.37 -806.21,53.06 -173.73,-2.6 -681.06,147.65 -847.38,212.74 -1540.48,602.86 -1894.09,1991.86 -1893.8,3600.15 0.12,704.92 -33.74,1497.01 3.95,2205.21l6087.31 14.61c5.11,180.2 -252.88,1169.61 -295.65,1482.72 -68.18,499.21 -212.56,1027.16 -302.55,1543.65 -66.59,382.17 -546.8,2872.94 -626.06,3059.04l-4866.71 5.56 -0.26 12912.65c943.91,0 5581.37,57.64 6302.17,-67.67 1025.35,-178.25 2111.61,-733.73 2769.35,-1519.31 1168.7,-1395.85 1624.9,-2710.52 1623.64,-4827.69 -1.67,-2846.88 0,-5693.82 0,-8540.7 0,-741.58 -36.65,-1372.76 -36.65,-2089.35 0,-720.89 0,-1441.78 0,-2162.67 0,-739.75 36.65,-1351.58 36.65,-2089.35l0 -6414.69c0,-395.98 -6.87,-2275.95 -51.64,-2587.55 -216.06,-1503.55 -463.83,-2215.82 -1382.89,-3455.62 -217.15,-292.93 -532.01,-563.73 -812.26,-800.57l-318.77 -231.06c-667.53,-474.98 -1622.56,-745.77 -2455.03,-770.63 -1390.03,-41.54 -2854.7,1.2 -4253.21,1.2l-21406.77 -0.04c-997.41,-2.27 -1761.61,210.16 -2522.64,666.36 -189.28,113.47 -488.07,312.72 -639.27,460.4 -254.24,248.32 -163,97.64 -388.19,381.58 -48.78,61.5 -85.11,93.61 -143.03,150.2 -467.18,456.41 -971.12,1430.31 -1177.72,2047.95 -458.61,1371.07 -370.81,2400.14 -370.81,3881.21l0 21406.71c0,1375.17 89.59,2421.38 684.2,3604.47 183.24,364.59 356.53,664.62 603.76,972.42 411.83,512.75 814.44,943.4 1412.69,1299.81 1128.54,672.32 1830.56,684.61 3567.41,684.61 4285.55,0 8571.1,0 12856.64,0z"/>
  <path class="fil1" d="M25306.24 4448.76c-421.26,-18.85 -1426.96,343.46 -1766.41,482.71 -1517.2,622.4 -2758.04,1935.23 -3463.68,3427.35 -550.61,1164.28 -783.68,2202.51 -910.5,3683.16 -76.39,891.95 24.14,4215.96 -52.03,4516.92l-4864.75 4.41 3.2 6090.88 4863.64 3.5 15.71 12917.36 6102.36 0 0.26 -12912.65 4866.71 -5.56c79.27,-186.11 559.47,-2676.87 626.06,-3059.04 89.98,-516.49 234.37,-1044.44 302.55,-1543.65 42.76,-313.12 300.76,-1302.52 295.65,-1482.72l-6087.31 -14.61c-37.69,-708.2 -3.82,-1500.29 -3.95,-2205.21 -0.29,-1608.3 353.32,-2997.29 1893.8,-3600.15 166.32,-65.09 673.65,-215.34 847.38,-212.74 260.26,-189.14 2828.16,-99.87 3335.58,-99.87l0.75 -6057.49 -4546.14 0c-493.51,-0.16 -1006.99,80.07 -1458.88,67.41z"/>
  <path class="fil2" d="M25306.24 4448.76c451.9,12.66 965.38,-67.57 1458.88,-67.41l4546.14 0 -0.75 6057.49c-507.42,0 -3075.32,-89.28 -3335.58,99.87 260.8,-0.69 523.37,-47.51 806.21,-53.06 533.21,-10.46 2293.58,40.28 2557.08,-25.11l12.49 -6102.47c-274.85,-51.11 -3978.58,-17.29 -4585.59,-17.39 -343.63,-0.05 -940.62,-15.12 -1279.06,54.71l-179.82 53.37z"/>
 </g>
</svg>
