<svg xmlns="http://www.w3.org/2000/svg" width="20" height="20" viewBox="0 0 3364.7 3364.7"><defs><radialGradient id="a" cx="217.76" cy="3290.99" r="4271.92" gradientUnits="userSpaceOnUse"><stop offset=".09" stop-color="#fa8f21"/><stop offset=".78" stop-color="#d82d7e"/></radialGradient><radialGradient id="b" cx="2330.61" cy="3182.95" r="3759.33" gradientUnits="userSpaceOnUse"><stop offset=".64" stop-color="#8c3aaa" stop-opacity="0"/><stop offset="1" stop-color="#8c3aaa"/></radialGradient></defs><path fill="url(#a)" d="M853.2 3352.8c-200.1-9.1-308.8-42.4-381.1-70.6-95.8-37.3-164.1-81.7-236-153.5s-116.4-140.1-153.5-235.9c-28.2-72.3-61.5-181-70.6-381.1-10-216.3-12-281.2-12-829.2s2.2-612.8 11.9-829.3C21 653.1 54.5 544.6 82.5 472.1 119.8 376.3 164.3 308 236 236c71.8-71.8 140.1-116.4 236-153.5C544.3 54.3 653 21 853.1 11.9 1069.5 2 1134.5 0 1682.3 0c548 0 612.8 2.2 829.3 11.9 200.1 9.1 308.6 42.6 381.1 70.6 95.8 37.1 164.1 81.7 236 153.5s116.2 140.2 153.5 236c28.2 72.3 61.5 181 70.6 381.1 9.9 216.5 11.9 281.3 11.9 829.3 0 547.8-2 612.8-11.9 829.3-9.1 200.1-42.6 308.8-70.6 381.1-37.3 95.8-81.7 164.1-153.5 235.9s-140.2 116.2-236 153.5c-72.3 28.2-181 61.5-381.1 70.6-216.3 9.9-281.3 11.9-829.3 11.9-547.8 0-612.8-1.9-829.1-11.9"/><path fill="url(#b)" d="M853.2 3352.8c-200.1-9.1-308.8-42.4-381.1-70.6-95.8-37.3-164.1-81.7-236-153.5s-116.4-140.1-153.5-235.9c-28.2-72.3-61.5-181-70.6-381.1-10-216.3-12-281.2-12-829.2s2.2-612.8 11.9-829.3C21 653.1 54.5 544.6 82.5 472.1 119.8 376.3 164.3 308 236 236c71.8-71.8 140.1-116.4 236-153.5C544.3 54.3 653 21 853.1 11.9 1069.5 2 1134.5 0 1682.3 0c548 0 612.8 2.2 829.3 11.9 200.1 9.1 308.6 42.6 381.1 70.6 95.8 37.1 164.1 81.7 236 153.5s116.2 140.2 153.5 236c28.2 72.3 61.5 181 70.6 381.1 9.9 216.5 11.9 281.3 11.9 829.3 0 547.8-2 612.8-11.9 829.3-9.1 200.1-42.6 308.8-70.6 381.1-37.3 95.8-81.7 164.1-153.5 235.9s-140.2 116.2-236 153.5c-72.3 28.2-181 61.5-381.1 70.6-216.3 9.9-281.3 11.9-829.3 11.9-547.8 0-612.8-1.9-829.1-11.9"/><path fill="#fff" d="M1269.25 1689.52c0-230.1 186.5-416.7 416.6-416.7s416.7 186.6 416.7 416.7-186.6 416.7-416.7 416.7-416.6-186.6-416.6-416.7m-225.26 0c0 354.5 287.34 641.86 641.84 641.86s641.86-287.36 641.86-641.86-287.35-641.86-641.85-641.86S1044 1335 1044 1689.52m1159.13-667.3a150 150 0 1 0 150.06-149.95h-.08a150.07 150.07 0 0 0-150 149.94M1180.85 2707c-121.87-5.55-188.1-25.85-232.13-43-58.36-22.72-100-49.78-143.78-93.5s-70.88-85.32-93.5-143.68c-17.16-44-37.46-110.26-43-232.13-6.06-131.78-7.27-171.36-7.27-505.17s1.3-373.28 7.27-505.15c5.55-121.88 26-188 43-232.14 22.72-58.36 49.78-100 93.5-143.78s85.32-70.88 143.78-93.5c44-17.16 110.26-37.46 232.13-43 131.76-6.06 171.34-7.27 505-7.27S2059.13 666 2191 672c121.87 5.55 188 26 232.13 43 58.36 22.62 100 49.78 143.78 93.5s70.8 85.42 93.5 143.78c17.18 44 37.48 110.26 43 232.13 6.08 131.9 7.3 171.36 7.3 505.17s-1.2 373.28-7.28 505.15c-5.54 121.88-25.94 188.12-43 232.14-22.7 58.36-49.77 100-93.5 143.68s-85.4 70.78-143.77 93.5c-44 17.16-110.26 37.46-232.13 43-131.76 6.06-171.34 7.27-505.15 7.27s-373.28-1.2-505-7.27M1170.5 447.1c-133.07 6.05-224 27.15-303.4 58.05-82.2 31.9-151.87 74.72-221.44 144.18S533.4 788.47 501.48 870.76c-30.9 79.46-52 170.34-58.06 303.4-6.16 133.3-7.57 175.9-7.57 515.36s1.4 382.07 7.57 515.35c6.06 133.08 27.16 223.95 58.06 303.4 31.9 82.2 74.62 152 144.18 221.44s139.14 112.2 221.43 144.2c79.54 30.9 170.32 52 303.4 58.06 133.34 6.06 175.9 7.57 515.34 7.57s382.07-1.4 515.35-7.57c133.07-6.06 223.94-27.16 303.4-58.06 82.2-32 151.86-74.73 221.43-144.2s112.18-139.23 144.18-221.42c30.9-79.46 52.1-170.34 58.07-303.4 6.06-133.4 7.47-175.9 7.47-515.36s-1.4-382.07-7.47-515.35c-6.06-133.08-27.16-224-58.06-303.4-32-82.2-74.7-151.87-144.17-221.44S2586.8 537.06 2504.7 505.15c-79.55-30.9-170.43-52.1-303.4-58.06-133.3-6.1-175.9-7.6-515.3-7.6s-382.1 1.4-515.45 7.58"/></svg>