<?xml version="1.0" encoding="UTF-8"?>
<!DOCTYPE svg PUBLIC "-//W3C//DTD SVG 1.1//EN" "http://www.w3.org/Graphics/SVG/1.1/DTD/svg11.dtd">
<!-- Creator: CorelDRAW 2019 (64-Bit) -->
<svg xmlns="http://www.w3.org/2000/svg" xml:space="preserve" width="20" height="20" version="1.1" style="shape-rendering:geometricPrecision; text-rendering:geometricPrecision; image-rendering:optimizeQuality; fill-rule:evenodd; clip-rule:evenodd"
viewBox="0 0 34508.2 34508.2"
 xmlns:xlink="http://www.w3.org/1999/xlink"
 xmlns:xodm="http://www.corel.com/coreldraw/odm/2003">
 <defs>
  <style type="text/css">
   <![CDATA[
    .fil0 {fill:#4D74A4}
    .fil1 {fill:white}
   ]]>
  </style>
 </defs>
 <g id="Слой_x0020_1">
  <metadata id="CorelCorpID_0Corel-Layer"/>
  <g id="_2666006288688">
   <path class="fil0" d="M13238.64 11700.62c17.06,-396.67 579.01,-703.59 993.26,-803.74 533.12,-128.88 1071.43,-143.16 1640.52,-154.76 863.13,-17.6 2701.72,-70.76 3130.66,483.23 449.55,580.62 193.02,2439.8 194.8,3299.09 1.03,499.19 -237.85,3015.59 726.18,2772.78 838.26,-211.14 2489.71,-3101.34 2971.6,-4207.1 963.64,-2211.23 238.29,-1623 3659.48,-1731.82 456.46,-14.52 1403.71,-53.05 1819.52,0.85 1263.16,163.78 379.09,1520.81 -42.09,2245.92 -215.19,370.48 -471.46,749.45 -711.16,1075.91 -421.16,573.59 -2093,2710.68 -2296.88,3128.79 -287.59,589.79 -153.69,903.95 185.73,1298.65l1144.63 1111.87c513.53,457.87 1097.79,1075.3 1525.62,1609.17 400.78,500.09 1489.45,1780.19 281.88,2219.29 -538.55,195.84 -2719.73,141.93 -3457.43,153.71 -637.85,10.2 -998.22,-14.05 -1492.96,-298.99 -537.58,-309.6 -1065.07,-815.63 -1425.61,-1271.6 -130.93,-165.59 -297.87,-312.87 -428.8,-480.06 -197.71,-252.53 -620.44,-690.33 -899.16,-886.16 -1075.13,-755.4 -1467.51,745.52 -1531.33,1682.81 -41.92,615.42 -25.38,992.83 -611.18,1161.74 -342.86,98.86 -1305.48,52.74 -1732.52,52.72 -1056.91,-0.05 -2075.33,-283.33 -2940.13,-665.51 -1812.59,-801.02 -2902.12,-1969.9 -3912.33,-3267.02 -485.98,-623.99 -1033.67,-1398.64 -1471.9,-2133.39 -716.89,-1201.9 -1300.51,-2185.71 -1934.15,-3456.75 -202.4,-406.01 -378.53,-777.98 -587.88,-1198.6 -645.84,-1297.62 -1128.61,-2063.91 298.39,-2091.1 595.19,-11.35 3115.88,-85.27 3486.86,56.48 501,191.44 557.79,504.26 772.03,1015.28 491.55,1172.53 1206.35,2497.32 1896.1,3495.44 239.46,346.52 1370.56,2095.98 1899.9,1168.59 397.63,-696.65 336.47,-2346.1 300.71,-3235.78 -52.3,-1301.09 -192.78,-1944.3 -1452.36,-2149.97zm-13238.64 -6713.11l0 24533.18c0,992.99 563.81,2351.67 1238.64,3108.58 54.07,60.64 97.53,91.36 151.19,152.11 222.54,251.95 7.14,60.56 318.9,321.38 456.39,381.85 482.97,457.22 1077.06,776.42 645.57,346.85 1444.35,629.02 2201.73,629.02l24533.18 0c482.98,0 1098.49,-157.17 1530.83,-322.64 746.76,-285.81 1132.89,-539.93 1729.86,-1067.19 425.72,-376.03 681.27,-704.65 992.38,-1198.07 46.46,-73.68 61.98,-117.04 105.42,-197.89l297.15 -646.43c57.99,-156.61 109.4,-304.19 159.86,-480.44 80.81,-282.27 172.01,-726.16 172.01,-1074.86l0 -24533.18c0,-482.98 -157.17,-1098.49 -322.64,-1530.83 -285.81,-746.76 -539.93,-1132.89 -1067.19,-1729.86 -68.97,-78.09 -72.85,-108.73 -150.56,-186.43 -73.45,-73.45 -94.33,-73.04 -168.34,-134.95l-515.29 -428.31c-115.57,-87.56 -233.22,-160.31 -363.88,-242.69 -73.68,-46.46 -117.04,-61.98 -197.89,-105.42l-646.43 -297.15c-156.61,-57.99 -304.19,-109.4 -480.44,-159.86 -282.27,-80.81 -726.16,-172.01 -1074.86,-172.01l-24533.18 0c-992.99,0 -2351.67,563.81 -3108.58,1238.64l-338.55 301.74c-248.21,248.21 -617.11,748 -805.94,1047.51 -384.84,610.36 -734.44,1688.13 -734.44,2399.61z"/>
   <path class="fil1" d="M6037.02 13441.67c209.35,420.62 385.48,792.59 587.88,1198.6 633.65,1271.04 1217.26,2254.85 1934.15,3456.75 438.23,734.75 985.92,1509.39 1471.9,2133.39 1010.2,1297.12 2099.74,2465.99 3912.33,3267.02 864.8,382.18 1883.22,665.46 2940.13,665.51 427.04,0.02 1389.66,46.14 1732.52,-52.72 585.8,-168.91 569.26,-546.31 611.18,-1161.74 63.81,-937.29 456.2,-2438.21 1531.33,-1682.81 278.72,195.83 701.45,633.63 899.16,886.16 130.93,167.2 297.87,314.47 428.8,480.06 360.54,455.97 888.03,962 1425.61,1271.6 494.74,284.94 855.11,309.19 1492.96,298.99 737.7,-11.79 2918.88,42.12 3457.43,-153.71 1207.57,-439.11 118.9,-1719.2 -281.88,-2219.29 -427.83,-533.87 -1012.1,-1151.3 -1525.62,-1609.17l-1144.63 -1111.87c-339.42,-394.7 -473.32,-708.85 -185.73,-1298.65 203.88,-418.11 1875.73,-2555.2 2296.88,-3128.79 239.7,-326.46 495.96,-705.43 711.16,-1075.91 421.19,-725.11 1305.25,-2082.14 42.09,-2245.92 -415.81,-53.91 -1363.05,-15.38 -1819.52,-0.85 -3421.19,108.81 -2695.85,-479.41 -3659.48,1731.82 -481.88,1105.77 -2133.34,3995.96 -2971.6,4207.1 -964.03,242.81 -725.15,-2273.59 -726.18,-2772.78 -1.78,-859.3 254.75,-2718.47 -194.8,-3299.09 -428.94,-553.99 -2267.53,-500.83 -3130.66,-483.23 -569.09,11.59 -1107.4,25.88 -1640.52,154.76 -414.25,100.15 -976.2,407.07 -993.26,803.74 1259.58,205.67 1400.06,848.88 1452.36,2149.97 35.76,889.69 96.92,2539.14 -300.71,3235.78 -529.34,927.39 -1660.44,-822.07 -1899.9,-1168.59 -689.75,-998.13 -1404.55,-2322.92 -1896.1,-3495.44 -214.24,-511.03 -271.03,-823.84 -772.03,-1015.28 -370.98,-141.76 -2891.66,-67.84 -3486.86,-56.48 -1427,27.19 -944.23,793.48 -298.39,2091.1z"/>
  </g>
 </g>
</svg>
