<?xml version="1.0" encoding="UTF-8"?>
<!DOCTYPE svg PUBLIC "-//W3C//DTD SVG 1.1//EN" "http://www.w3.org/Graphics/SVG/1.1/DTD/svg11.dtd">
<!-- Creator: CorelDRAW 2019 (64-Bit) -->
<svg xmlns="http://www.w3.org/2000/svg" xml:space="preserve" width="730.029mm" height="152.998mm" version="1.1" style="shape-rendering:geometricPrecision; text-rendering:geometricPrecision; image-rendering:optimizeQuality; fill-rule:evenodd; clip-rule:evenodd"
viewBox="0 0 70813.12 14840.83"
 xmlns:xlink="http://www.w3.org/1999/xlink"
 xmlns:xodm="http://www.corel.com/coreldraw/odm/2003">
 <defs>
  <style type="text/css">
   <![CDATA[
    .fil1 {fill:#FEFEFE}
    .fil0 {fill:white}
   ]]>
  </style>
 </defs>
 <g id="Слой_x0020_1">
  <metadata id="CorelCorpID_0Corel-Layer"/>
  <path class="fil0" d="M1710.53 7189.19l5318.96 7174.5c17.41,21.87 20.83,42.37 59.07,42.37l5407.02 -14.48 -3826.97 -5260.51c-77.36,20.66 -1217.37,1446.93 -1369.46,1630.73l-2935.85 -51.14 2609.28 -3521.47 -2536.8 -3521.5 2533.83 17.47c94.6,69.09 1289.18,1745.18 1364.7,1838.4l58.89 42.55 4102.38 -5550.33 -5276.56 -14.5 -5508.49 7187.91z"/>
  <path class="fil0" d="M31543.37 59.25l0 1072.39 3580.52 0 0 7738.6 1174.18 0 0 -7738.6 3710.98 0c36.2,0 29.27,8.4 80.74,78.7l227.83 293.93c28.31,38.16 49.32,60.43 76.78,97.16l823.93 1074.73c103.21,132.14 197.08,252.3 296.2,384.99l826.29 1072.39c24.91,33.2 53.11,67.32 74.57,99.34 -15.82,67.83 -152.3,227.21 -200.86,291.94l-1085.16 1436.7c-38.16,50.84 -69.92,93.11 -105.59,140.8l-2058.45 2738.94 1420.61 0c12.96,-48.54 727.2,-979.06 803.32,-1080.86l925.16 -1219.9c167.36,-201.96 410.46,-551.52 593.03,-783.85l492.88 -652.1c19.48,-24.9 26.68,-40.98 47.37,-68.59l602.78 -803.09c-130.15,-194.3 -645.33,-829.87 -813.78,-1055.88 -67.23,-90.22 -135.44,-170.27 -202.94,-260.86l-1126.69 -1453.16c-337.99,-451.6 -743.79,-940.64 -1074.02,-1389.91 -17.37,-23.65 -34.02,-57.27 -73.16,-57.27l-8973.06 0c-33.4,0 -43.48,10.09 -43.48,43.47z"/>
  <path class="fil0" d="M55026.93 4493.72c0,-505.41 69.24,-968.9 248.51,-1418.11 72.05,-180.56 158.67,-359.89 264.57,-518.07l245.04 -334.7c558.18,-655.88 1363.85,-1076.71 2271.55,-1076.71 745.03,0 1155.8,71.58 1749.51,424.78 369.62,219.87 736.08,576.4 973.04,925.67 80.15,118.14 223.61,362.61 276.11,492.03 20.7,51.03 41.16,85.37 58.16,130.24 276.07,728.57 285.14,1543.2 97.06,2296.08 -13.6,54.45 -34.61,107.24 -49.87,153.02 -72.27,216.79 -126.43,333.54 -238.5,544.14l-152.01 239.31c-338.06,496.53 -735,816.86 -1263.83,1084.19 -90.14,45.57 -178.63,71.67 -279.65,111.72 -668.19,264.89 -1780.6,196.36 -2397.27,-116.68 -204.82,-103.97 -284.25,-132.2 -493.8,-288.89 -38.26,-28.62 -72.07,-51.82 -107.6,-80.82 -241.67,-197.29 -497.08,-474.38 -664.71,-726.69 -95.97,-144.47 -208.78,-347.1 -277.62,-519.51 -143.52,-359.58 -258.68,-814.66 -258.68,-1321zm-1217.66 -57.97c0,527.39 97.66,1228.95 295.9,1718.54 225.79,557.65 379.44,793.43 760.13,1268.93l544.59 527.97c159.41,125.27 383.48,292.11 559.36,382.76 37.5,19.33 52.13,32.01 91.66,53.29 810.8,436.49 1694.69,541.75 2617.67,452.66 476.02,-45.95 847.34,-152.94 1283.31,-325.66 380.03,-150.57 758.6,-404.65 1070.74,-668.59l223.32 -197c106.43,-88.94 398.21,-449.19 495.09,-577.44 224.64,-297.36 429.35,-693.01 551.2,-1057.54 239.73,-717.16 248.12,-1055.83 248.12,-1809.79 0,-376.65 -103.83,-1009.9 -238.05,-1356.11 -247.99,-639.69 -307.79,-753.88 -710.54,-1289.53 -23.82,-31.68 -38.25,-55.01 -62.71,-82.22 -91.2,-101.43 -164.32,-179.18 -260.73,-275.55 -193.07,-193.02 -288.46,-276.38 -502.37,-425.25 -496.18,-345.28 -1028.62,-547.87 -1642.38,-647.81 -673.74,-109.7 -1319.2,-109.04 -1992.43,2.1 -232.39,38.36 -431.92,90.43 -646.14,165.59 -80.6,28.27 -126.36,39.5 -201.98,73.4l-266.77 124.6c-160.55,82.68 -282.62,145.61 -436.19,259.53 -29.07,21.57 -43.93,31.82 -76.25,54.2l-374.54 321.16c-49.42,49.42 -88.2,88.48 -137.85,137.55 -92.64,91.57 -289.88,337.83 -365.8,445.84l-110.11 165.29c-75.4,115.55 -135.64,209.41 -199.26,337 -102.86,206.34 -170.09,344.45 -247.21,564.4 -178.36,508.72 -269.8,1101.96 -269.8,1657.67z"/>
  <path class="fil0" d="M43763.53 2609.8c13.4,57.5 42.39,76.69 72.61,115.8l265.29 343.44c73.3,89.74 269.32,379.95 357.89,439.25 38.88,-26.02 53,-58.3 90.62,-97.8 38.64,-40.56 53.96,-68.6 89.31,-113.61l273.95 -334.8c34.24,-40.68 58.57,-68.5 92.42,-110.49 63.88,-79.26 117.92,-145.66 181.85,-223.97 149.47,-183.11 292.87,-374.93 449.78,-550.27l722.97 -885.82c50.84,-64.99 22.81,-63.85 123.4,-79.52 366.21,-57.05 752.83,-61.93 1121.42,-81.74l391.89 -13.98c82.26,-1.02 100.28,-15.44 187.38,-15.57 929.5,-1.29 1883.89,37.73 2752.78,364.75 39.01,14.68 64.95,31.37 109.56,49.88 441.95,183.45 820.15,548.25 820.15,1064.04 0,689.43 -818.05,1027.94 -1375.42,1190.02 -535.03,155.58 -1075.12,227.19 -1629.31,298.57l-604.8 47.52 0 999.94 1062.18 -25.03c261.54,-35.83 984.55,-10.65 1225.75,143.42 52.08,33.28 116.84,74.22 164.08,111.31 56.06,44.02 94.17,83.85 147.08,128.31 31.73,26.68 39.99,27.42 72.1,58.35 167.75,161.41 308.21,335.34 455.46,515.62 125.31,153.44 242.54,310.31 346.3,479.82l803.35 1399.66c190.71,267.72 364.61,558.57 539.23,837.63 19.6,31.34 27.6,48.68 49.36,81.08 24.89,37.08 38.54,49.61 49.27,95.66l1391.62 0c-11.93,-51.26 -47.57,-96.3 -78.6,-138.81 -35.09,-48.09 -56,-77.49 -89.54,-127.86 -179.04,-268.86 -380.71,-525.92 -541.58,-806.3l-739.04 -1261.03c-28.37,-47.11 -51.33,-85.46 -81.52,-135.9 -59.83,-99.88 -112.46,-177.28 -172.02,-277.27l-176.38 -272.93c-245.28,-367.8 -517.27,-741.99 -863.1,-1021.08 -56.66,-45.71 -130.05,-128.03 -200.92,-146.95 37.94,-51.76 144.5,-80.92 203.61,-115.26 179.3,-104.15 359.16,-214.09 507.39,-362.29l257.54 -307.69 160.3 -274.49c24.84,-58.63 41.27,-89.36 66.22,-151.18 25.05,-62.05 33.26,-100.83 53.41,-163.99 218.32,-684.26 132.57,-1482.59 -229.04,-2093.33 -31,-52.34 -49.89,-71.7 -82.98,-119.93 -349.6,-509.32 -895.1,-714.18 -1485.93,-833.18 -295.19,-59.44 -782.79,-144.26 -1103.18,-157.96 -131.7,-5.63 -253.96,-29.37 -391.59,-28.77 -87.5,0.37 -104.85,-14.36 -187.56,-15.38 -68.78,-0.84 -150.17,5.37 -217.26,-0.17 -284.25,-23.52 -1242.46,-31.45 -1510.47,-1.36 -62.75,7.04 -150.31,2.04 -215.66,1.78 -92.77,-0.38 -118.29,14.38 -202.01,15.4l-653.39 -1.04c-77.09,2.3 -109.12,15.68 -202.28,15.15 -140.44,-0.81 -280.86,0.41 -421.31,-0.92 -148.61,-1.42 -167.78,76.01 -251.85,182.95 -65.84,83.75 -134.29,157.66 -196.78,238.04l-1263.03 1534.25c-36.44,46.12 -66.26,74.51 -99.72,117.69 -117.88,152.14 -288.89,325.51 -391.26,478.35z"/>
  <path class="fil0" d="M66217.88 3696.68c-21.16,-79.19 -106.48,-156.44 -155.33,-221.51l-1002.28 -1331.19c-29.06,-38.74 -49.19,-67.51 -80.68,-107.73 -170.04,-217.01 -321.17,-449.67 -497.84,-661.64 -35.53,-42.62 -52.21,-74.08 -86.93,-115.99 -61.57,-74.28 -109.91,-143.26 -169.1,-222.23 -12.44,-16.58 -645.2,-832.5 -660.62,-890.19l-1435.1 0c16.13,60.36 137.37,193.45 182.11,252.72l1745.8 2312.38c23.08,32.3 44.24,53.84 70.61,88.83 306.53,407.06 694.53,950.22 997.65,1321.31 196.13,240.11 375.21,495.65 561.71,742.71l373.75 495.86c90.64,113.66 98.58,75.68 257.72,75.68 55.21,0 346.82,-339.46 416.76,-409.39 37.27,-37.26 64.89,-63.91 101.76,-101.16l710.01 -753.86c34.85,-34.83 69.78,-64.96 100.82,-102.09 41.86,-50.05 55.31,-68.77 102.1,-115.28 75.49,-75.02 138.24,-132.96 204.44,-215.9 125.15,-156.85 374.54,-367.51 505.24,-523.83l710.98 -752.88c78.3,-77.63 356.92,-395.98 409.5,-431.17 0,2192.97 12.81,4386.36 -0.07,6579.3 -0.42,71.02 -22.53,173.85 43.54,173.85l1101.7 0c33.4,0 43.49,-10.08 43.49,-43.48l0 -8622.59c0,-33.39 -10.1,-43.47 -43.49,-43.47l-1043.71 0c-55.7,0 -184.19,168.21 -221.7,213.1l-651.98 681.46c-214.63,222.94 -417.11,462.33 -637.54,681.4 -46.81,46.52 -60.25,65.22 -102.12,115.3l-325.5 341.2c-171.23,171.17 -430.41,441.57 -587.74,629.74l-593.9 623.59c-83.93,83.59 -257.01,313.9 -344.06,337.14z"/>
  <path class="fil0" d="M30528.65 5305.25l-5291.05 0 851.63 829.66c163.34,163.28 107.89,142.79 278.94,141.41 990.72,-8.01 1969.58,14.39 2957.3,14.39 565.34,0 1130.69,0 1696.03,0 13.04,55.93 49.4,109.48 70.45,161.42 24.87,61.4 47.68,102.29 74.72,157.18l149.51 328.76c28.39,61.21 46.09,91.18 73.86,158.04l820.14 1774.12 1435.12 0c-4.62,-55.26 -87.33,-199.76 -125.56,-280.26l-976.15 -1936.97c-91.8,-183.56 -183.61,-367.13 -275.42,-550.69l-835.94 -1656.89c-255.45,-510.78 -589.94,-1148.65 -828.42,-1649.89l-1394.3 -2765.26c-460.21,0 -903.31,-14.48 -1377.11,-14.48 7.27,87.23 275.65,542.38 328.64,656.89l164.22 328.55c57.44,114.84 116.52,218.45 173.96,333.31l931.73 1807.48c17.53,36.66 20.54,56.54 39.94,90.49l386.13 744.35c29.48,58.96 647.63,1225.41 671.65,1328.4z"/>
  <path class="fil1" d="M20642.35 4247.37c0,36.33 43.49,64.62 66.27,93.16l146.84 172.03c34.58,40.88 41.99,53.65 80.61,93.31 34.87,35.8 39.28,51.97 72.14,87.28l463.93 507.15c33.61,38.16 40.78,55.67 79.63,94.3l159.38 173.99c28.91,30.01 52.84,48.79 79.91,79.52l1355.48 1456.31c28.69,28.62 53.44,50.09 79.62,79.82l311.56 340.65c303.63,302 581.47,624.36 884.48,927.27l488.06 515.28 1603 2.8 -1416.34 -1511.42c-29.07,-34.77 -31.85,-45.23 -65.59,-79.33l-826.56 -869.22c-48.21,-48.17 -92.23,-88.14 -137.91,-137.5 -28.91,-31.25 -30.68,-41.62 -57.9,-72.53 -125.54,-142.51 -386.81,-375.86 -490.27,-509.82 -102.57,-132.78 -362.8,-364.94 -480.21,-505.35 -84.37,-100.92 -190.53,-188.31 -275.42,-289.85 -148.28,-177.35 -322.42,-336.92 -479.21,-506.37l-133.9 -155.98c130.53,-194.86 339.51,-342.37 484.49,-530.07 109.37,-141.62 253.15,-251.6 366.5,-387.18 133.3,-159.41 292.98,-299.3 422.5,-461.62 112.78,-141.34 258.09,-253.82 374.78,-393.39l305.08 -332.65c50.38,-50.26 73.1,-73.41 117.44,-128.96 37.11,-46.5 85.74,-87.61 129.28,-131.6 218.3,-220.58 503.09,-561.73 731.76,-790.09 209.11,-208.85 399.33,-444.04 608.83,-652.11 23.94,-23.77 43.07,-40.16 64.57,-65.88l324.5 -359.3 -1508.89 1.28c-47.55,0 -780.83,811.08 -873.61,909.16 -147.17,146.37 -337.29,375.93 -485.1,529.45l-500.71 528.36c-30.93,32.13 -31.65,40.17 -58.34,72.09 -21.47,25.68 -40.66,42.2 -64.57,65.87l-485.51 529.08c-173.47,171.45 -328.53,358.7 -492.8,536.25 -42.93,46.4 -81.09,73.93 -120.92,125.48 -93.12,120.59 -206.13,216.59 -305.23,332.5 -51.34,60 -541.65,576.8 -541.65,617.85z"/>
  <polygon class="fil1" points="4330.19,14401.95 -0,8623.87 -0,14404.19 "/>
  <polygon class="fil1" points="-0,5797.98 4319.82,1.28 17.75,1.19 "/>
  <path class="fil1" d="M19178.25 15.78l-1.26 8768.76c-1.7,219.54 980.79,100.17 1175.43,100.17l0 -8871.6 -1174.17 2.67z"/>
  <path class="fil1" d="M43705.53 5899.43c36.18,68.35 97.86,125.54 147,186.35 52.56,65.1 97.7,113.88 151.1,182.25 100.75,129 201.06,235.4 302.41,364.3 51.64,65.68 99.42,118.16 151.15,182.2l1449.87 1738.75c26.24,33.14 49.33,63.59 78.1,95.85 33.29,37.32 45.6,58.78 79.62,94.29 39.3,41.01 46.06,52.94 76.11,97.82l1420.61 0c-15.43,-66.26 -315.3,-415.73 -380.64,-489l-588.72 -715.7c-66.15,-83.5 -126.78,-155.39 -194.88,-239.91l-1378.88 -1679.3c-76.28,-97.67 -547.61,-679.64 -602.51,-716.4 -51.39,97.08 -590.51,719.64 -710.31,898.49z"/>
  <path class="fil1" d="M29919.81 14116.24c-201.29,0 -170.3,-34.73 -275.43,-43.47l0 -956.46c121.75,-64.4 149.16,-57.97 289.93,-57.97 208.29,0 347.89,267.55 347.89,492.72 0,146.73 -7,288.65 -96.78,410.46 -56.36,76.49 -140.77,154.72 -265.62,154.72zm-1232.18 -478.22l0 -101.45c0,-219.94 138.74,-478.22 347.92,-478.22 63.32,0 289.91,-1.69 289.91,86.95l0 883.99c0,114.13 -637.84,223.27 -637.84,-391.27zm637.84 -695.61c-168.79,-113 -188.76,-115.93 -376.9,-115.93 -356.56,0 -594.34,398.26 -594.34,768.06 0,638.4 556.95,895.83 897.97,680.33 42.41,-26.79 21.12,-28.77 73.26,-42.69l0 608.66 318.91 0 0 -608.66c123.89,65.54 157.86,115.93 347.91,115.93 606.81,0 775.53,-845.42 466.2,-1263.11 -52.75,-71.22 -100.58,-123.11 -173.78,-174.08 -134.83,-93.91 -352.5,-113.75 -514.38,-45.48 -66.51,28.04 -77.13,44.29 -125.96,76.97l0 -608.66 -318.91 0 0 608.66z"/>
  <path class="fil1" d="M55186.39 13188.77l0 -130.43 478.38 0 0 1014.43 -753.8 0c172.61,-257.71 275.42,-552.72 275.42,-884zm-681.32 884l-144.96 0 0 536.19c0,69.2 97.05,43.48 275.42,43.48 73.62,0 43.49,-133.1 43.49,-333.31l1304.64 0c0,411.24 -76.64,333.31 318.92,333.31l0 -579.66 -304.42 0 0 -1173.83c0,-33.4 -10.09,-43.49 -43.49,-43.49l-1058.22 0c-73.93,0 -41.09,200.79 -42.91,348.38 -3.11,254.36 -90.66,573.74 -244.78,769.72 -42.32,53.82 -63.72,99.22 -103.7,99.22z"/>
  <path class="fil1" d="M23338.61 14145.22c-142.46,0 -463.88,-125.15 -463.88,-202.88l0 -623.14c0,-67.75 310.4,-246.37 434.89,-246.37 151.02,0 288.01,-13.36 385.73,150.57 157.58,264.36 108.77,921.81 -356.75,921.81zm-463.88 -1043.4c0,-48.88 0.88,-97.45 1.27,-146.16 0.95,-124.41 24.3,-100.2 -291.2,-100.2 -33.4,0 -43.48,10.09 -43.48,43.49l0 1941.89 333.4 0 0 -666.63c73.14,38.68 124,91.51 208.44,124.95 388.89,153.92 1038.22,1.07 1038.22,-791.57 0,-206.03 -71.01,-370.41 -170.11,-482.07 -199.36,-224.67 -605.5,-255.48 -861.7,-114.66 -32.34,17.78 -88.44,60.82 -116.99,85.92 -39.59,34.84 -66.18,81.85 -97.86,105.05z"/>
  <path class="fil1" d="M57781.18 14275.66c0,71.46 114.31,43.47 304.42,43.47 45.05,0 180.62,-216.89 209.17,-254.63l405.85 -550.71c37.11,-49.36 62.88,-83.73 99.51,-132.4 38.47,-51.12 61.11,-100.76 111.73,-134.66l0 1072.39c190.12,0 304.43,27.99 304.43,-43.47l0 -1376.72c0,-71.47 -114.31,-43.49 -304.43,-43.49 -44.3,0 -46.02,39.94 -111.57,120.32 -36.25,44.44 -61.46,86.29 -97.57,134.34l-408.15 548.43c-48.16,64.07 -157.82,235.05 -208.98,269.3l0 -1072.39 -304.42 0 0 1420.2z"/>
  <path class="fil1" d="M66304.85 14319.12c461.26,0 256.7,55.81 511.75,-256.47 39.62,-48.5 62.6,-84.39 99.12,-132.76 37.7,-49.96 66.33,-88.59 105.67,-140.73l344.06 -467.57c25.91,-39.92 19.17,-46.76 70.08,-60.35l0 1057.89c190.12,0 304.42,27.99 304.42,-43.47l0 -1376.72c0,-71.47 -114.3,-43.49 -304.42,-43.49 -42.93,0 -177.18,212.15 -209.13,254.66l-205.2 273.09c-73.66,97.97 -365.39,513.49 -411.92,544.65l0 -1072.39 -304.43 0 0 1463.67z"/>
  <path class="fil1" d="M32152.2 14319.12c425.21,0 255.42,61.47 552.99,-316.67l563.2 -755.72 0 826.04c-0.04,300.53 -65,246.35 304.42,246.35l0 -1463.67c-353.12,0 -299.93,-35.73 -405.79,116.04 -148.18,212.47 -369.52,485.45 -504.6,683.88l-205.81 272.46 1.25 -972.19c0.97,-125.33 25.27,-100.2 -305.67,-100.2l0 1463.67z"/>
  <path class="fil1" d="M49402.48 14275.66c0,71.46 114.31,43.47 304.42,43.47 35.64,0 113.98,-125.72 161.59,-186.25 19.56,-24.84 27.33,-40.41 47.46,-68.48 70.32,-98 132.31,-176.87 202.95,-275.34 70.28,-97.98 131.61,-176.17 202.94,-275.36 39.22,-54.52 172.56,-241.03 211.33,-266.96l0 1072.39 304.42 0 0 -1463.67 -333.42 0c-10.38,38.89 -49.97,78.71 -93.09,138.8l-148.96 198.9c-20.48,25.07 -31.46,44.35 -47.97,67.98l-295.95 399.75c-38.97,54.34 -172.77,241.16 -211.31,266.96l0 -1072.39 -304.42 0 0 1420.2z"/>
  <path class="fil1" d="M46329.31 14319.12c391.64,0 270.47,61.89 503.37,-250.34l612.82 -822.05 0 826.04c-0.03,300.53 -65.01,246.35 304.42,246.35l0 -1463.67c-397.27,0 -272.91,-56.25 -503.22,250.49 -131.88,175.63 -490.91,681.52 -612.97,821.89l0 -1072.39 -304.42 0 0 1463.67z"/>
  <path class="fil1" d="M25817.43 13927.84l0 -43.47c0,-261.64 471.12,-260.84 666.82,-260.84l0 362.28c-42.2,11.27 -38.49,16.9 -75.27,40.69 -217.92,140.99 -591.55,123.02 -591.55,-98.66zm-188.45 -956.45c0,377.15 13.54,72.47 478.37,72.47 362.46,0 376.9,62.08 376.9,405.75 -225.25,0 -517.46,13.74 -686.42,96.35 -164.57,80.46 -313.82,180.54 -313.82,396.38 0,358.1 451.33,504.1 813.72,335.23 100.35,-46.76 197.76,-121.46 244.5,-132.36 21.5,258.26 507.36,245.06 507.36,115.93 0,-49.96 -10.71,-56.11 -14.48,-101.43 -183.3,0 -232.42,-62.29 -232.45,-289.34 -0.03,-174.03 0.3,-348.16 0.51,-522.21 0.23,-186.8 -15.13,-316.15 -121.44,-400.3 -212.77,-168.36 -542.38,-129.84 -793.17,-79.28 -51.98,10.49 -259.57,40.75 -259.57,102.8z"/>
  <path class="fil1" d="M63637.57 13913.36c0,-187 265.67,-289.83 463.88,-289.83l217.44 0 0 362.28c-41.25,11.02 -106.16,54.87 -154.17,77.73 -122.21,58.14 -328.98,86.35 -443.19,-2.23 -30.97,-24.02 -83.95,-100.35 -83.95,-147.95zm-173.94 -970.95l0 217.38c167.06,-13.9 104.37,-115.93 623.31,-115.93 249.07,0 231.94,243.02 231.94,405.75 -333.34,0 -660.73,14.89 -890.03,226.1l-72.09 101.85c-181.74,368.65 282.5,790.26 889.22,439.71 39.25,-22.69 72.47,-60.32 116.4,-72.05 67.1,126.81 93.64,202.89 304.42,202.89 296.37,0 205.18,-87.83 202.93,-188.38 -223.6,0 -232.27,-77.44 -231.94,-333.31 0.21,-169.06 -0.81,-338.26 0.1,-507.31 1.04,-192.99 -24.96,-268.4 -126.44,-366.32 -224.76,-216.9 -839.22,-110.43 -1047.83,-10.37z"/>
  <path class="fil1" d="M38936.35 13362.67l0 57.97 -753.8 0c25.61,-109.94 36.53,-185.12 98.85,-263.46 172.64,-216.96 654.95,-160.34 654.95,205.5zm-1101.71 217.38c0,111.78 33.12,258.46 71.87,333.93 43.54,84.79 106.67,166.07 178.77,227.03 437.28,369.75 984.83,138.76 1169.97,134.65l0 -217.39c-146.54,3.27 -589.85,220.37 -909.35,-47.37 -108.53,-90.95 -141.19,-215.6 -177.85,-372.88l1001.49 1.25c76.61,0.59 100.21,9.85 100.21,-59.22 0,-283.34 -92.89,-562.82 -323.32,-676.7 -457.79,-226.27 -1111.79,31.04 -1111.79,676.7z"/>
  <path class="fil1" d="M69378 12898.94l0 1376.72c0,73.59 133.15,43.47 333.42,43.47l0 -666.62 782.78 0 0 666.62 318.92 0 0 -1463.67 -318.92 0 0 594.16 -782.78 0 0 -594.16c-200.27,0 -333.42,-30.11 -333.42,43.49z"/>
  <path class="fil1" d="M43531.59 12898.94l0 1376.72c0,70.34 105.46,43.47 289.91,43.47 33.4,0 43.49,-10.09 43.49,-43.47l0 -579.67c164.37,0 156.94,-11.76 259.05,117.81 44.74,56.75 84.79,99.8 126.66,163.21 40.09,60.74 70.67,106.34 110.04,165.34 40.69,60.98 74.12,118.6 113.08,176.78l347.9 0 -261.61 -405.08c-68.09,-114 -184.64,-305.98 -347.21,-319.51l0 -28.98c60.13,-13.99 119.2,-61.97 155.55,-105.34 148.41,-177.02 132.7,-381.22 380.79,-401.86l0 -202.89c-424.62,0 -418.72,235.29 -618.83,511.71 -29.93,41.36 -47,70.67 -95.14,93.29 -33.32,15.64 -126.27,31.67 -170.28,32.65l0 -594.16c0,-70.36 -105.46,-43.49 -289.92,-43.49 -33.4,0 -43.48,10.09 -43.48,43.49z"/>
  <path class="fil1" d="M35036.9 12898.94c0,414.04 -48.24,912.97 507.36,912.97 283.16,0 194.71,1.36 449.38,-57.97l-0.85 450.1c-2.22,140.6 -32.83,115.08 290.77,115.08 33.4,0 43.49,-10.09 43.49,-43.47l0 -1420.2c-377.56,0 -336.54,-29.71 -333.92,129.92l0.51 565.69c-76.62,36.75 -207.88,57.97 -318.92,57.97 -346.45,0 -304.51,-220.5 -304.41,-521.71 0.08,-281.41 61.25,-231.87 -289.93,-231.87 -33.4,0 -43.49,10.09 -43.49,43.49z"/>
  <path class="fil1" d="M60723.88 12884.44l0 231.87c284.62,-66.29 170.5,-72.45 521.85,-72.45 409.05,0 490.27,405.75 -115.97,405.75l-57.98 0 0 188.4c157.2,0 536.35,-4.19 536.35,217.38l0 57.97c0,181.9 -294.1,217.38 -449.38,217.38 -93.6,0 -172.09,-12.47 -247.87,-27.54 -67.62,-13.43 -166.33,-43.49 -230.49,-44.93 0,123.09 -9.48,129.02 14.49,231.87 184.11,15.32 199.15,57.97 536.36,57.97 663.22,0 886.2,-476.57 609.47,-696.25 -32.71,-25.97 -61.55,-46.82 -106.56,-67.37 -55.03,-25.11 -96.5,-22.12 -126.01,-62.41 45.66,-10.63 59.33,-24.47 97.33,-47.62 49.34,-30.01 48.85,-32.8 87.77,-71.65 280.21,-279.87 -3.95,-576.34 -518.52,-576.34 -380.89,0 -357.59,41.88 -550.84,57.97z"/>
  <path class="fil1" d="M40690.36 13580.05c0,198.63 57.67,363 184.48,496.69l34.43 38.03c242.47,253.18 651.01,275.93 999.17,190.27 43.16,-10.62 82.18,-25.4 130.06,-29.38l0 -231.87c-100.28,8.34 -543.37,211.91 -801.35,-39.41 -184.84,-180.07 -169.89,-259.66 -169.89,-496.8 0,-185.47 140.04,-363.14 284.91,-425.27 134.77,-57.78 323.94,-39.44 464.93,-20.02 62.16,8.55 138.76,38.01 206.89,39.53l0 -231.86c-74.49,0 -134.87,-21.44 -204.19,-27.74 -315.87,-28.76 -646.68,-30.61 -893.45,176.7 -141.18,118.63 -235.99,305.87 -235.99,561.14z"/>
  <polygon class="fil1" points="19903.05,14319.12 20221.96,14319.12 20221.96,13101.82 21164.2,13101.82 21164.2,12855.45 19903.05,12855.45 "/>
  <path class="fil1" d="M50185.25 12609.09c258.64,0 521.86,-153.61 521.86,-405.76l-202.94 0c-20.2,242.69 -585.17,288.09 -652.32,0l-202.94 0c0,85.21 24.82,125.11 57.61,174.26 103.63,155.33 265.18,231.5 478.74,231.5z"/>
  <path class="fil1" d="M67073.13 12609.09c197.17,0 399.47,-81.41 483.57,-226.67 39.33,-67.95 39.27,-120.71 67.29,-179.09l-217.44 0c-63.15,270.92 -588.85,272.37 -652.32,0l-202.95 0c0,249.94 275.44,405.76 521.85,405.76z"/>
 </g>
</svg>
