<svg width="36" height="22" viewBox="0 0 36 23" fill="none" xmlns="http://www.w3.org/2000/svg">
<path d="M10.1663 0.599854C11.1972 0.599854 12.1292 0.68558 12.9832 0.874618C13.825 1.06366 14.5515 1.356 15.1582 1.76815C15.7594 2.1803 16.2287 2.71883 16.5661 3.41124C16.8925 4.09815 17.064 4.95102 17.064 5.94676C17.064 7.02823 16.8123 7.93935 16.3199 8.67132C15.822 9.40439 15.0944 9.98799 14.1163 10.4573C15.4439 10.8409 16.4287 11.5102 17.0815 12.4664C17.7399 13.4335 18.0542 14.5897 18.0542 15.924C18.0542 17.0231 17.8652 17.9616 17.453 18.7519C17.0573 19.5415 16.4734 20.2216 15.7528 20.7324C15.0483 21.2423 14.213 21.6083 13.3085 21.8545C12.3957 22.1009 11.4546 22.2262 10.5092 22.2271H-0.00109863V0.611943H10.1652L10.1663 0.599854ZM24.8266 18.42C25.4673 19.0497 26.3949 19.364 27.6028 19.364C28.4667 19.364 29.2118 19.1464 29.8405 18.7057C30.4647 18.2826 30.8362 17.8122 30.9857 17.3319H34.7753C34.1862 19.2036 33.241 20.5543 31.9935 21.3621C30.7461 22.1809 29.2349 22.5755 27.483 22.5755C26.2521 22.5755 25.1585 22.3864 24.1518 21.9919C23.2038 21.6182 22.3454 21.0485 21.6327 20.3202C20.9513 19.6047 20.4249 18.7398 20.0523 17.7275C19.6797 16.7153 19.5028 15.6042 19.5028 14.4018C19.5028 13.2225 19.7028 12.1465 20.0984 11.1332C20.4665 10.1602 21.023 9.26942 21.736 8.51196C22.4625 7.7624 23.2934 7.20079 24.2837 6.76006C25.2684 6.31934 26.3334 6.12481 27.5347 6.12481C28.8689 6.12481 30.013 6.3655 31.0209 6.89195C31.9785 7.37943 32.8111 8.08078 33.4542 8.94169C34.1015 9.80005 34.5532 10.7903 34.8335 11.9069C35.1138 13.006 35.1995 14.1622 35.1423 15.3932H23.8715C23.8715 16.6241 24.2837 17.7858 24.9134 18.4156L24.7936 18.4617L24.8266 18.42ZM9.81677 18.4936C10.2806 18.4936 10.7268 18.4474 11.1444 18.3562C11.5404 18.2785 11.9188 18.1291 12.2611 17.9155C12.5699 17.721 12.8337 17.4341 13.0282 17.0626C13.2173 16.7131 13.303 16.2273 13.303 15.6547C13.303 14.5557 12.9821 13.7655 12.3644 13.2852C11.7346 12.8159 10.9158 12.5807 9.89151 12.5807H4.74573V18.5167H9.81787V18.4705L9.81677 18.4936ZM29.7603 10.2166C29.2393 9.64948 28.3809 9.34614 27.3269 9.34614C26.6455 9.34614 26.0795 9.45495 25.6212 9.69564C25.2001 9.90124 24.8289 10.196 24.5331 10.5595C24.2697 10.8832 24.0749 11.2572 23.9605 11.6586C23.8584 11.9978 23.7932 12.3472 23.766 12.7005H30.7439C30.6406 11.6014 30.257 10.7947 29.7482 10.2221V10.2397L29.7603 10.2166ZM9.5541 9.31207C10.396 9.31207 11.0939 9.11754 11.6434 8.71089C12.1929 8.31633 12.4567 7.6514 12.4567 6.74797C12.4567 6.24461 12.3534 5.83246 12.1929 5.51154C12.0148 5.20456 11.7628 4.94692 11.4599 4.76198C11.1327 4.57252 10.7736 4.44439 10.4004 4.3839C9.99465 4.30715 9.58233 4.2707 9.16943 4.2751H4.73364V9.31207H9.5541ZM22.8857 2.04841H31.6319V4.17728H22.8857V2.03082V2.04841Z" fill="white"/>
</svg>
