<svg width="36" height="36" viewBox="0 0 36 36" fill="none" xmlns="http://www.w3.org/2000/svg">
<g clip-path="url(#clip0_278_140)">
<path d="M10.1663 6.59985C11.1972 6.59985 12.1292 6.68558 12.9832 6.87462C13.825 7.06366 14.5515 7.356 15.1582 7.76815C15.7594 8.1803 16.2287 8.71883 16.5661 9.41124C16.8925 10.0981 17.064 10.951 17.064 11.9468C17.064 13.0282 16.8123 13.9394 16.3199 14.6713C15.822 15.4044 15.0944 15.988 14.1163 16.4573C15.4439 16.8409 16.4287 17.5102 17.0815 18.4664C17.7399 19.4335 18.0542 20.5897 18.0542 21.924C18.0542 23.0231 17.8652 23.9616 17.453 24.7519C17.0573 25.5415 16.4734 26.2216 15.7528 26.7324C15.0483 27.2423 14.213 27.6083 13.3085 27.8545C12.3957 28.1009 11.4546 28.2262 10.5092 28.2271H-0.00109863V6.61194H10.1652L10.1663 6.59985ZM24.8266 24.42C25.4673 25.0497 26.3949 25.364 27.6028 25.364C28.4667 25.364 29.2118 25.1464 29.8405 24.7057C30.4647 24.2826 30.8362 23.8122 30.9857 23.3319H34.7752C34.1862 25.2036 33.241 26.5543 31.9935 27.3621C30.7461 28.1809 29.2349 28.5755 27.483 28.5755C26.2521 28.5755 25.1585 28.3864 24.1518 27.9919C23.2038 27.6182 22.3454 27.0485 21.6327 26.3202C20.9513 25.6047 20.4249 24.7398 20.0523 23.7275C19.6797 22.7153 19.5028 21.6042 19.5028 20.4018C19.5028 19.2225 19.7028 18.1465 20.0984 17.1332C20.4665 16.1602 21.023 15.2694 21.736 14.512C22.4625 13.7624 23.2934 13.2008 24.2837 12.7601C25.2684 12.3193 26.3334 12.1248 27.5347 12.1248C28.8689 12.1248 30.013 12.3655 31.0209 12.892C31.9785 13.3794 32.8111 14.0808 33.4542 14.9417C34.1015 15.8001 34.5532 16.7903 34.8335 17.9069C35.1138 19.006 35.1995 20.1622 35.1423 21.3932H23.8715C23.8715 22.6241 24.2837 23.7858 24.9134 24.4156L24.7936 24.4617L24.8266 24.42ZM9.81677 24.4936C10.2806 24.4936 10.7268 24.4474 11.1444 24.3562C11.5404 24.2785 11.9188 24.1291 12.2611 23.9155C12.5699 23.721 12.8337 23.4341 13.0282 23.0626C13.2173 22.7131 13.303 22.2273 13.303 21.6547C13.303 20.5557 12.9821 19.7655 12.3644 19.2852C11.7346 18.8159 10.9158 18.5807 9.89151 18.5807H4.74573V24.5167H9.81787V24.4705L9.81677 24.4936ZM29.7603 16.2166C29.2393 15.6495 28.3809 15.3461 27.3269 15.3461C26.6455 15.3461 26.0795 15.455 25.6212 15.6956C25.2001 15.9012 24.8289 16.196 24.5331 16.5595C24.2697 16.8832 24.0749 17.2572 23.9605 17.6586C23.8584 17.9978 23.7932 18.3472 23.766 18.7005H30.7439C30.6406 17.6014 30.257 16.7947 29.7482 16.2221V16.2397L29.7603 16.2166ZM9.5541 15.3121C10.396 15.3121 11.0939 15.1175 11.6434 14.7109C12.1929 14.3163 12.4567 13.6514 12.4567 12.748C12.4567 12.2446 12.3534 11.8325 12.1929 11.5115C12.0148 11.2046 11.7628 10.9469 11.4599 10.762C11.1327 10.5725 10.7736 10.4444 10.4004 10.3839C9.99465 10.3071 9.58233 10.2707 9.16943 10.2751H4.73364V15.3121H9.5541ZM22.8857 8.04841H31.6319V10.1773H22.8857V8.03082V8.04841Z" fill="white"/>
</g>
<defs>
<clipPath id="clip0_278_140">
<rect width="35.1698" height="35.1698" fill="white"/>
</clipPath>
</defs>
</svg>
