<svg width="15" height="23" viewBox="0 0 15 23" fill="none" xmlns="http://www.w3.org/2000/svg">
<path d="M14.7979 0.654682C14.7979 0.492806 14.7304 0.33756 14.6102 0.223096C14.4899 0.108632 14.3269 0.0443272 14.1568 0.0443272H10.9513C9.33708 -0.0322224 7.75669 0.502571 6.5554 1.53186C5.35411 2.56115 4.62957 4.00125 4.54009 5.53752V8.83344H1.33451C1.16447 8.83344 1.0014 8.89774 0.881169 9.01221C0.760936 9.12667 0.69339 9.28192 0.69339 9.44379V12.6176C0.69339 12.7795 0.760936 12.9348 0.881169 13.0492C1.0014 13.1637 1.16447 13.228 1.33451 13.228H4.54009V21.4068C4.54009 21.5686 4.60763 21.7239 4.72787 21.8383C4.8481 21.9528 5.01117 22.0171 5.1812 22.0171H9.0279C9.19794 22.0171 9.36101 21.9528 9.48124 21.8383C9.60147 21.7239 9.66902 21.5686 9.66902 21.4068V13.228H13.0285C13.171 13.2299 13.3102 13.1866 13.424 13.1048C13.5378 13.023 13.6197 12.9074 13.6568 12.7763L14.58 9.60249C14.6055 9.5123 14.6089 9.41775 14.59 9.32611C14.5711 9.23446 14.5303 9.14817 14.4709 9.07388C14.4114 8.99959 14.3348 8.93928 14.2471 8.8976C14.1593 8.85591 14.0626 8.83396 13.9645 8.83344H9.66902V5.53752C9.70091 5.23537 9.84996 4.95538 10.0871 4.75223C10.3242 4.54908 10.6323 4.43736 10.9513 4.43888H14.1568C14.3269 4.43888 14.4899 4.37458 14.6102 4.26011C14.7304 4.14565 14.7979 3.9904 14.7979 3.82853V0.654682Z" fill="white"/>
</svg>
