<svg width="31" height="31" viewBox="0 0 31 31" fill="none" xmlns="http://www.w3.org/2000/svg">
<path d="M21.7979 4.68581C21.7979 4.51577 21.7304 4.3527 21.6102 4.23247C21.4899 4.11224 21.3269 4.04469 21.1568 4.04469H17.9513C16.3371 3.96428 14.7567 4.52603 13.5554 5.60719C12.3541 6.68836 11.6296 8.20104 11.5401 9.81474V13.2768H8.33451C8.16447 13.2768 8.0014 13.3443 7.88117 13.4645C7.76094 13.5848 7.69339 13.7478 7.69339 13.9179V17.2517C7.69339 17.4217 7.76094 17.5848 7.88117 17.705C8.0014 17.8253 8.16447 17.8928 8.33451 17.8928H11.5401V26.4838C11.5401 26.6538 11.6076 26.8169 11.7279 26.9371C11.8481 27.0573 12.0112 27.1249 12.1812 27.1249H16.0279C16.1979 27.1249 16.361 27.0573 16.4812 26.9371C16.6015 26.8169 16.669 26.6538 16.669 26.4838V17.8928H20.0285C20.171 17.8949 20.3102 17.8493 20.424 17.7634C20.5378 17.6775 20.6197 17.5561 20.6568 17.4184L21.58 14.0846C21.6055 13.9898 21.6089 13.8905 21.59 13.7943C21.5711 13.698 21.5303 13.6074 21.4709 13.5293C21.4114 13.4513 21.3348 13.3879 21.2471 13.3442C21.1593 13.3004 21.0626 13.2773 20.9645 13.2768H16.669V9.81474C16.7009 9.49736 16.85 9.20326 17.0871 8.98987C17.3242 8.77648 17.6323 8.65913 17.9513 8.66073H21.1568C21.3269 8.66073 21.4899 8.59318 21.6102 8.47295C21.7304 8.35272 21.7979 8.18965 21.7979 8.01961V4.68581Z" fill="white"/>
</svg>
