<svg width="31" height="31" viewBox="0 0 31 31" fill="none" xmlns="http://www.w3.org/2000/svg">
<path d="M19.2335 15.5849C19.2335 16.3457 19.0079 17.0894 18.5852 17.722C18.1625 18.3546 17.5618 18.8476 16.8589 19.1388C16.156 19.4299 15.3825 19.5061 14.6364 19.3577C13.8902 19.2093 13.2048 18.8429 12.6668 18.3049C12.1288 17.767 11.7624 17.0815 11.614 16.3354C11.4656 15.5892 11.5418 14.8157 11.8329 14.1128C12.1241 13.4099 12.6171 12.8092 13.2497 12.3865C13.8823 11.9638 14.626 11.7382 15.3868 11.7382C16.4067 11.7394 17.3844 12.145 18.1055 12.8662C18.8267 13.5873 19.2323 14.5651 19.2335 15.5849ZM27.4077 10.2957V20.8741C27.4057 22.6588 26.6958 24.3699 25.4338 25.6319C24.1718 26.8939 22.4608 27.6038 20.676 27.6058H10.0976C8.31286 27.6038 6.6018 26.8939 5.3398 25.6319C4.0778 24.3699 3.36791 22.6588 3.36588 20.8741V10.2957C3.36791 8.51095 4.0778 6.79989 5.3398 5.53789C6.6018 4.27589 8.31286 3.566 10.0976 3.56396H20.676C22.4608 3.566 24.1718 4.27589 25.4338 5.53789C26.6958 6.79989 27.4057 8.51095 27.4077 10.2957ZM21.1569 15.5849C21.1569 14.4437 20.8184 13.3281 20.1844 12.3792C19.5504 11.4304 18.6492 10.6908 17.5949 10.2541C16.5406 9.81735 15.3804 9.70308 14.2611 9.92572C13.1418 10.1484 12.1137 10.6979 11.3068 11.5049C10.4998 12.3118 9.95027 13.3399 9.72763 14.4592C9.50499 15.5785 9.61926 16.7387 10.056 17.793C10.4927 18.8473 11.2323 19.7485 12.1811 20.3825C13.13 21.0165 14.2456 21.3549 15.3868 21.3549C16.9166 21.3532 18.3832 20.7448 19.4649 19.663C20.5467 18.5813 21.1551 17.1147 21.1569 15.5849ZM23.0802 9.33401C23.0802 9.04871 22.9956 8.76982 22.8371 8.5326C22.6786 8.29538 22.4533 8.11049 22.1897 8.00131C21.9261 7.89212 21.6361 7.86356 21.3563 7.91922C21.0765 7.97488 20.8194 8.11226 20.6177 8.314C20.4159 8.51574 20.2786 8.77277 20.2229 9.05259C20.1672 9.33241 20.1958 9.62245 20.305 9.88604C20.4142 10.1496 20.5991 10.3749 20.8363 10.5334C21.0735 10.6919 21.3524 10.7765 21.6377 10.7765C22.0203 10.7765 22.3872 10.6245 22.6577 10.354C22.9282 10.0835 23.0802 9.71659 23.0802 9.33401Z" fill="white"/>
</svg>
