<svg width="23" height="23" viewBox="0 0 23 23" fill="none" xmlns="http://www.w3.org/2000/svg">
<path d="M14.8727 11.554C14.8727 12.2495 14.6664 12.9295 14.28 13.5078C13.8936 14.0861 13.3443 14.5369 12.7017 14.8031C12.0591 15.0692 11.352 15.1389 10.6698 15.0032C9.98759 14.8675 9.36096 14.5326 8.86912 14.0407C8.37729 13.5489 8.04235 12.9223 7.90665 12.2401C7.77095 11.5579 7.8406 10.8508 8.10678 10.2081C8.37295 9.56553 8.82371 9.01628 9.40205 8.62985C9.98038 8.24342 10.6603 8.03716 11.3559 8.03716C12.2883 8.03824 13.1821 8.40911 13.8414 9.0684C14.5007 9.7277 14.8716 10.6216 14.8727 11.554ZM22.3459 6.71836V16.3896C22.344 18.0212 21.695 19.5856 20.5412 20.7393C19.3875 21.8931 17.8232 22.5421 16.1915 22.544H6.52028C4.8886 22.5421 3.32428 21.8931 2.17051 20.7393C1.01674 19.5856 0.367737 18.0212 0.365875 16.3896V6.71836C0.367737 5.08669 1.01674 3.52237 2.17051 2.3686C3.32428 1.21483 4.8886 0.565826 6.52028 0.563965H16.1915C17.8232 0.565826 19.3875 1.21483 20.5412 2.3686C21.695 3.52237 22.344 5.08669 22.3459 6.71836V6.71836ZM16.6311 11.554C16.6311 10.5106 16.3217 9.49072 15.742 8.62322C15.1624 7.75572 14.3385 7.07958 13.3746 6.68032C12.4107 6.28105 11.35 6.17658 10.3267 6.38013C9.30345 6.58367 8.3635 7.08609 7.62575 7.82384C6.888 8.56159 6.38558 9.50154 6.18204 10.5248C5.97849 11.5481 6.08296 12.6088 6.48223 13.5727C6.88149 14.5366 7.55763 15.3605 8.42513 15.9401C9.29263 16.5198 10.3125 16.8292 11.3559 16.8292C12.7545 16.8276 14.0953 16.2713 15.0843 15.2824C16.0732 14.2934 16.6295 12.9526 16.6311 11.554V11.554ZM18.3895 5.83916C18.3895 5.57833 18.3121 5.32335 18.1672 5.10648C18.0223 4.8896 17.8163 4.72057 17.5754 4.62075C17.3344 4.52094 17.0692 4.49482 16.8134 4.54571C16.5576 4.59659 16.3226 4.72219 16.1381 4.90663C15.9537 5.09107 15.8281 5.32606 15.7772 5.58188C15.7263 5.8377 15.7524 6.10287 15.8523 6.34385C15.9521 6.58483 16.1211 6.7908 16.338 6.93571C16.5549 7.08062 16.8098 7.15796 17.0707 7.15796C17.4204 7.15796 17.7559 7.01902 18.0032 6.7717C18.2505 6.52437 18.3895 6.18893 18.3895 5.83916Z" fill="white"/>
</svg>
