<svg width="25" height="25" viewBox="0 0 25 25" fill="none" xmlns="http://www.w3.org/2000/svg">
<g clip-path="url(#clip0_278_138)">
<path d="M15.8002 0.495361H8.37789C1.60468 0.495361 -0.000976562 2.10101 -0.000976562 8.87422V16.2965C-0.000976562 23.0697 1.60468 24.6754 8.37789 24.6754H15.8002C22.5734 24.6754 24.179 23.0697 24.179 16.2965V8.87422C24.179 2.10101 22.5575 0.495361 15.8002 0.495361ZM19.5192 17.7442H17.764C17.099 17.7442 16.8943 17.2168 15.6982 16.0048C14.6592 14.9976 14.199 14.8639 13.9429 14.8639C13.581 14.8639 13.4782 14.9659 13.4782 15.4623V17.0483C13.4782 17.4737 13.3445 17.7291 12.2186 17.7291C10.3568 17.7291 8.29099 16.6033 6.8425 14.5057C4.65806 11.4319 4.06038 9.12962 4.06038 8.65359C4.06038 8.39744 4.16239 8.15792 4.65428 8.15792H6.41332C6.85837 8.15792 7.02763 8.36268 7.20066 8.83871C8.07036 11.3496 9.51884 13.5491 10.1165 13.5491C10.3372 13.5491 10.4392 13.4471 10.4392 12.8842V10.291C10.3719 9.09486 9.7425 8.9921 9.7425 8.56745C9.7425 8.36268 9.91176 8.15792 10.183 8.15792H12.9493C13.3233 8.15792 13.4608 8.36268 13.4608 8.8032V12.3016C13.4608 12.6794 13.6301 12.8132 13.7321 12.8132C13.9527 12.8132 14.1416 12.6794 14.5504 12.2699C15.8138 10.8531 16.719 8.6687 16.719 8.6687C16.8368 8.41255 17.0416 8.17303 17.4867 8.17303H19.2457C19.7731 8.17303 19.891 8.44429 19.7731 8.82209C19.5525 9.84517 17.3998 12.8834 17.3998 12.8834C17.2146 13.1902 17.1436 13.324 17.3998 13.6662C17.5887 13.9224 18.203 14.4536 18.6118 14.9296C19.3636 15.7834 19.9416 16.4998 20.0958 16.9954C20.2688 17.4873 20.0134 17.7435 19.517 17.7435L19.5192 17.7442Z" fill="white"/>
</g>
<defs>
<clipPath id="clip0_278_138">
<rect width="24.1792" height="24.1792" fill="white" transform="translate(0 0.495361)"/>
</clipPath>
</defs>
</svg>
