<svg width="22" height="23" viewBox="0 0 22 23" fill="none" xmlns="http://www.w3.org/2000/svg">
<g clip-path="url(#clip0_278_138)">
<path d="M13.454 0.954102H6.70684C0.549698 0.954102 -0.909912 2.41371 -0.909912 8.57086V15.318C-0.909912 21.4752 0.549698 22.9348 6.70684 22.9348H13.454C19.6112 22.9348 21.0708 21.4752 21.0708 15.318V8.57086C21.0708 2.41371 19.5967 0.954102 13.454 0.954102ZM16.8348 16.6341H15.2392C14.6348 16.6341 14.4486 16.1546 13.3613 15.0529C12.4168 14.1373 11.9985 14.0157 11.7657 14.0157C11.4367 14.0157 11.3432 14.1084 11.3432 14.5597V16.0015C11.3432 16.3882 11.2217 16.6203 10.1982 16.6203C8.50577 16.6203 6.62785 15.5969 5.31111 13.6901C3.32536 10.8959 2.78204 8.80302 2.78204 8.37029C2.78204 8.13744 2.87477 7.9197 3.32192 7.9197H4.92097C5.32554 7.9197 5.4794 8.10584 5.63669 8.53858C6.42729 10.8211 7.74403 12.8206 8.28734 12.8206C8.48791 12.8206 8.58064 12.7278 8.58064 12.2161V9.85875C8.51951 8.77143 7.94734 8.67801 7.94734 8.29199C7.94734 8.10584 8.1012 7.9197 8.34779 7.9197H10.8624C11.2024 7.9197 11.3275 8.10584 11.3275 8.50629V11.6865C11.3275 12.03 11.4813 12.1515 11.574 12.1515C11.7746 12.1515 11.9463 12.03 12.3179 11.6577C13.4664 10.3698 14.2893 8.38403 14.2893 8.38403C14.3964 8.15118 14.5826 7.93344 14.9871 7.93344H16.5862C17.0656 7.93344 17.1728 8.18003 17.0656 8.52346C16.865 9.45349 14.9081 12.2154 14.9081 12.2154C14.7398 12.4943 14.6753 12.6159 14.9081 12.927C15.0798 13.1599 15.6383 13.6427 16.0099 14.0755C16.6933 14.8516 17.2188 15.5028 17.3589 15.9534C17.5162 16.4005 17.284 16.6334 16.8328 16.6334L16.8348 16.6341Z" fill="white"/>
</g>
<defs>
<clipPath id="clip0_278_138">
<rect width="21.98" height="21.98" fill="white" transform="translate(0 0.495361)"/>
</clipPath>
</defs>
</svg>
