<svg width="18" height="20" viewBox="0 0 18 20" fill="none" xmlns="http://www.w3.org/2000/svg">
<path d="M9 4.79688C6.07902 4.79688 3.70446 7.10547 3.70045 9.94531C3.70045 10.918 3.9817 11.8672 4.51205 12.6836L4.63661 12.8789L4.10223 14.7773L6.10714 14.2656L6.3 14.3789C7.11161 14.8477 8.04375 15.0977 8.99598 15.0977H9C11.917 15.0977 14.3558 12.7891 14.3558 9.94922C14.3558 8.57422 13.7451 7.28125 12.7446 6.30859C11.7402 5.33203 10.4143 4.79688 9 4.79688ZM12.1138 12.1563C11.9812 12.5195 11.3464 12.8477 11.0411 12.8906C10.5348 12.9648 10.1411 12.9258 9.13259 12.5039C7.5375 11.832 6.49286 10.2695 6.4125 10.168C6.33214 10.0664 5.76161 9.32813 5.76161 8.56641C5.76161 7.80469 6.17143 7.42969 6.32009 7.27344C6.46473 7.11719 6.6375 7.07812 6.74598 7.07812C6.85045 7.07812 6.95893 7.07813 7.05134 7.08203C7.14777 7.08594 7.28036 7.04688 7.40893 7.34766C7.54152 7.65625 7.85893 8.41797 7.89911 8.49609C7.93929 8.57422 7.96741 8.66406 7.91116 8.76562C7.6058 9.35937 7.28036 9.33594 7.44509 9.60938C8.05982 10.6367 8.67455 10.9922 9.61071 11.4492C9.77143 11.5273 9.86384 11.5156 9.95625 11.4102C10.0487 11.3086 10.354 10.957 10.4585 10.8047C10.5629 10.6484 10.6714 10.6758 10.8161 10.7266C10.9607 10.7773 11.7442 11.1523 11.9049 11.2305C12.0656 11.3086 12.1701 11.3477 12.2103 11.4102C12.2464 11.4844 12.2464 11.7969 12.1138 12.1563V12.1563ZM16.0714 1.25H1.92857C0.863839 1.25 0 2.08984 0 3.125V16.875C0 17.9102 0.863839 18.75 1.92857 18.75H16.0714C17.1362 18.75 18 17.9102 18 16.875V3.125C18 2.08984 17.1362 1.25 16.0714 1.25ZM8.99598 16.1406C7.92723 16.1406 6.87857 15.8789 5.95045 15.3867L2.57143 16.25L3.47545 13.0391C2.91696 12.1016 2.62366 11.0352 2.62366 9.94141C2.62768 6.52734 5.48437 3.75 8.99598 3.75C10.6996 3.75 12.2987 4.39453 13.504 5.56641C14.7054 6.73828 15.4286 8.29297 15.4286 9.94922C15.4286 13.3633 12.5076 16.1406 8.99598 16.1406Z" fill="white"/>
</svg>
