<?xml version="1.0" encoding="UTF-8"?>
<!DOCTYPE svg PUBLIC "-//W3C//DTD SVG 1.1//EN" "http://www.w3.org/Graphics/SVG/1.1/DTD/svg11.dtd">
<!-- Creator: CorelDRAW 2019 (64-Bit) -->
<svg xmlns="http://www.w3.org/2000/svg" xml:space="preserve" width="66.8868mm" height="61.7221mm" version="1.1" style="shape-rendering:geometricPrecision; text-rendering:geometricPrecision; image-rendering:optimizeQuality; fill-rule:evenodd; clip-rule:evenodd"
viewBox="0 0 2764.18 2550.74"
 xmlns:xlink="http://www.w3.org/1999/xlink"
 xmlns:xodm="http://www.corel.com/coreldraw/odm/2003">
 <defs>
  <style type="text/css">
   <![CDATA[
    .fil0 {fill:white}
   ]]>
  </style>
 </defs>
 <g id="Слой_x0020_1">
  <metadata id="CorelCorpID_0Corel-Layer"/>
  <g id="_1876236779184">
   <path class="fil0" d="M528.34 2148.36l-94.96 -79.99c-6.2,-5.01 -8.06,-7.55 -15,-12.99 -57.13,-44.9 -122.32,-104.18 -180.97,-151.43 -6.15,-4.95 -8.36,-8.24 -14.53,-13.46 -10.27,-8.7 -18.22,-15.09 -28.96,-23.53 -21.75,-17.09 -66.73,-50.92 -79.65,-74.3 -14.58,-26.36 -12.81,-31.95 -12.81,-60.67 0,-40.47 44.56,-78.4 73.45,-115.49 7.22,-9.26 22.55,-28.96 31.52,-34.97 0,23.81 -5.45,24.89 -1.61,50.5 3.28,21.88 3.1,28.9 8.96,47.11 8.84,27.49 23.29,49.94 39.61,72.36l69.16 98.79c8.16,12.02 14.78,20.38 23.1,32.88 8.16,12.25 15.02,20.13 23.78,32.21l137.93 197.97c7.97,11.28 17.35,19.47 20.97,35.02zm388.38 300.91c-74.29,0 -102.44,-76.4 -139.41,-126.51 -6.9,-9.35 -12.52,-15.95 -19.47,-26.02l-73.01 -105.44c-7.49,-10 -12.37,-15.5 -18.95,-26.54 -11.91,-19.97 -24.32,-34.43 -37.48,-53.5l-54.56 -78.4c-6.5,-9.82 -11.79,-16.22 -18.94,-26.55 -73.79,-106.64 -151.01,-211.31 -223.24,-319.1 -32.17,-48.01 -39.17,-87.96 -1.42,-135.85 7.81,-9.9 14.56,-13.21 25.26,-20.23 11.21,-7.36 17.91,-12.75 28.36,-20.63 9.91,-7.47 16.53,-11.34 26.94,-18.55l358.31 -250.51c10.22,-6.94 15.67,-11.78 26.54,-18.95 11.76,-7.76 17.53,-12.01 28.6,-20.39l275.81 -193.05c10.88,-7.18 17.29,-12.24 26.62,-18.87 9.77,-6.93 18.59,-12.1 29.41,-19.58 10.08,-6.96 16.57,-12.92 26.04,-19.44 4.93,-3.39 7.37,-4.36 12.94,-8.05l703.48 -493.16c11.48,-7.62 17.59,-12.98 28.64,-20.34 60.72,-40.46 115.56,-100.09 189.84,-41.42 16.69,13.18 61.13,81.35 75.43,103.02l111.28 158.14c6.57,9.48 10.51,16.1 16.72,25.26 90.28,132.98 186.11,262.37 276.41,395.38 12.41,18.28 25.41,35.69 37.82,53.15 21.16,29.79 28,44.97 28,83.96 0,50.21 -53.66,77.89 -85.44,100 -11.15,7.76 -14.2,12.04 -25.78,19.7 -10.56,6.99 -16.4,11.27 -26.71,18.77 -9.98,7.26 -17.29,11.57 -27.25,18.24 -11.05,7.4 -17.14,12.75 -28.64,20.34 -83.73,55.26 -165.31,114.86 -247.03,172.85l-53.48 37.5c-81.13,60.93 -166.58,114.87 -248.92,174.45l-382.67 268.14c-83.6,55.67 -163.32,117.25 -247.04,172.83l-304.51 213.34c-19.03,13.89 -37.27,25.97 -68.5,25.97zm573.83 -2018.9c-28.09,0 -56.79,-5.9 -78.21,-16.27 -25.46,-12.32 -37.51,-29.22 -61.75,-29.22 -13.95,0 -98.86,110.84 -116.55,131.88l-125.96 150.46c-19.42,23.1 -124.88,139.33 -124.88,155.04 0,38.03 36.02,32.72 52.55,10.56 46.53,-62.39 102.6,-120.14 151.49,-180.91 14.52,-18.04 27.92,-34.23 43.5,-50.97 7.16,-7.69 13.48,-16.3 20.35,-25.14l109.99 -131.43c52.52,27.79 77.95,34.99 139.96,34.99 27.52,0 58.52,-10.25 78.2,-19.77 23.01,-11.13 38.76,-26.66 58.26,-39.72 12.84,8.6 51.93,37.31 55.98,52.48 -17.28,4.62 -104.43,71.5 -124.53,85.4l-172.89 121.02c-16.42,11.65 -32.36,22.72 -49.71,34.27 -84.94,56.57 -165.62,119.63 -250.46,176.41 -68.62,45.93 -132.24,93.74 -200.18,139.23 -14.48,-7.67 -20,-17.5 -38.49,-17.5 -22.43,0 -31.49,19.01 -31.49,38.49 0,12.71 4.15,12.27 7,24.49 -11.22,5.94 -18.31,11.92 -29.4,19.59l-59.51 41.97c-22.42,16.87 -17.07,6.05 -38.21,14.27l-52.28 49.19c-10.52,7.79 -18.29,12.08 -29.06,19.92 -82.42,59.98 -175.7,118.31 -255.45,178.42 -7.43,5.6 -8.31,7.77 -15.44,12.55 2.6,-9.75 6.89,-14.67 13.1,-21.89 3.44,-4 4.9,-5.47 8.19,-9.31l149.63 -179.27c11.48,-14.12 24.41,-27.18 35.51,-41.47l593.94 -707.67c7.36,-7.91 10,-12.62 17.48,-21.01l191.33 -228.54c11.84,-15.06 24.02,-26.73 35.52,-41.45 24.3,-31.09 46.81,-58.01 99.45,-58.01 18.36,0 41.98,11.17 54.03,19.45l41.98 35c56.17,43.67 107.54,93.44 163.38,137.53l61.47 50.49c9.87,8.53 9.11,12.98 22.05,16.44 -5.24,19.65 -31.91,28.61 -47.51,39.97 -18.04,13.13 -35,26.98 -53.96,37.01 -73.25,-49.05 -84.1,-108.12 -133.82,-56.84 -28.81,29.71 -71.59,49.84 -114.6,49.84zm-1490.56 1294.62c0,124.26 49.53,151.66 128.38,218.02l144.56 121.36c6.53,5.09 8.44,7.37 15.06,12.94l218.53 183.84c65.74,58.56 135.77,114.76 204.28,170.11 10.34,8.35 16.69,15.44 27.96,24.53 55.53,44.82 81.7,94.96 177.96,94.96 79.5,0 120.68,-38.57 172,-76.43 59.51,-43.91 143.48,-104.64 205.68,-144.21 50.05,-31.84 150.65,-105.94 203.16,-143.23l383.4 -267.41c19.87,-14.47 38.37,-27 57.48,-40.49 19.73,-13.91 39.43,-28.84 59.46,-42.01l292.43 -204.42c21.1,-15.27 37.67,-27.33 59.56,-41.9 11.24,-7.49 18.75,-12.38 28.9,-20.09 4.37,-3.32 9.79,-7.64 13.97,-10.52 5.48,-3.77 9.57,-5.69 15.03,-9.47l117.07 -82.37c11.51,-7.59 17.59,-12.94 28.64,-20.34l88.22 -62.23c9.89,-7.02 18.52,-12.2 28.97,-20.02 65.16,-48.77 93.49,-96.84 93.49,-182.93 0,-59.85 -37.7,-104.18 -62.96,-139.98l-125.33 -179.08c-68.16,-100.65 -141.23,-197.59 -208.48,-298.87l-62.3 -88.16c-21.01,-31.75 -86.85,-128.69 -106.84,-148.58 -20.41,-20.3 -29.16,-30.91 -57.82,-43.64 -127.78,-56.79 -182.91,12.17 -212.52,20.08 -26.78,-17.93 -145.24,-120.22 -173.9,-144.5 -5.41,-4.58 -7.18,-7.32 -12.59,-11.9l-114.92 -95.02c-41.69,-34.01 -81,-52.98 -139.46,-52.98 -43.14,0 -77.88,15.29 -109.99,36.97 -11.84,7.99 -17.65,15.48 -27.35,25.14 -17.4,17.33 -29.75,33.32 -45.69,52.28 -61.18,72.79 -175.24,203.56 -229.82,274.03 -58.24,75.19 -124.83,143.99 -183.46,218.91 -49.2,62.86 -128.67,151.14 -183.44,218.94 -7.77,9.62 -13.99,15.66 -22.61,26.37l-204.45 243.42c-6.11,6.58 -5.93,7.46 -10.89,13.6l-35.51 41.47c-79.97,103.24 -172.02,197.59 -251.89,300.95l-71.9 85.56c-0.47,0.55 -1.12,1.36 -1.59,1.91l-4.83 5.67c-0.47,0.55 -1.15,1.33 -1.62,1.88 -4.83,5.6 -6.79,7.98 -11.03,13.46 -6.96,8.98 -15.72,19.56 -23.73,28.75 -16.03,18.39 -31.57,35.41 -43.92,57.55 -10.27,18.43 -23.35,51.32 -23.35,78.13z"/>
   <path class="fil0" d="M1186.15 1112.67c0,19.07 47.33,79.82 59.48,97.97 -17.25,32.61 -72.22,95.51 -32.82,176.28 8.08,16.56 19.02,33.3 31.36,45.61 56.66,56.51 124.87,48.6 198.76,31.4 45.97,-10.7 88.15,-23.58 129.29,-6.05l21.25 13.75c96.58,86.68 -22.14,226.01 -117.49,159.48 -16.79,-11.71 -27.3,-26.13 -41.4,-35.57 -7.5,11.2 -49.8,61.71 -62.98,66.48 19.5,36.85 95.41,76.98 136.46,76.98 87.27,0 66.01,-14.84 97.97,-17.49l30.08 46.9c48.55,73.54 78.39,19.8 78.39,2.09 0,-24.06 -47.26,-68.59 -52.48,-90.97 15.91,-23.77 37.13,-37.37 50.31,-82.66 11.27,-38.73 9.46,-79.35 -2.53,-115.57 -6.13,-18.53 -13.32,-29.04 -22.6,-43.89 -26.02,-41.63 -73.4,-79.79 -126.65,-79.79 -51.42,0 -68.17,-1.15 -119.31,13.65 -11.88,3.43 -26.8,6.21 -39.73,9.26 -29.26,6.9 -63.38,10.06 -86.93,-11.36 -50.55,-46 -0.57,-137.5 74.52,-137.5 30.66,0 35.34,12.28 55.98,14 5.62,-24.14 29.19,-52.84 31.49,-80.47 -42.16,-20.23 -92.97,-28.21 -139.64,-13.68 -15.51,4.83 -27.48,14.15 -38.81,17.18 -3.18,-11.91 -36.31,-56.6 -47.34,-71.63 -25.56,-34.83 -64.63,-5.89 -64.63,15.65z"/>
   <path class="fil0" d="M1396.09 941.22c0,11.12 11.65,23.77 22.9,26.11 12.72,2.64 21.72,-7.19 31.08,-14.11l414.87 -288.42c23.16,34.59 91.78,73.48 150.46,73.48 93.34,0 79.11,-14.39 122.46,-24.49l112.66 163.76c11.32,17.1 109.6,145.1 111.27,165.14 -15.37,4.1 -19.89,16.39 -28.03,27.95 -41.29,58.57 -57.75,123.78 -37.08,194.61 4.79,16.39 12.63,28.33 16.13,43.36 -7.53,10.27 -39.09,29.47 -51.95,39.02l-333.67 233.17c-10.44,6.96 -16.13,11.95 -26.61,18.87 -46.22,30.54 -6.05,55.34 -0.64,55.34 22.68,0 122.3,-78.12 142.76,-91.67 12.49,-8.27 21.07,-14.53 32.68,-23.3l207.97 -145.43c13.04,-9.49 21.45,-15.34 35.09,-24.39 103.99,-69.05 36.65,-38.83 22.08,-141.8 -10.05,-70.97 25.65,-130.57 66.87,-161.14 33.39,-24.78 5.9,-51.1 -34.54,-105.59 -8.69,-11.71 -16.92,-23.07 -25.01,-34.47 -7.85,-11.05 -14.2,-21.27 -22.39,-33.6l-73.59 -104.85c-14.75,-19.39 -86.7,-134.46 -103.47,-134.46 -17.25,0 -13.56,-0.28 -33.44,12.05 -69.35,43.03 -171.39,19.16 -212.02,-32.51 -39.9,-50.74 -38.66,-30.53 -156.26,49.11 -10.62,7.19 -18.25,13.47 -28.64,20.35l-150.48 104.94c-10.6,6.98 -18.78,14.73 -28.15,20.84 -11.29,7.36 -20.56,13.62 -31.29,21.19 -25.22,17.8 -111.99,71.61 -111.99,90.95z"/>
   <path class="fil0" d="M818.76 2172.86c13.91,0 32.32,-16.15 47.38,-22.6 67.01,-28.65 150.41,-10.06 201.87,49.77 10.78,12.53 18.53,28.63 39.74,17.23 4.13,-2.22 15.7,-9.77 19.44,-12.39 6.5,-4.56 11.05,-8.05 18.38,-13.11l339.42 -237.91c10.36,-7.17 72.05,-44.16 72.05,-57.41 0,-17.42 -1.95,-33.65 -24.9,-34.08 -10.73,-0.2 -22.54,11.15 -30.55,17.12 -83.8,62.31 -202.55,137.39 -283.94,198.91 -9.93,7.5 -17.58,12.84 -28.73,20.26 -11.05,7.36 -17.17,12.72 -28.64,20.34 -21.01,13.96 -38.4,26.67 -58.1,39.87 -32.2,-21.56 -49.12,-50.49 -112.78,-65.67 -42.07,-10.03 -71.72,-9.93 -113.16,0.68 -30.22,7.74 -41.15,17.01 -50.48,19.51 -3.83,-14.35 -68.11,-100.39 -81.85,-121.09l-142.08 -204.32c14.37,-21.46 23.76,-15.96 50.19,-68.77 26.73,-53.41 31.79,-126.92 6.81,-184.17 -4.89,-11.2 -6.87,-9.65 -8.02,-23.47 13.61,-3.64 282.92,-197.56 326.06,-226.78l80.61 -55.84c40.15,-26.84 10.76,-53.28 -4.29,-53.28 -21.81,0 -180.37,121.86 -207.54,138.86l-119.91 83.03c-8.22,6.21 -8.46,7.73 -17.48,14.01l-103.59 71.36c-35.01,26.97 -2.81,41.7 9.12,76.16 21.86,63.19 10.07,121.95 -30.87,175 -22.05,28.56 -55.38,31.05 -37.4,64.54l217.29 311.24c14.22,20.15 39.47,63.01 55.96,63.01z"/>
  </g>
 </g>
</svg>
