<svg width="138" height="115" viewBox="0 0 138 115" fill="none" xmlns="http://www.w3.org/2000/svg">
<path fill-rule="evenodd" clip-rule="evenodd" d="M45.6024 70.3392L67.2135 70.3387L67.1992 71.3878L45.6155 71.3766L45.6024 70.3392H45.6024ZM45.6306 66.8241L75.8609 66.8623L75.8359 67.8648L45.6218 67.8595L45.6306 66.8241V66.8241ZM45.6077 63.279L75.8626 63.3415L75.8601 64.3285L45.6121 64.3172L45.6077 63.279V63.279ZM45.6455 59.766L75.8527 59.7988L75.8478 60.8066L45.6114 60.7987L45.6455 59.766V59.766ZM11.6712 59.766L41.8784 59.7988L41.8735 60.8066L11.6371 60.7987L11.6712 59.766H11.6712ZM75.8596 56.2793L75.8653 57.2322L75.2178 57.272L46.2919 57.2754L45.609 57.2566L45.6115 56.2292L46.292 56.2216L75.2186 56.2093L75.8597 56.2793L75.8596 56.2793ZM41.8853 56.2793L41.8911 57.2322L41.2435 57.272L12.3176 57.2754L11.6347 57.2566L11.6372 56.2292L12.2494 56.2216L41.2442 56.2093L41.8853 56.2793V56.2793ZM45.6175 50.2837L65.7486 50.3462L65.7469 52.8213L45.6098 52.8125L45.6175 50.2837V50.2837ZM11.6432 50.2837L31.7743 50.3462L31.7726 52.8213L11.6355 52.8125L11.6432 50.2837ZM45.6537 26.6842L75.9012 26.6925L75.8321 44.8567L45.6501 44.8342L45.6537 26.6842ZM11.6432 26.6829L41.888 26.7278L41.8379 44.8559L11.6384 44.8514L11.6432 26.6829V26.6829ZM79.6585 26.6847L109.91 26.6842L109.924 44.8636L79.6447 44.8812L79.6585 26.6847V26.6847ZM19.9396 15.7826L40.0979 15.7679L40.0552 18.3216L19.947 18.318L19.9396 15.7826ZM13.7419 13.9185C15.4559 13.3572 16.8691 14.6672 17.2233 16.1456C17.6848 18.0712 16.5974 19.8006 15.3042 20.2161C11.6667 21.3847 10.0041 15.1424 13.7419 13.9185V13.9185ZM99.8543 16.5278H109.92L109.908 17.5768L99.883 17.5767L99.8543 16.5278ZM88.6831 16.5339L98.6403 16.5449L98.6666 17.5847L88.6344 17.5103L88.6831 16.5339V16.5339ZM77.4784 16.5321L87.4264 16.5634L87.4437 17.5803L77.4074 17.5521L77.4784 16.5321V16.5321ZM66.1614 16.5278H76.2187L76.2071 17.5768L66.1816 17.5767L66.1615 16.5278H66.1614ZM64.9789 17.5658L55.972 17.5901C54.8286 17.6105 54.9539 17.4939 54.943 16.7707C55.1641 16.5759 54.9522 16.6892 55.3019 16.5741L64.9898 16.5434L64.9789 17.5658H64.9789ZM14.5014 66.2913L15.0513 66.086C16.5101 65.6831 15.3305 65.3932 17.476 64.3684L11.614 64.3504L11.6088 63.2394L41.9059 63.3131L41.903 64.3585L34.0363 64.3879C35.2572 64.9479 35.7269 65.5177 36.2575 66.8037L41.8992 66.8494L41.8709 67.8435C40.3644 68.0233 37.7474 67.6234 36.468 67.979L36.4396 82.4465L93.916 82.4436L93.9091 71.4304C91.8537 71.1874 88.8383 71.3876 86.679 71.3876C85.3677 71.3876 80.5627 71.5759 79.6461 71.2972L79.7204 70.3414L93.8996 70.2993L93.9183 67.9146L79.6582 67.8072L79.6625 66.829L93.9147 66.7761L93.9059 64.3705C91.9319 64.1452 80.3186 64.6252 79.6454 64.1306C79.6476 62.9971 79.6682 63.2927 80.3858 63.2544C80.6389 63.2408 81.0765 63.2774 81.3577 63.2791C84.1145 63.2957 92.3292 63.4159 93.9029 63.2404L93.9147 60.8556L79.6527 60.7374L79.6705 59.7704L93.9183 59.7172L93.9029 57.311C92.4663 57.1507 83.8577 57.2442 81.2212 57.2729C79.5613 57.2909 79.6481 57.5576 79.6453 56.4209C79.6811 56.3946 79.7288 56.3721 79.7609 56.3594C79.7928 56.3465 79.8382 56.3175 79.8784 56.3037C80.9908 55.9219 91.447 56.4616 93.9059 56.1809L93.9323 52.8403C91.5677 52.7361 89.0594 52.8237 86.679 52.8237C85.3755 52.8237 80.5509 53.0102 79.6523 52.7325L79.6559 50.2902L95.5032 50.2179L96.0656 50.1315C96.3849 49.8 96.2623 49.8133 97.1584 49.8133C97.4549 48.1934 98.7518 47.603 100.459 47.6095L116.319 47.6439L116.288 5.45934L5.01191 5.44177L5.00781 82.4162L11.7962 82.4347C12.0708 80.1701 11.8308 75.4524 11.8325 72.9417C11.8349 69.2664 11.5047 67.3263 14.5014 66.2914L14.5014 66.2913Z" fill="white"/>
<path fill-rule="evenodd" clip-rule="evenodd" d="M115.371 110.864C116.798 109.872 117.663 112.361 116.549 113.055C115.991 113.403 115.224 113.228 114.933 112.576C114.576 111.778 114.868 111.214 115.371 110.864ZM22.0322 107.829C24.4966 106.984 25.3956 111.199 23.1228 111.996C20.7285 112.837 19.5353 108.685 22.0322 107.829ZM98.9542 56.3046L132.975 56.3046L132.926 108.617L98.902 108.619L98.9542 56.3046V56.3046ZM13.2595 105.354C13.2279 104.004 13.1139 74.5834 13.3286 73.6571L31.8311 73.6613L31.8243 105.358L13.2595 105.354L13.2595 105.354ZM20.0951 69.8392C19.5707 69.8392 19.7386 69.8669 19.4543 69.6301C19.4764 69.1298 19.6424 69.143 20.0951 69.143H25.007C25.626 69.143 25.5361 69.0832 25.6398 69.6198C25.367 69.8684 25.547 69.8392 25.007 69.8392H20.0951V69.8392ZM95.5034 50.2179C94.725 51.2445 94.2987 50.9599 93.9325 52.8402L93.9061 56.1808L93.9031 57.311L93.9185 59.7171L93.9149 60.8556L93.9031 63.2403L93.906 64.3704L93.9149 66.7761L93.9185 67.9146L93.8998 70.2992L93.9093 71.4303L93.9162 82.4436L36.4398 82.4464C35.5564 82.4462 34.0439 82.6278 33.2669 82.337C33.2826 79.8366 33.2693 77.3308 33.2693 74.8298C33.2693 72.8928 33.572 69.4417 32.7485 67.9832C31.6807 65.4744 26.9322 66.2515 24.3248 66.2515C21.0784 66.2515 17.7358 66.1619 14.5016 66.2913C11.5049 67.3262 11.8352 69.2663 11.8327 72.9416C11.831 75.4523 12.071 80.17 11.7964 82.4346L5.00801 82.4161L5.01211 5.44169L116.288 5.45926C116.568 5.73186 116.515 5.09693 116.526 5.91406L116.461 50.0124C111.4 50.5411 100.336 49.4788 96.0658 50.1314L95.5034 50.2179ZM0.0379347 88.2262L11.8473 88.2164L11.8561 101.735C11.6156 102.895 11.772 106.587 11.772 108.029C11.772 110.931 11.3561 113.737 14.2367 114.785C15.2028 115.136 26.0313 114.952 27.8723 114.952C29.532 114.952 31.1978 115.257 32.4124 113.736C33.5043 112.37 33.33 110.848 33.33 108.344C33.33 106.152 33.33 103.96 33.33 101.768L33.2896 88.2306L93.9124 88.2311L93.9198 101.735C93.8519 104.751 93.9207 107.836 93.9103 110.862C93.9032 112.924 93.963 113.184 94.9655 114.208C95.8824 115.144 96.8058 114.952 98.4133 114.952L134.574 114.956C136.089 114.965 136.802 114.575 137.462 113.565C138.152 112.509 137.982 111.344 137.982 109.602C137.982 91.1238 137.871 72.3516 137.984 53.9012C138.015 48.7427 133.984 49.9711 129.522 49.9698C126.839 49.969 124.156 49.9698 121.472 49.9698V6.85816C121.472 4.43415 122.061 1.36593 119.707 0.240112C118.8 -0.193366 106.832 0.0924422 104.69 0.0924422H6.72365C5.24213 0.0924422 2.29183 -0.175693 1.45618 0.469187C1.02459 0.802262 0.771495 1.04762 0.49909 1.56828C-0.157448 2.8234 0.037946 3.44549 0.037946 5.28474V88.2262L0.0379347 88.2262Z" fill="#0F3653"/>
<path fill-rule="evenodd" clip-rule="evenodd" d="M116.843 88.8337L126.431 88.8207L126.433 90.7161L116.851 90.7085L116.843 88.8337V88.8337ZM100.66 88.8081L110.228 88.8263L110.23 90.6615L100.674 90.7121L100.66 88.8081ZM116.833 71.0439L131.238 71.0369L131.238 84.6507L116.873 84.6961L116.833 71.0439ZM100.679 71.1403C101.534 70.8393 113.264 70.9913 115.044 71.0541L115.046 84.6758L100.701 84.6796L100.679 71.1403H100.679ZM112.265 61.1265L124.814 61.2066L124.812 62.7212L112.259 62.7396L112.265 61.1265ZM108.308 60.0348C110.468 59.084 111.556 62.8449 109.58 63.7877C108.524 64.2918 107.529 63.6459 107.232 62.7692C107.022 62.148 107.055 61.5357 107.275 60.9731C107.528 60.3257 107.698 60.3032 108.308 60.0347V60.0348ZM98.9014 108.619L132.926 108.617L132.975 56.3046L98.9536 56.3046L98.9014 108.619V108.619Z" fill="#F8FCFC"/>
<path fill-rule="evenodd" clip-rule="evenodd" d="M33.3295 101.768L45.2 101.738L76.309 101.734L93.9193 101.735L93.9118 88.2311L33.2891 88.2306L33.3295 101.768Z" fill="#E4E5E5"/>
<path fill-rule="evenodd" clip-rule="evenodd" d="M79.6445 44.8812L109.923 44.8636L109.91 26.6842L79.6583 26.6846L79.6445 44.8812Z" fill="#C1D64A"/>
<path fill-rule="evenodd" clip-rule="evenodd" d="M45.6494 44.8341L75.8314 44.8566L75.9005 26.6924L45.6531 26.6841L45.6494 44.8341Z" fill="#FEC011"/>
<path fill-rule="evenodd" clip-rule="evenodd" d="M11.6377 44.8514L41.8372 44.8559L41.8873 26.7278L11.6425 26.6829L11.6377 44.8514Z" fill="#99D5DC"/>
<path fill-rule="evenodd" clip-rule="evenodd" d="M14.3104 93.3351C14.9056 93.1553 24.468 93.1484 25.2064 93.3171L25.2032 94.5485L14.3331 94.5925L14.3104 93.3351V93.3351ZM14.2927 80.9665L30.6989 80.9795L30.7059 90.68L14.3063 90.7106L14.2927 80.9665V80.9665ZM18.8429 76.7984L30.6691 76.825L30.686 78.1071C29.7876 78.2876 19.3554 78.2709 18.8102 78.0609L18.8429 76.7984ZM15.1952 75.8903C16.9685 74.7885 18.3372 78.1192 16.5393 79.0677C14.7366 80.0186 13.2756 77.083 15.1952 75.8903ZM13.2597 105.354L31.8245 105.358L31.8314 73.6613L13.3288 73.6571C13.1141 74.5835 13.2282 104.004 13.2597 105.354L13.2597 105.354Z" fill="#F8FCFC"/>
<path fill-rule="evenodd" clip-rule="evenodd" d="M42.8858 112.906C43.462 113.264 50.512 113.037 51.7496 113.037L77.5416 113.042C77.8756 113.045 78.3456 113.08 78.6474 112.906C78.5496 112.101 78.257 110.889 78.0847 110.072C77.8869 109.135 77.6985 108.301 77.4827 107.305C77.0708 105.405 76.6848 103.599 76.3094 101.734L45.2004 101.738L43.4544 110.106C43.282 110.894 42.9296 112.163 42.8857 112.906L42.8858 112.906Z" fill="#B7C9CB"/>
<path fill-rule="evenodd" clip-rule="evenodd" d="M100.701 84.6796L115.047 84.6759L115.045 71.0541C113.265 70.9913 101.535 70.8393 100.68 71.1403L100.701 84.6796H100.701Z" fill="#99D5DC"/>
<path fill-rule="evenodd" clip-rule="evenodd" d="M116.874 84.696L131.239 84.6507L131.238 71.0369L116.834 71.0439L116.874 84.696Z" fill="#FEC011"/>
<path fill-rule="evenodd" clip-rule="evenodd" d="M14.3056 90.7106L30.7052 90.68L30.6982 80.9795L14.292 80.9666L14.3056 90.7106Z" fill="#99D5DC"/>
<path fill-rule="evenodd" clip-rule="evenodd" d="M11.8558 101.735L11.847 88.2164L0.0375878 88.2262C0.0375878 90.474 0.0375878 92.7217 0.0375878 94.9695C0.0375878 97.4518 -0.562636 101.652 3.03399 101.741C4.11353 101.768 5.00816 101.866 5.78495 101.762C7.3905 101.547 10.1287 101.735 11.8558 101.735Z" fill="#E8E8E8"/>
<path fill-rule="evenodd" clip-rule="evenodd" d="M78.6476 112.906C78.3458 113.081 77.8758 113.045 77.5418 113.042L51.7499 113.037C50.5122 113.037 43.4622 113.264 42.886 112.906C41.4841 113.666 38.6514 111.89 38.6514 114.952H82.8589C82.8589 111.852 80.0033 113.72 78.6476 112.906H78.6476Z" fill="#E7E7E7"/>
<path fill-rule="evenodd" clip-rule="evenodd" d="M14.501 66.2913C17.7353 66.1619 21.0778 66.2515 24.3242 66.2515C26.9316 66.2515 31.6801 65.4744 32.7479 67.9832L36.4676 67.9789C37.747 67.6233 40.364 68.0233 41.8705 67.8434L41.8988 66.8493L36.2572 66.8036C35.7265 65.5177 35.2568 64.9478 34.0359 64.3878L41.9026 64.3584L41.9055 63.3131L11.6084 63.2394L11.6136 64.3503L17.4756 64.3684C15.3301 65.3931 16.5098 65.6831 15.0509 66.0859L14.501 66.2913L14.501 66.2913Z" fill="#ADD9D7"/>
<path fill-rule="evenodd" clip-rule="evenodd" d="M96.0654 50.1314C100.336 49.4788 111.4 50.5411 116.461 50.0124L116.526 5.91403C116.515 5.0969 116.567 5.73183 116.288 5.45923L116.319 47.6438L100.458 47.6094C98.7517 47.6029 97.4548 48.1933 97.1583 49.8132C96.2621 49.8132 96.3847 49.7999 96.0654 50.1314V50.1314Z" fill="#C1E1DD"/>
<path fill-rule="evenodd" clip-rule="evenodd" d="M19.9468 18.318L40.055 18.3216L40.0977 15.7678L19.9395 15.7825L19.9468 18.318Z" fill="#99D5DC"/>
<path fill-rule="evenodd" clip-rule="evenodd" d="M45.6094 52.8125L65.7465 52.8213L65.7482 50.3462L45.6171 50.2837L45.6094 52.8125Z" fill="#99D5DC"/>
<path fill-rule="evenodd" clip-rule="evenodd" d="M11.6357 52.8125L31.7728 52.8213L31.7745 50.3462L11.6434 50.2837L11.6357 52.8125Z" fill="#99D5DC"/>
<path fill-rule="evenodd" clip-rule="evenodd" d="M36.4394 82.4464L36.4678 67.9789L32.748 67.9831C33.5716 69.4416 33.2689 72.8927 33.2689 74.8297C33.2689 77.3307 33.2822 79.8366 33.2665 82.337C34.0435 82.6277 35.5559 82.4462 36.4394 82.4464V82.4464Z" fill="#C1E2DE"/>
<path fill-rule="evenodd" clip-rule="evenodd" d="M93.9324 52.8402C94.2986 50.9599 94.7249 51.2445 95.5033 50.2179L79.6559 50.2902L79.6523 52.7324C80.551 53.0101 85.3756 52.8236 86.6791 52.8236C89.0595 52.8236 91.5678 52.736 93.9324 52.8403V52.8402Z" fill="#99D5DC"/>
<path fill-rule="evenodd" clip-rule="evenodd" d="M11.6348 57.2565L12.3177 57.2753L41.2436 57.2719L41.8912 57.2321L41.8854 56.2792L41.2443 56.2092L12.2495 56.2215L11.6372 56.2291L11.6348 57.2565Z" fill="#98D4DB"/>
<path fill-rule="evenodd" clip-rule="evenodd" d="M45.6084 57.2565L46.2913 57.2753L75.2173 57.2719L75.8647 57.2321L75.8591 56.2792L75.218 56.2092L46.2914 56.2215L45.6109 56.2291L45.6084 57.2565Z" fill="#98D4DB"/>
<path fill-rule="evenodd" clip-rule="evenodd" d="M45.6113 60.7986L75.8478 60.8065L75.8526 59.7987L45.6454 59.7659L45.6113 60.7986Z" fill="#9CD6DD"/>
<path fill-rule="evenodd" clip-rule="evenodd" d="M11.6367 60.7986L41.8731 60.8065L41.878 59.7987L11.6708 59.7659L11.6367 60.7986Z" fill="#9CD6DD"/>
<path fill-rule="evenodd" clip-rule="evenodd" d="M45.6211 67.8594L75.8352 67.8647L75.8602 66.8622L45.6299 66.824L45.6211 67.8594Z" fill="#9CD6DD"/>
<path fill-rule="evenodd" clip-rule="evenodd" d="M45.6118 64.3172L75.8599 64.3285L75.8623 63.3415L45.6074 63.2789L45.6118 64.3172Z" fill="#98D4DB"/>
<path fill-rule="evenodd" clip-rule="evenodd" d="M13.7416 13.9184C10.0037 15.1424 11.6663 21.3847 15.3039 20.216C16.597 19.8005 17.6844 18.0711 17.2229 16.1455C16.8687 14.6672 15.4555 13.3572 13.7416 13.9185V13.9184Z" fill="#99D5DC"/>
<path fill-rule="evenodd" clip-rule="evenodd" d="M45.6157 71.3765L67.1993 71.3877L67.2136 70.3386L45.6025 70.3391L45.6157 71.3765Z" fill="#98D4DB"/>
<path fill-rule="evenodd" clip-rule="evenodd" d="M112.259 62.7395L124.812 62.7211L124.814 61.2066L112.265 61.1265L112.259 62.7395Z" fill="#99D5DC"/>
<path fill-rule="evenodd" clip-rule="evenodd" d="M116.852 90.7085L126.434 90.716L126.432 88.8207L116.844 88.8337L116.852 90.7085Z" fill="#99D5DC"/>
<path fill-rule="evenodd" clip-rule="evenodd" d="M100.674 90.712L110.23 90.6614L110.229 88.8262L100.66 88.808L100.674 90.712Z" fill="#99D5DC"/>
<path fill-rule="evenodd" clip-rule="evenodd" d="M18.8096 78.0609C19.3548 78.2709 29.787 78.2876 30.6853 78.1071L30.6684 76.825L18.8423 76.7983L18.8096 78.0609Z" fill="#99D5DC"/>
<path fill-rule="evenodd" clip-rule="evenodd" d="M93.9094 71.4303L93.8999 70.2992L79.7208 70.3413L79.6465 71.2971C80.563 71.5758 85.368 71.3875 86.6794 71.3875C88.8386 71.3875 91.854 71.1873 93.9094 71.4303V71.4303Z" fill="#98D4DB"/>
<path fill-rule="evenodd" clip-rule="evenodd" d="M93.9183 67.9145L93.9147 66.776L79.6625 66.8289L79.6582 67.807L93.9183 67.9145Z" fill="#9CD6DD"/>
<path fill-rule="evenodd" clip-rule="evenodd" d="M93.9143 60.8555L93.9179 59.717L79.6701 59.7703L79.6523 60.7373L93.9143 60.8555Z" fill="#9CD6DD"/>
<path fill-rule="evenodd" clip-rule="evenodd" d="M14.3323 94.5925L25.2024 94.5485L25.2056 93.317C24.4672 93.1483 14.9049 93.1552 14.3096 93.3351L14.3323 94.5925V94.5925Z" fill="#99D5DC"/>
<path fill-rule="evenodd" clip-rule="evenodd" d="M93.9022 57.3109L93.9052 56.1808C91.4463 56.4615 80.9902 55.9218 79.8777 56.3036C79.8375 56.3174 79.7921 56.3464 79.7602 56.3592C79.7281 56.3721 79.6804 56.3945 79.6446 56.4207C79.6474 57.5574 79.5606 57.2908 81.2205 57.2728C83.857 57.2441 92.4656 57.1506 93.9022 57.3109V57.3109Z" fill="#98D4DB"/>
<path fill-rule="evenodd" clip-rule="evenodd" d="M93.9059 64.3704L93.903 63.2402C92.3293 63.4158 84.1146 63.2955 81.3578 63.2789C81.0767 63.2773 80.639 63.2407 80.3859 63.2542C79.6683 63.2926 79.6477 62.9969 79.6455 64.1305C80.3187 64.6251 91.932 64.145 93.906 64.3704L93.9059 64.3704Z" fill="#98D4DB"/>
<path fill-rule="evenodd" clip-rule="evenodd" d="M108.308 60.0347C107.698 60.3031 107.528 60.3257 107.275 60.9731C107.055 61.5356 107.022 62.148 107.232 62.7692C107.529 63.6459 108.524 64.2918 109.58 63.7876C111.556 62.8448 110.468 59.0839 108.308 60.0347V60.0347Z" fill="#99D5DC"/>
<path fill-rule="evenodd" clip-rule="evenodd" d="M99.8832 17.5767L109.909 17.5768L109.92 16.5278H99.8545L99.8832 17.5767Z" fill="#98D4DB"/>
<path fill-rule="evenodd" clip-rule="evenodd" d="M66.1813 17.5767L76.2068 17.5768L76.2184 16.5278H66.1611L66.1813 17.5767Z" fill="#98D4DB"/>
<path fill-rule="evenodd" clip-rule="evenodd" d="M54.9424 16.7706C54.9532 17.4939 54.8279 17.6104 55.9714 17.5901L64.9783 17.5658L64.9891 16.5433L55.3013 16.574C54.9516 16.6891 55.1635 16.5759 54.9424 16.7706H54.9424Z" fill="#FD5F1C"/>
<path fill-rule="evenodd" clip-rule="evenodd" d="M77.4072 17.5521L87.4435 17.5802L87.4262 16.5634L77.4782 16.5321L77.4072 17.5521Z" fill="#9CD6DD"/>
<path fill-rule="evenodd" clip-rule="evenodd" d="M88.6348 17.5103L98.667 17.5847L98.6406 16.5449L88.6834 16.5339L88.6348 17.5103Z" fill="#9CD6DD"/>
<path fill-rule="evenodd" clip-rule="evenodd" d="M15.1944 75.8903C13.2747 77.0829 14.7358 80.0186 16.5384 79.0676C18.3363 78.1191 16.9676 74.7885 15.1944 75.8903Z" fill="#99D5DC"/>
<path fill-rule="evenodd" clip-rule="evenodd" d="M22.2009 108.485C23.8371 107.835 24.4593 110.753 23.0592 111.325C22.1336 111.703 21.4405 111.038 21.2843 110.283C21.0671 109.234 21.5742 108.734 22.2009 108.485V108.485ZM22.0317 107.829C19.5348 108.685 20.728 112.837 23.1224 111.996C25.3952 111.199 24.4962 106.984 22.0317 107.829Z" fill="#FDFDFD"/>
<path fill-rule="evenodd" clip-rule="evenodd" d="M22.2011 108.485C21.5745 108.734 21.0673 109.234 21.2845 110.283C21.4408 111.038 22.1338 111.703 23.0595 111.325C24.4596 110.753 23.8374 107.835 22.2011 108.485V108.485Z" fill="#0F3653"/>
<path fill-rule="evenodd" clip-rule="evenodd" d="M115.37 110.864C114.867 111.214 114.576 111.777 114.932 112.576C115.224 113.228 115.991 113.403 116.549 113.055C117.662 112.361 116.797 109.872 115.37 110.864Z" fill="white"/>
<path fill-rule="evenodd" clip-rule="evenodd" d="M19.4541 69.6301C19.7385 69.8669 19.5705 69.8393 20.0949 69.8393H25.0068C25.5468 69.8393 25.3668 69.8685 25.6396 69.6199C25.5359 69.0832 25.6259 69.1431 25.0068 69.1431H20.0949C19.6422 69.1431 19.4763 69.1299 19.4541 69.6301V69.6301Z" fill="white"/>
</svg>
