<?xml version="1.0" encoding="UTF-8"?>
<!DOCTYPE svg PUBLIC "-//W3C//DTD SVG 1.1//EN" "http://www.w3.org/Graphics/SVG/1.1/DTD/svg11.dtd">
<!-- Creator: CorelDRAW 2019 (64-Bit) -->
<svg xmlns="http://www.w3.org/2000/svg" xml:space="preserve" width="55.8017mm" height="63.3498mm" version="1.1" style="shape-rendering:geometricPrecision; text-rendering:geometricPrecision; image-rendering:optimizeQuality; fill-rule:evenodd; clip-rule:evenodd"
viewBox="0 0 833.46 946.2"
 xmlns:xlink="http://www.w3.org/1999/xlink"
 xmlns:xodm="http://www.corel.com/coreldraw/odm/2003">
 <defs>
  <style type="text/css">
   <![CDATA[
    .fil0 {fill:white}
   ]]>
  </style>
 </defs>
 <g id="Слой_x0020_1">
  <metadata id="CorelCorpID_0Corel-Layer"/>
  <g id="_1840423253968">
   <path class="fil0" d="M209.92 315.01l16.53 -3.7c5.44,-0.72 3.71,-0.66 8.32,-1.8 3.28,-0.81 5.27,-0.72 8.76,-1.36l43.32 -8.53c4.4,-0.8 3.62,-1.32 7.99,-2.13l34.32 -6.15c4.1,-0.61 5.87,-0.68 8.76,-1.36 16.71,-3.93 34.99,0.24 50.7,6.95 11.08,4.74 18.6,11.16 26.5,19.03 19.49,19.4 22.54,37.8 27.28,65.04 0.95,5.48 1.68,5.52 2.36,9.02l2.47 11.44c0.09,0.35 0.16,0.67 0.23,1.04 2.84,14.71 4.22,31.28 8.14,44.97l25.29 135.31c0.94,3.32 0.98,6.12 1.77,9.7 4.4,19.97 9.07,42.18 11.81,62.71l6.15 29.27c2.52,13.79 4.12,25.52 6.54,38.98 1.22,6.79 1.43,2.27 2.42,8.96 0.67,4.5 0.52,5.78 1.41,9.97 1.35,6.36 2.44,13.29 3.83,20.2l3.71 19.05c2.11,12.51 -1.88,10.89 9.18,13.59 15.33,3.74 48.91,10.31 63.17,0.66 9.18,-6.21 14.66,-13.26 17.44,-24.29 3.68,-14.56 5.9,-39.55 8.08,-55.15 0.92,-6.53 2.27,-13.42 2.91,-18.58l22.95 -166.74c2.53,-9.2 14.18,-99.5 15.31,-109.89l2.89 -18.6c0.46,-2.77 1.62,-4.7 2.03,-8.09l6.81 -56.42c0.38,-2.59 1.61,-6.22 2.01,-9.37 2.52,-19.53 12.84,-84.4 12.84,-100.97 0,-14.07 -16.54,-30.2 -29.2,-32.76l-41.08 -5.71c-1.51,-0.21 -4.88,-0.61 -6.68,-0.91l-102.66 -14.95c-8.59,-0.65 -6.32,-2.06 -13.86,-2.58 -15.29,-1.05 -23.95,-3.02 -38,-4.99 -5.13,-0.72 -9.21,-0.83 -14.79,-1.65l-123.22 -18.42c-22.38,-2.42 -53.39,-13.45 -72.27,3.15 -0.2,0.17 -0.48,0.41 -0.68,0.59 -0.19,0.17 -0.48,0.42 -0.67,0.59 -13.43,12.39 -12.57,32.36 -16.07,52.3 -4.07,23.15 -6.05,49.05 -10.18,73.2 -1.7,9.93 -4.86,29.07 -4.86,39.4z"/>
   <path class="fil0" d="M136.58 397.21c7.59,-3.64 30.02,-6.92 39.34,-8.71l40.25 -7.8c14.13,-1.87 26.32,-5.23 40.18,-7.88l27.86 -5.02c4.05,-0.79 8.95,-1.66 13.73,-2.71 13.48,-2.95 43.41,-9.62 56.14,-9.62 20.41,0 22.53,27.56 24.93,42.09 1.18,7.17 2.92,13.4 3.8,18.96l7.05 37.21c0.81,5.02 1.94,14.55 3.26,19.5 3.35,12.62 3.7,24.74 7.13,37.13 1.46,5.27 1.28,2.54 2,9.38 1.05,9.92 3.98,18.8 5.33,28.81l7.25 38.28c0.79,5.81 2.27,14.04 3.48,19.28 1.54,6.63 1.75,12.59 3.36,19.4l29.21 151.63c1.48,6.78 2.12,13.11 3.13,19.64 2.6,16.76 11.96,39.93 -7.65,49.31 -7.08,3.38 -19.1,4.98 -27.73,6.49 -2.45,0.43 -2.28,0.3 -3.79,0.5 -0.35,0.04 -1.24,0.13 -1.57,0.19l-276.66 53.61c-4.05,0.49 -6.53,1.26 -9.88,0.96 -6.54,-0.58 -10.45,-4.22 -14.55,-8.23 -3.2,-3.12 -3.23,-2.48 -4.73,-6.65 -4.34,-12.05 -4.53,-26.07 -7.68,-37.84 -0.7,-2.63 -1.26,-5.88 -1.85,-9.53l-31.82 -170.51c-3.33,-11.63 -5.04,-24.1 -7.01,-35.99l-5.09 -29.06c-0.85,-3.88 -1.25,-3.35 -2.21,-9.18 -0.9,-5.48 -1.41,-4.41 -2.28,-9.1l-6.57 -38.96c-1.63,-13.46 -8.67,-11.91 15.45,-16.29l21.32 -3.97c13.47,-2.37 29.77,-4.7 42.98,-8.87 17.05,-5.38 28.27,-21.88 29.68,-39.56 0.41,-5.12 -3.74,-20.89 -4.79,-28.38l-11.01 -58.54zm-136.58 134.05c0,6.98 12.69,69.08 15.86,84.04 3.87,18.24 5.95,39.12 10.55,56.48 5.49,20.74 7.72,47.85 13.42,70.05 5.86,22.83 9.6,61.16 15.98,85.19 2.16,8.15 2.83,20.71 5.08,27.8l7.82 40.15c2.55,9.74 4.36,16.21 9.75,24.48 4.3,6.59 9.98,11.88 16.37,16.51 2.89,2.1 6.57,4.27 10.73,5.71 16.78,5.81 13.16,4.38 33.56,4.38l49.71 -9.72c6.94,-0.94 6.91,-1.45 11.37,-2.54l188.88 -36.21c25.54,-6.46 53.68,-7.42 77.44,-18.67 25.91,-12.27 34.59,-45.87 28.64,-72.65l-8.04 -42.55c-0.78,-5.75 -0.62,-4.02 -1.84,-8.28l-16.39 -86.04c-1.69,-7.44 -2.07,-18.12 -4.16,-26.19 -6.39,-24.8 -10.04,-51.05 -14.6,-76.45l-34.05 -180.93c-0.89,-8.18 -5.1,-25.66 -8.2,-32.27 -1.57,-3.34 -2.28,-4.29 -4.06,-7.32 -10.41,-17.73 -31.12,-29.93 -52.27,-29.93l-23.09 3.47c-4.09,1.17 -1.54,0.91 -7.15,1.7l-29.73 5.68c-10.03,2.29 -20.96,3.05 -29.96,5.45 -19.33,5.14 -40.05,6.53 -59.15,11.67l-59.61 11.21c-5.55,1.05 -26.17,4.96 -28.54,6.87l-114.33 168.94z"/>
   <path class="fil0" d="M352.82 120.26c4.63,0.1 6.38,1.17 10.65,1.99l35.19 4.86c2.28,-0.53 2.54,-0.04 2.3,-9.38 -0.14,-5.55 -0.49,-8.05 -0.81,-11.03 -5.44,-51.27 -1.74,-35.22 38.47,-39.73 14.09,-1.58 30.45,-0.98 44.97,-3.08 7.74,-1.12 15.65,0.12 23.32,-0.7 6.69,-0.72 13.72,-2.38 21.63,-2.39l92.54 -4.83c15.36,-1.72 30.99,0.09 46.42,-1.63 13.41,-1.5 30.41,-2.37 44.51,-3.54 7.58,-0.63 16.24,0.56 23.79,-0.24 28.48,-3.04 7.09,-0.93 20.41,0.18 2.62,11.25 3.89,25.28 3.79,39.21l23.79 449.94c-2.49,8.78 -36.25,5.53 -56.11,8.38 -10.21,1.47 -38.32,1.2 -51.29,1.82 -7.36,0.35 -6.33,0.54 -9.42,23.46 -1.69,12.52 -3.07,15.33 -3.07,26.01 14.73,0 21.26,0.34 36.3,-1.64l70.46 -4.15c19.19,-2.89 39.16,4.94 55.9,-17.45 11.13,-14.9 5.39,-33.92 5.56,-55.19l-3.75 -54.42c-0.5,-6.09 0.42,-12.44 -0.41,-18.56 -1.55,-11.36 -2.12,-23.42 -2.14,-37.06l-6.9 -128.41c-0.77,-5.27 -1.76,-13.6 -2.01,-18.23 -0.74,-13.78 0.08,-23.29 -1.65,-36.32 -0.27,-2.03 -0.82,-4.21 -0.73,-7.72 0.09,-3.48 0.23,-1.6 0.22,-3.81l-1.64 -22.96c-0.33,-6.04 0.49,-12.83 -0.18,-18.79l-2.39 -35.55c-0.19,-6.49 0.49,-13.83 -0.02,-20.21 -0.38,-4.74 -1.8,-12.17 -2.28,-16.69 -0.61,-5.64 -0.13,-13 -0.14,-18.83l-4.05 -54.13c-2.61,-14.3 -18.76,-29.29 -30.14,-29.29 -30.03,0 -34.46,-1.03 -64.26,2.76 -8.9,1.13 -20.82,0.08 -30.24,1.38 -18.17,2.49 -41.63,1.24 -60.81,3.68 -18.33,2.34 -42.67,0.3 -61.49,3.01l-120.9 6.82c-6.82,0.08 -7.44,1.17 -13.82,1.36 -10.9,0.33 -34.88,-0.27 -45.97,3.35 -2.07,0.68 -8.4,3.71 -10.27,4.9 -9.87,6.27 -17,20.18 -17.2,32.2 -0.1,6.03 1.29,6.96 1.37,13.83 0.06,5.18 -0.43,11.26 0.13,16.31 1.08,9.67 2.34,19.23 2.34,30.54z"/>
   <path class="fil0" d="M96.11 591.96c0,10.51 9.52,17.7 15.18,17.7 6.95,0 56.87,-9.69 65.33,-11.81 11.16,-2.8 21.26,-3.96 32.97,-6.23l131.72 -25.09c32.08,-5.84 20.5,-35.27 5.19,-35.27 -15.03,0 -25.72,5 -39.1,6.43l-87.88 17.08c-3.35,0.52 -5.84,0.36 -8.98,1.14 -22.44,5.54 -50.13,9.29 -68.47,13.73 -9.85,2.38 -32.49,4.99 -38.65,9.41 -3.25,2.33 -7.32,7.71 -7.32,12.92z"/>
   <path class="fil0" d="M115.08 690.59c0,7.38 1.95,12.74 8.12,15.92 10.43,5.37 18.67,0.59 24.95,-0.55l135.86 -26.01c16.73,-3.15 82.96,-14.52 88.73,-18.76 10.14,-7.44 10.15,-19.97 0.71,-27.88 -8.32,-6.97 -21.78,-0.71 -35.08,1.1 -19.1,2.6 -51.03,9.85 -71.68,14.31l-62.75 11.86c-11.15,3.18 -72.47,11.95 -80.67,16.71 -3.87,2.24 -8.18,7.84 -8.18,13.32z"/>
   <path class="fil0" d="M150.49 808.2l67.03 -12.63c12.73,-3.77 35.76,-5.77 47.72,-9.19l71.08 -13.65c5.11,-0.83 51.95,-9.81 55.05,-11.97 10.3,-7.19 15.15,-39.16 -26.35,-28.87l-18.06 3.44c-17.96,4.61 -28.44,5.41 -45.8,8.58l-26.93 5.95c-7.34,1.06 -11.19,1.82 -18.25,3.24l-109.85 21.66c-16.24,5.07 -15.89,24.84 -4.34,30.78 2.05,1.06 6.06,2.67 8.71,2.67z"/>
  </g>
 </g>
</svg>
