<svg width="138" height="115" viewBox="0 0 138 115" fill="none" xmlns="http://www.w3.org/2000/svg">
<path fill-rule="evenodd" clip-rule="evenodd" d="M47.298 41.4216L86.4871 41.4366L86.4956 42.072L47.2581 42.0722L47.298 41.4216V41.4216ZM40.8804 39.1689H92.8792V39.8193H40.8804V39.1689ZM42.8463 36.9161L90.9371 36.9157V37.2176L90.9378 37.4036L90.9042 37.5666L42.8549 37.5516L42.8463 36.9161H42.8463ZM99.6235 37.3337H97.5893V36.7299H99.6235C99.4617 36.4565 99.3397 36.3243 99.1464 36.0706L99.6285 35.7346C99.9848 36.0863 100.35 36.5841 100.624 37.0318C100.33 37.516 100.018 37.9446 99.6058 38.3554L99.1668 37.9693C99.3477 37.7288 99.4601 37.6278 99.6234 37.3337H99.6235ZM33.2821 37.0318C33.449 36.6937 34.0074 35.9995 34.2948 35.7154L34.739 36.018C34.6234 36.2931 34.4479 36.4525 34.2824 36.7298H36.3165V37.3337H34.2824C34.4479 37.6111 34.6234 37.7705 34.732 38.0365L34.2773 38.3256C33.919 37.9785 33.5526 37.4745 33.2821 37.0318L33.2821 37.0318ZM46.998 31.991L86.3258 31.9848L86.6912 32.0225L86.6742 34.5L47.0961 34.5008L47.0709 34.1513L46.998 31.991L46.998 31.991ZM30.4905 26.9037V43.2573L30.4902 50.2261H103.416L103.415 42.0493V33.5009L103.416 23.8374H30.4902L30.4905 26.9037V26.9037Z" fill="#2CA2CE"/>
<path fill-rule="evenodd" clip-rule="evenodd" d="M57.8234 79.4471L58.1638 79.3934L71.7596 79.4023L72.1028 79.4351L72.1012 80.008L72.3422 80.0519H57.9707L57.8234 80.008V79.4471H57.8234ZM36.3165 79.4023H50.5908L50.615 80.0528H50.4938H36.3165V79.4023V79.4023ZM57.8239 78.2873V77.7997L75.7171 77.8004L75.7048 78.4286C75.4953 78.4492 59.296 78.5466 58.2535 78.4599C57.5559 78.4018 58.0184 78.4097 57.8239 78.2873V78.2873ZM36.3114 77.7998L54.2808 77.7997L54.1948 78.4507L36.268 78.4504L36.3114 77.7998V77.7998ZM57.8239 76.5219V76.336L57.8665 76.1727L74.2843 76.1729L74.096 76.1727L74.119 76.5216L74.1142 76.8237H57.7765L57.8239 76.5219H57.8239ZM36.3165 76.5219L36.3347 76.1727L52.5832 76.1737L52.6108 76.8008L52.2419 76.8283L36.2194 76.8237H36.3165V76.5219V76.5219ZM57.8239 75.0352V74.5475L75.7171 74.5482L75.7048 75.1765C75.4953 75.1971 59.296 75.2944 58.2535 75.2078C57.5559 75.1497 58.0184 75.1575 57.8239 75.0352V75.0352ZM36.3114 74.5477L54.1838 74.5475L54.1948 75.1985L36.3165 75.1983L36.3114 74.5477V74.5477ZM57.5585 72.7824H67.3899L67.7546 72.8035L67.7541 73.897L67.3902 73.9248L57.5585 73.9202V72.7824V72.7824ZM36.0732 72.8435L36.4114 72.7703L46.2454 72.7824L46.245 73.9202L36.0732 73.9177L36.0733 72.8435H36.0732ZM97.5541 71.0516C97.8171 71.9515 98.1235 72.2438 98.2397 73.4004C99.3072 74.3892 99.5911 78.3434 97.0192 80.2525C94.6518 82.0098 91.336 81.7023 89.7324 80.0498L89.6183 80.0573L79.3096 80.0527V79.4023L88.9418 79.398C88.7544 79.0619 88.5129 78.878 88.3322 78.46L88.3639 78.4599L79.3334 78.4502L79.3045 77.7998L87.8532 77.8166C87.8696 77.4701 87.7327 77.1679 87.5881 76.8272H87.5875L79.3096 76.8236L79.3227 76.1727L87.5019 76.1781C87.403 75.8706 87.2017 75.4636 87.0542 75.1889L79.3334 75.1985L79.3045 74.5477L86.8834 74.5484L86.7604 73.9202L79.0665 73.9185V72.81L86.7338 72.7824C86.851 72.0548 86.9895 71.6567 87.19 71.0255L79.3108 71.0166L79.3216 53.5484H97.5897L97.554 71.0517L97.5541 71.0516ZM57.8246 53.6095C58.3388 53.4669 75.567 53.4669 76.0814 53.6095L76.0807 71.0161L57.825 70.9819L57.8246 53.6094L57.8246 53.6095ZM36.3044 53.5484H54.5959L54.6017 70.6684L54.5721 71.0166L36.335 71.017L36.3165 70.668L36.3044 53.5484L36.3044 53.5484ZM30.4902 51.7128L30.4911 86.7656H103.415L103.416 68.2314C100.985 68.1751 98.8277 66.4458 98.8434 64.1261C98.7132 63.7418 98.4126 63.3795 98.2463 62.8869C97.3159 60.1317 99.1466 56.9923 101.9 55.7449C102.464 55.4891 102.84 55.4629 103.388 55.2572L103.416 51.7128V50.2261H30.4902V51.7128L30.4902 51.7128Z" fill="white"/>
<path fill-rule="evenodd" clip-rule="evenodd" d="M84.4311 18.0792L94.1174 18.0765V18.727L84.7703 18.7361L84.4311 18.681V18.0792V18.0792ZM73.2894 18.0765H73.4104H82.9504L83.0237 18.727H73.2894V18.0765H73.2894ZM62.0492 18.0765H71.7834L71.8567 18.727H62.1225L62.0492 18.0765V18.0765ZM50.8822 18.0765H60.6164V18.727H60.4955H50.9555L50.8822 18.0765V18.0765ZM49.1355 18.0674L49.4747 18.1225L49.4764 18.6935L49.1355 18.7361L48.843 18.727H39.7885L39.7152 18.0765H49.0372L49.1355 18.0674V18.0674ZM57.1939 12.4314L76.7111 12.4315L76.6755 14.4066L57.2027 14.4067L57.1939 12.4314H57.1939ZM30.4903 23.8374H103.416V19.7491C103.962 19.7607 104.872 20.0114 105.384 20.0953C106.382 20.2583 110.861 21.1429 111.432 21.1429C111.237 20.9193 110.716 20.5785 110.438 20.3739L104.324 15.9104C104.148 15.7886 104.009 15.6897 103.818 15.5558C103.535 15.3574 103.522 15.4091 103.416 15.0781L111.767 21.1343C111.8 20.7701 111.921 20.3152 112.002 19.8812C112.093 19.3921 112.181 19.0453 112.277 18.5653L113.806 10.65L103.418 14.1563L103.416 8.69179V5.67224H30.4902V23.8374L30.4903 23.8374Z" fill="white"/>
<path fill-rule="evenodd" clip-rule="evenodd" d="M36.3173 93.5259L52.2428 93.5208L52.6044 93.5512L52.6048 94.157L52.2425 94.1763H36.3173V93.5259V93.5259ZM36.3173 92.3179H54.2133V92.9684H36.3173V92.3179ZM95.6815 91.0969C97.6457 90.555 98.2328 93.3191 96.579 93.8626C94.6486 94.4969 93.6069 91.6693 95.6815 91.0969ZM87.8981 91.0825C89.7655 90.602 90.6095 93.3322 88.7188 93.8716C86.7351 94.4376 85.8887 91.5995 87.8981 91.0825ZM91.838 91.0626C93.756 90.6502 94.4209 93.3738 92.605 93.878C90.5373 94.452 89.8626 91.4875 91.838 91.0626ZM36.3645 90.7829L45.9875 90.8033L45.9599 91.4354L36.3331 91.4366L36.3645 90.7829ZM30.7743 98.9127C31.5279 99.1001 102.38 99.1001 103.133 98.9127C103.542 98.6494 103.419 98.2188 103.417 97.6145L103.416 86.7656H30.492L30.4908 97.6145C30.4884 98.2187 30.3656 98.6494 30.7743 98.9127H30.7743Z" fill="#FCBE0F"/>
<path fill-rule="evenodd" clip-rule="evenodd" d="M17.3712 39.7294C17.3879 39.7187 17.4137 39.7001 17.4326 39.689C17.4515 39.6779 17.4764 39.6637 17.4965 39.653C17.523 39.6391 17.6688 39.5796 17.7013 39.567L22.8363 37.7002C23.4389 37.482 24.6898 36.8642 24.4363 37.5412C24.34 37.7985 18.7401 39.6974 17.9581 40.0066C17.4115 40.2228 17.4144 40.2994 17.2539 39.8194L17.3712 39.7294L17.3712 39.7294ZM29.0194 33.5565L29.1209 33.8726C28.9996 34.0884 28.7089 34.1419 28.3733 34.262L26.0513 35.1067C23.0748 36.1856 19.6187 37.5269 16.7229 38.4889L16.5733 38.0417L29.0194 33.5565H29.0194ZM28.6254 32.6941L28.8088 33.1113C27.9741 33.5275 16.6502 37.5893 16.3437 37.5894L16.2287 37.1966L28.6254 32.6941V32.6941ZM15.9153 36.4743C16.1143 36.1001 17.0089 35.9398 17.4392 35.7868C18.9793 35.2393 27.7566 31.939 28.323 31.8577L28.4536 32.2001C28.3753 32.2803 28.4399 32.2364 28.2923 32.3277L18.9571 35.7516C18.4373 35.9433 17.8819 36.1398 17.3365 36.3387C17.0553 36.4412 16.8181 36.5363 16.5632 36.6318C16.0616 36.8199 16.0643 36.9144 15.9153 36.4743H15.9153ZM15.5692 35.5451C15.7411 35.4099 27.1718 31.1883 27.9845 31.0002L28.1167 31.3638C27.9725 31.5074 16.3609 35.8299 15.7081 35.9183L15.5692 35.5451V35.5451ZM15.2297 34.7089C15.6253 34.4016 23.0033 31.8202 24.5457 31.2515C25.29 30.9771 26.9543 30.2784 27.6546 30.1522L27.7768 30.5276C27.481 30.7753 19.6518 33.5668 18.1895 34.088C17.6235 34.2898 17.1373 34.4661 16.5715 34.6773C15.2174 35.1827 15.3873 35.2316 15.2297 34.7089L15.2297 34.7089ZM14.887 33.8726C15.0503 33.7191 26.4322 29.4903 27.3223 29.3041L27.4369 29.6913C27.2722 29.8257 15.7196 34.0853 15.0161 34.2372L14.887 33.8726L14.887 33.8726ZM14.5504 33.0364C14.6247 32.9657 14.5704 32.9987 14.7211 32.9092L26.4541 28.6055C27.0422 28.3848 26.9066 28.367 27.0876 28.7621C26.976 29.0168 27.235 28.8172 26.7822 29.0226L14.6809 33.3942L14.5504 33.0364V33.0364ZM20.361 27.1655C21.426 26.9332 23.9351 25.8362 25.2458 25.3988C25.5719 25.29 25.7288 25.1381 25.8053 25.525C25.8646 25.8248 25.667 25.7892 25.288 25.9198C24.1651 26.3065 21.1567 27.4926 20.5091 27.6285L20.361 27.1655H20.361ZM22.8885 24.5983L23.1817 25.4763L22.3257 25.7446L22.8885 24.5983V24.5983ZM23.9512 25.1955C23.4548 25.2657 23.0404 25.0572 23.2736 24.5531C23.4682 24.1321 23.8575 24.3288 24.1777 24.5417C24.1893 24.9176 24.1126 25.0073 23.9512 25.1955V25.1955ZM25.133 23.8068L25.427 24.6583L24.5311 24.9505L24.2017 24.0981L25.133 23.8068V23.8068ZM10.6483 23.1871L12.0168 26.625L8.44727 27.8972L10.4455 32.9826C12.241 37.4995 14.3106 42.4938 16.0102 46.9849C16.1578 47.3749 16.414 47.8931 16.5069 48.2749C16.9022 48.2435 17.8201 47.8412 18.2259 47.6897L26.9529 44.5187C27.5775 44.2897 28.0827 44.085 28.7058 43.873C29.2964 43.6721 29.9184 43.3847 30.4902 43.2574V26.9038L30.2327 26.4066C29.4814 24.348 28.4158 21.9675 27.6376 19.8767C27.3971 19.2303 26.8464 18.0155 26.7029 17.4261C26.1449 17.438 14.0452 21.9118 12.7059 22.4303C12.0183 22.6965 11.3032 22.9102 10.6483 23.1871L10.6483 23.1871Z" fill="#F2F1F1"/>
<path fill-rule="evenodd" clip-rule="evenodd" d="M31.9974 3.11668C31.608 1.84488 33.4868 1.49468 33.7796 2.49137C34.1432 3.72861 32.3253 4.18755 31.9974 3.11668ZM30.4914 5.6722H103.417C103.417 4.24405 103.595 1.27525 103.32 0.14332C102.31 -0.0817359 95.9527 0.0503719 94.3861 0.0503719H35.0553C33.7124 0.0503719 31.7282 -0.110745 30.5885 0.14332C30.3129 1.27525 30.4914 4.24405 30.4914 5.6722V5.6722Z" fill="#FCBE0F"/>
<path fill-rule="evenodd" clip-rule="evenodd" d="M113.427 42.7927C112.894 43.618 111.523 42.9798 112.023 42.0242C112.474 41.1631 114.037 41.848 113.427 42.7927ZM115.183 43.9147L113.641 43.4761L114.081 42.0146L115.628 42.4415L115.183 43.9147V43.9147ZM109.976 42.4501C109.568 42.3721 109.865 42.2907 109.946 42.2431L111.672 41.4061C111.77 41.2842 111.515 41.3074 111.863 41.3074L111.771 41.5085L111.372 42.7903L109.976 42.4501ZM106.739 28.6507C107.515 28.7744 118.721 32.154 118.925 32.293L118.017 35.1665L105.82 31.5706L106.739 28.6507V28.6507ZM114.129 24.8551C115.186 24.4284 115.665 25.8623 114.824 26.2186C114.282 26.4477 113.834 26.1747 113.694 25.7986C113.479 25.2192 113.793 24.9905 114.129 24.8551ZM103.416 33.5009V42.0493L116.234 45.8589L119.765 35.0211C119.93 34.4853 121.031 31.4575 120.914 31.157L117.03 25.6773C116.746 25.2672 115.447 23.4993 115.36 23.187C114.854 23.187 114.645 23.3286 114.292 23.4656C113.942 23.6011 113.628 23.7196 113.252 23.8641L106.131 26.5279C105.562 26.7363 105.663 26.7084 105.488 27.3069C105.289 27.9918 105.047 28.6666 104.811 29.3535C104.676 29.7483 103.644 33.188 103.416 33.5008V33.5009Z" fill="#F2F1F1"/>
<path fill-rule="evenodd" clip-rule="evenodd" d="M19.6148 101.261C21.3 101.128 29.1165 101.24 31.4615 101.24L114.327 101.331C114.805 100.575 114.68 100.155 114.68 99.0079L107.106 99.0075L107.004 99.0108C106.869 99.0879 107.112 99.021 106.794 99.0793C106.694 99.0977 106.632 99.0986 106.53 99.1025C106.387 99.1079 106.188 99.0983 106.039 99.0971C95.4621 99.0152 84.5505 99.0963 73.9658 99.0963C73.961 99.8845 73.691 99.9482 72.8318 99.96L63.0204 99.9573C61.1243 99.9573 60.0081 100.254 59.9925 99.115L30.8789 99.0963C30.4296 99.0963 27.2378 99.2347 26.9276 98.9852L19.3235 99.0086C19.1194 99.8461 19.1754 100.69 19.6148 101.261V101.261Z" fill="#A9A9A9"/>
<path fill-rule="evenodd" clip-rule="evenodd" d="M26.7046 61.3762L26.7325 64.5638C26.7295 64.5518 26.7173 64.6084 26.7046 64.6283V94.8267C26.7046 95.8367 26.4619 98.4015 26.9289 98.9852L30.3049 99.0216C30.4114 99.0168 30.4639 99.0168 30.5674 98.994C30.8174 98.9391 30.6242 99.0173 30.7749 98.9126C30.3662 98.6494 30.489 98.2187 30.4914 97.6144L30.4926 86.7656L30.4917 51.7127C29.1553 51.7127 28.3799 51.5661 27.5197 52.121C26.5992 52.7148 26.7044 53.8581 26.7046 54.6861C26.7052 56.9161 26.7046 59.1462 26.7046 61.3762V61.3762Z" fill="#103754"/>
<path fill-rule="evenodd" clip-rule="evenodd" d="M114.327 101.331L31.4619 101.24C29.117 101.24 21.3004 101.128 19.6152 101.261C20.3613 102.411 22.0115 102.918 23.9846 102.911C50.4676 102.817 77.1083 102.911 103.61 102.911C105.65 102.911 107.689 102.91 109.728 102.911C111.753 102.912 113.079 102.65 114.327 101.331V101.331Z" fill="#6D6D6D"/>
<path fill-rule="evenodd" clip-rule="evenodd" d="M113.584 69.2743C114.087 69.3726 114.588 69.5401 115.124 69.6862L122.664 71.7629C123.703 72.0422 124.765 72.3828 125.75 72.5747C125.91 72.3925 128.619 63.4443 128.793 62.5725C127.907 62.4407 126.561 61.9889 125.659 61.7416C124.646 61.4638 116.851 59.4438 116.626 59.1493C116.326 59.6556 115.371 63.2611 115.096 64.1886C114.843 65.0379 114.595 65.8565 114.339 66.7176C114.101 67.5155 113.728 68.5069 113.584 69.2743H113.584Z" fill="#A9A9A9"/>
<path fill-rule="evenodd" clip-rule="evenodd" d="M103.434 65.877L103.417 68.2315L103.415 86.7657L103.416 97.6145C103.419 98.2188 103.541 98.6494 103.133 98.9127C103.152 98.9264 103.187 98.9171 103.198 98.9437C103.258 99.0818 106.893 99.0125 107.004 99.0109L107.106 99.0076C107.409 97.7671 107.203 92.8294 107.203 91.1101C107.203 88.4154 107.203 85.7208 107.203 83.0262C107.203 77.7024 107.087 72.2603 107.209 66.9514L107.191 64.0288L106.382 64.6796C105.447 65.3421 104.651 65.6869 103.434 65.877L103.434 65.877Z" fill="#103754"/>
<path fill-rule="evenodd" clip-rule="evenodd" d="M47.0709 34.1514L47.0962 34.5009L86.6742 34.5001L86.6913 32.0226L86.3258 31.9849L46.998 31.9911L47.0709 34.1514Z" fill="white"/>
<path fill-rule="evenodd" clip-rule="evenodd" d="M118.519 52.5888L130.816 55.9023L132.832 49.204C132.385 49.1674 131.73 48.9426 131.296 48.8214L126.776 47.5716C125.714 47.2823 124.815 47.0374 123.752 46.748C123.104 46.5715 121.092 45.9603 120.603 45.954L118.519 52.5888H118.519Z" fill="#A9A9A9"/>
<path fill-rule="evenodd" clip-rule="evenodd" d="M66.9208 62.7881C67.3451 62.9951 70.3584 66.0161 70.9654 66.5969C72.3078 67.8815 73.6615 69.2339 75.0014 70.4245L58.9061 70.4415L66.9208 62.7881V62.7881ZM75.436 54.641L75.4658 69.9386C75.1452 69.7669 67.7914 62.7662 67.4328 62.2847L75.4359 54.641H75.436ZM58.4425 69.9386L58.4353 69.5531C58.4197 67.5934 58.3667 55.7087 58.4676 54.6326L66.4668 62.2919C66.0816 62.812 58.7955 69.749 58.4425 69.9386V69.9386ZM58.9062 54.1287H74.9647C74.755 54.5545 67.3219 61.634 66.9026 61.8294C66.2556 61.138 59.0747 54.4222 58.9062 54.1287V54.1287ZM57.8256 70.9819L76.0814 71.0161L76.0821 53.6095C75.5677 53.4669 58.3394 53.4669 57.8252 53.6095L57.8256 70.982L57.8256 70.9819Z" fill="#2CA2CE"/>
<path fill-rule="evenodd" clip-rule="evenodd" d="M45.4178 62.7202C45.895 62.9529 49.1028 66.1547 49.535 66.5683C50.1739 67.1797 53.1847 69.9009 53.4825 70.4418L37.4393 70.4413L45.4178 62.7202H45.4178ZM45.9302 62.1988L53.9382 54.5707L53.9655 69.9362L46.1865 62.5266C46.1453 62.4849 45.9322 62.2006 45.9301 62.1988H45.9302ZM36.9417 69.983L36.9234 54.5969C37.6071 54.8898 44.1744 61.6518 44.9953 62.1779C44.7771 62.6591 37.4728 69.4929 36.9417 69.983V69.983ZM37.426 54.1585L37.7734 54.1288L53.116 54.1253L53.5017 54.155L45.4492 61.8106L37.426 54.1585H37.426ZM36.3168 70.6681L36.3353 71.017L54.5725 71.0166L54.602 70.6685L54.5963 53.5485H36.3047L36.3168 70.6681L36.3168 70.6681Z" fill="#2CA2CE"/>
<path fill-rule="evenodd" clip-rule="evenodd" d="M121.099 58.9604C120.914 58.0906 121.849 58.3272 122.374 58.4754C122.958 58.6404 123.537 58.7895 124.109 58.9494C124.925 59.1775 127.24 59.6392 127.366 60.1136C127.698 61.3669 124.937 60.2762 124.348 60.1155C123.811 59.9689 121.203 59.45 121.099 58.9604L121.099 58.9604ZM120.263 57.9856C120.484 58.7151 119.946 59.0207 119.561 58.659C119.174 58.2975 119.475 57.7498 120.263 57.9856ZM121.733 56.7134C122.439 56.5501 125.52 57.5408 126.627 57.8425C127.131 57.9798 127.965 58.0445 127.878 58.6667C127.761 59.5069 126.117 58.7979 124.905 58.4689C124.1 58.2505 122.154 57.7939 121.649 57.5138C121.543 57.0455 121.557 57.0926 121.733 56.7134V56.7134ZM120.749 57.0492C120.043 57.2155 119.665 56.7625 120.038 56.3786C120.407 55.9995 121.014 56.2842 120.749 57.0492ZM124.919 55.5757C125.522 55.7414 128.063 56.3067 128.286 56.637C128.439 56.8639 128.56 57.7037 127.27 57.3234C126.684 57.1505 126.105 56.9953 125.537 56.8404C124.753 56.6265 122.614 56.1283 122.146 55.8356C121.801 54.2935 123.946 55.3078 124.919 55.5757V55.5757ZM120.49 55.2534C120.417 55.1469 120.391 55.0522 120.438 54.9058C120.553 54.5482 120.51 54.7891 120.634 54.6985C121.207 54.2813 121.56 55.0492 121.188 55.3386C120.937 55.5342 120.616 55.44 120.49 55.2534ZM116.626 59.1493C116.851 59.4438 124.646 61.4638 125.659 61.7416C126.561 61.9889 127.907 62.4407 128.793 62.5725L130.817 55.9022L118.519 52.5887L116.626 59.1493V59.1493Z" fill="#F2F1F1"/>
<path fill-rule="evenodd" clip-rule="evenodd" d="M58.9062 54.1287C59.0747 54.4221 66.2556 61.1379 66.9026 61.8293C67.322 61.6339 74.755 54.5544 74.9647 54.1287H58.9062V54.1287Z" fill="#5CB2CC"/>
<path fill-rule="evenodd" clip-rule="evenodd" d="M36.9422 69.9829C37.4733 69.4928 44.7776 62.659 44.9958 62.1778C44.1749 61.6517 37.6075 54.8897 36.9238 54.5968L36.9422 69.9829Z" fill="#5CB2CC"/>
<path fill-rule="evenodd" clip-rule="evenodd" d="M37.4395 70.4412L53.4827 70.4417C53.1849 69.9008 50.174 67.1796 49.5351 66.5682C49.1029 66.1547 45.8951 62.9529 45.418 62.7201L37.4395 70.4412H37.4395Z" fill="#5CB2CC"/>
<path fill-rule="evenodd" clip-rule="evenodd" d="M79.9403 69.9362V54.5969L87.9593 62.2145C87.8454 62.4392 80.481 69.5515 79.9403 69.9362V69.9362ZM80.4042 54.155L80.7898 54.1253L96.1325 54.1288L96.4799 54.1585L88.4568 61.8107L80.4042 54.155H80.4042ZM87.1898 71.0255L87.418 70.603C87.118 70.1319 87.7788 70.695 87.2669 70.5094C86.8196 70.3473 80.894 70.4418 80.4234 70.4418C80.6845 69.9676 85.3391 65.6419 86.3615 64.6635C86.7251 64.3156 87.0175 64.0357 87.3811 63.6879C87.7295 63.3545 88.0327 62.943 88.4613 62.7459L94.1899 68.2311C94.3807 68.3629 94.8867 68.5583 95.1057 68.6752C95.5262 68.8997 95.6964 69.13 96.0664 69.2224C96.1158 69.0909 95.9809 69.0525 95.786 68.8705C94.7327 67.8873 89.1292 62.6601 88.9105 62.1779C89.7265 61.655 96.2982 54.8901 96.9822 54.5969L96.8666 69.9881C96.9627 70.3074 97.3356 70.7161 97.5538 71.0517L97.5895 53.5485H79.3213L79.3105 71.0167L87.1898 71.0255H87.1898Z" fill="#2CA2CE"/>
<path fill-rule="evenodd" clip-rule="evenodd" d="M58.4423 69.9386C58.7953 69.749 66.0813 62.812 66.4665 62.2919L58.4674 54.6326C58.3665 55.7087 58.4195 67.5934 58.435 69.5531L58.4423 69.9386V69.9386Z" fill="#5CB2CC"/>
<path fill-rule="evenodd" clip-rule="evenodd" d="M96.067 69.2223C96.2774 69.5892 96.4837 69.7865 96.8672 69.988L96.9828 54.5968C96.2988 54.89 89.7272 61.6549 88.9111 62.1778C89.1299 62.66 94.7333 67.8872 95.7866 68.8704C95.9815 69.0524 96.1165 69.0908 96.067 69.2223Z" fill="#5CB2CC"/>
<path fill-rule="evenodd" clip-rule="evenodd" d="M79.9414 69.9361C80.4821 69.5514 87.8465 62.4391 87.9604 62.2144L79.9414 54.5968V69.9361V69.9361Z" fill="#5CB2CC"/>
<path fill-rule="evenodd" clip-rule="evenodd" d="M88.4579 61.8107L96.481 54.1585L96.1335 54.1288L80.7909 54.1252L80.4053 54.155L88.4579 61.8107Z" fill="#5CB2CC"/>
<path fill-rule="evenodd" clip-rule="evenodd" d="M45.449 61.8106L53.5015 54.155L53.1158 54.1252L37.7732 54.1288L37.4258 54.1585L45.449 61.8106Z" fill="#5CB2CC"/>
<path fill-rule="evenodd" clip-rule="evenodd" d="M67.4326 62.2847C67.7912 62.7662 75.145 69.7669 75.4655 69.9387L75.4357 54.641L67.4326 62.2847H67.4326Z" fill="#5CB2CC"/>
<path fill-rule="evenodd" clip-rule="evenodd" d="M45.9307 62.1988C45.9327 62.2006 46.1459 62.4849 46.187 62.5266L53.966 69.9362L53.9387 54.5707L45.9307 62.1988H45.9307Z" fill="#5CB2CC"/>
<path fill-rule="evenodd" clip-rule="evenodd" d="M58.9062 70.4416L75.0016 70.4246C73.6617 69.2339 72.308 67.8816 70.9656 66.597C70.3586 66.0162 67.3453 62.9952 66.921 62.7882L58.9062 70.4416V70.4416Z" fill="#5CB2CC"/>
<path fill-rule="evenodd" clip-rule="evenodd" d="M16.507 84.2341C14.1236 84.2341 12.2345 82.2431 12.2345 80.7032C12.2345 79.1238 12.2566 78.3991 13.6158 77.1004C13.8898 76.8387 14.3987 76.5271 14.7971 76.3723C18.6041 74.893 21.8691 78.7935 20.296 81.82C19.7842 82.8045 19.2959 83.3545 18.225 83.8338C17.8225 84.014 17.0464 84.2341 16.5071 84.2341L16.507 84.2341ZM10.875 80.0528C10.875 84.4652 16.1744 86.9277 19.5694 84.4698C20.04 84.1291 20.0213 84.2276 20.7789 84.2334C21.6845 84.2403 22.5927 84.234 23.4986 84.2341C24.3701 84.2342 25.6349 84.4021 25.6349 83.5837C25.6349 82.8203 24.597 82.9323 23.7899 82.9332C22.916 82.9343 22.042 82.9333 21.168 82.9333L21.7507 81.6324C22.4951 81.6324 23.2397 81.6314 23.9841 81.6324C24.9814 81.6339 25.4337 81.8082 25.6349 80.982C25.4627 80.6706 25.3598 80.4245 24.858 80.4245H21.9449C21.9449 79.6633 22.0023 79.7583 21.8478 79.1236C22.5922 79.1236 23.3372 79.1208 24.0815 79.1239C24.8433 79.1271 25.6349 79.1785 25.6349 78.4732C25.6349 77.7503 24.6355 77.9153 23.887 77.9157C23.0778 77.9162 22.2686 77.9157 21.4594 77.9157C20.9857 77.0591 20.9138 77.1299 20.4883 76.522C20.9205 76.522 24.8176 76.6305 25.2464 76.429C25.4344 76.3639 25.4878 76.3689 25.583 76.0902C25.8002 75.4544 25.0739 75.3061 24.4737 75.3101L18.9305 75.3179C18.2638 75.2852 16.5761 74.2453 14.1104 75.3436C12.2477 76.1733 10.875 78.1066 10.875 80.0528H10.875Z" fill="#F3901C"/>
<path fill-rule="evenodd" clip-rule="evenodd" d="M87.4194 70.6028C87.7489 70.1603 87.9007 69.8699 88.2988 69.4887C88.5928 69.2073 89.0838 68.7883 89.5522 68.6013C90.0721 68.2725 90.8488 68.0349 91.5692 67.9669C92.7247 67.8576 93.2194 68.0693 94.1913 68.231L88.4627 62.7457C88.0341 62.9428 87.7309 63.3544 87.3826 63.6877C87.019 64.0356 86.7265 64.3155 86.363 64.6633C85.3405 65.6417 80.6859 69.9674 80.4248 70.4417C80.8955 70.4417 86.821 70.3471 87.2683 70.5093C87.7802 70.6949 87.1194 70.1317 87.4194 70.6028L87.4194 70.6028Z" fill="#5CB2CC"/>
<path fill-rule="evenodd" clip-rule="evenodd" d="M83.51 106.441C83.5416 105.943 83.4368 105.846 83.8985 105.782C84.005 106.026 83.9491 106.134 83.9323 106.463C84.4073 106.528 84.9149 106.644 84.9681 107.092C84.5537 107.481 84.5079 107.128 83.8923 106.985L83.7789 108.608C84.7321 108.803 85.5394 109.354 85.0257 110.49C84.5157 111.618 83.7785 110.973 83.5694 111.588C83.4321 111.992 83.7525 112.011 83.2187 112.109L83.1242 111.74C83.1205 111.676 83.1418 111.431 83.144 111.345C82.5132 111.3 82.1021 111.081 81.809 110.716C81.9245 110.528 81.8942 110.531 82.0425 110.365C82.588 110.474 82.5673 110.754 83.194 110.807L83.3117 109.136C82.7263 108.675 81.9182 108.814 82.0105 107.648C82.0716 106.877 82.7217 106.474 83.51 106.441L83.51 106.441ZM82.8026 104.906C80.6326 105.238 78.882 107.118 79.2247 109.517C79.5231 111.607 81.5427 113.38 84.1468 112.999C86.2974 112.685 88.0626 110.747 87.7131 108.366C87.4049 106.266 85.3444 104.516 82.8026 104.906V104.906Z" fill="#FEC011"/>
<path fill-rule="evenodd" clip-rule="evenodd" d="M92.8538 73.4635C91.8604 73.6524 91.3468 73.6457 90.9156 72.9665C90.4669 72.2599 90.6396 71.5513 91.1953 71.1673C91.0696 70.8989 90.7074 70.5179 91.0358 70.3714C91.2394 70.2806 91.3877 70.6788 91.5692 70.8556C91.7732 70.7908 91.917 70.7325 92.1551 70.7175C92.4437 70.6994 92.5807 70.7318 92.7318 70.854C92.7218 71.4021 92.5079 71.2183 91.9235 71.3264C92.0645 71.7451 92.6091 72.4146 92.8498 72.7827C93.7686 72.5816 94.3041 72.5421 94.8017 73.2414C95.3173 73.966 95.1623 74.7866 94.5824 75.2075C94.7022 75.4837 95.1669 75.93 94.8017 76.0893C94.5594 76.195 94.5805 75.8586 94.1911 75.5328C93.7804 75.7115 93.2934 75.8302 92.7858 75.6366C92.7128 74.7437 93.1705 75.3957 93.7838 75.0412C93.8625 74.9638 93.8811 74.9712 93.6485 74.639C93.5257 74.4636 93.4879 74.4131 93.3715 74.2407C93.2004 73.9872 92.9911 73.7124 92.8538 73.4635L92.8538 73.4635ZM88.6797 72.7123C88.6797 75.1819 90.8675 77.4285 93.4143 77.4285C95.9489 77.4285 97.5548 75.194 96.926 72.79C95.6418 67.8799 88.6797 67.9403 88.6797 72.7123Z" fill="#FEC011"/>
<path fill-rule="evenodd" clip-rule="evenodd" d="M132.832 49.204L130.816 55.9022L128.793 62.5725C128.618 63.4444 125.91 72.3925 125.75 72.5747C125.722 72.9649 125.636 73.0317 125.556 73.3627C126.127 73.4082 126.602 73.7215 127.206 73.7344C127.231 73.4453 127.294 73.292 127.409 73.084C127.453 72.215 128.542 69.0916 128.871 67.9893C129.129 67.1247 129.39 66.2945 129.634 65.4639C129.844 64.749 130.108 63.6311 130.394 62.9969L132.361 56.3646L134.368 49.6686C134.473 49.384 134.558 49.2531 134.586 48.9253C134.086 48.8138 133.463 48.5649 132.936 48.5536C132.926 48.9518 132.873 48.8506 132.832 49.204L132.832 49.204Z" fill="#EEA738"/>
<path fill-rule="evenodd" clip-rule="evenodd" d="M105.819 31.5705L118.016 35.1665L118.925 32.2929C118.72 32.1539 107.514 28.7744 106.739 28.6506L105.819 31.5705V31.5705Z" fill="#6D6D6D"/>
<path fill-rule="evenodd" clip-rule="evenodd" d="M104.678 58.009C105.013 57.7712 105.043 57.3883 105.532 57.6906L104.973 58.2035C105.133 58.6331 105.811 59.5157 104.873 59.5905C104.717 59.3427 104.72 58.995 104.543 58.7036L103.207 59.9824C103.368 60.878 103.655 61.0577 102.96 61.7758C102.418 62.3348 101.881 62.3669 101.086 62.0488C100.741 62.3616 100.695 62.514 100.382 62.263L100.817 61.8754C100.709 61.4761 100.369 61.1109 100.697 60.7278C101.308 60.6879 100.861 60.82 101.309 61.3285L102.509 60.1578C101.637 58.1958 103.656 57.4341 104.678 58.009V58.009ZM103.431 56.1437C101.306 56.4811 99.7155 58.0998 99.1594 59.9064C98.4245 62.2941 100.001 64.3113 102.576 63.9095C104.6 63.5937 106.303 61.8735 106.797 60.148C107.48 57.7588 105.995 55.7365 103.431 56.1436L103.431 56.1437Z" fill="#FEC011"/>
<path fill-rule="evenodd" clip-rule="evenodd" d="M57.2031 14.4067L76.6759 14.4066L76.7115 12.4315L57.1943 12.4314L57.2031 14.4067Z" fill="#2C5870"/>
<path fill-rule="evenodd" clip-rule="evenodd" d="M88.6792 72.7123C88.6792 67.9403 95.6413 67.88 96.9255 72.79C97.5543 75.194 95.9484 77.4285 93.4138 77.4285C90.867 77.4285 88.6792 75.182 88.6792 72.7123ZM89.5509 68.6014C89.6238 68.8679 88.9875 68.9308 88.3123 69.9688C85.4696 74.3394 90.954 80.3002 95.6469 78.1013C96.0049 77.9336 96.2351 77.7187 96.5809 77.5827C97.7054 76.9777 98.2514 75.1026 98.2396 73.4005C98.1234 72.2438 97.8171 71.9516 97.554 71.0517C97.3358 70.7161 96.9629 70.3074 96.8668 69.9881C96.4833 69.7866 96.277 69.5893 96.0666 69.2224C95.6966 69.1299 95.5264 68.8996 95.1059 68.6752C94.8869 68.5583 94.3809 68.3629 94.1901 68.2311C93.2181 68.0694 92.7235 67.8577 91.568 67.967C90.8476 68.0351 90.0709 68.2726 89.5509 68.6014L89.5509 68.6014Z" fill="#F6871F"/>
<path fill-rule="evenodd" clip-rule="evenodd" d="M135.456 57.2801L133.52 63.8871C133.358 64.7286 132.934 65.8773 132.663 66.784C132.216 68.284 131.517 71.3578 130.524 72.1673C129.886 72.6876 128.869 73.1487 127.692 73.0423C127.87 73.1982 127.664 73.0576 127.893 73.1621C128.353 73.3714 129.22 73.5016 129.72 73.4467C130.976 73.3085 132.009 72.5658 132.606 71.5606C132.938 71.0024 136.99 57.1717 137.534 55.3689C137.956 53.9697 138.329 52.9595 137.533 51.5885C136.961 50.6034 135.697 49.8514 134.592 49.7615C135.288 50.324 136.773 50.9553 136.671 53.0719C136.64 53.7122 135.741 56.907 135.456 57.2801V57.2801Z" fill="#6D6D6D"/>
<path fill-rule="evenodd" clip-rule="evenodd" d="M40.8809 39.8194H92.8797V39.1689H40.8809V39.8194Z" fill="white"/>
<path fill-rule="evenodd" clip-rule="evenodd" d="M82.8027 104.906C85.3445 104.516 87.405 106.266 87.7132 108.366C88.0628 110.747 86.2975 112.685 84.147 112.999C81.5428 113.38 79.5233 111.607 79.2248 109.517C78.8821 107.118 80.6327 105.238 82.8027 104.906V104.906ZM78.116 109.879C78.5931 112.398 81.1499 114.616 84.3918 114.075C87.0739 113.628 89.3894 111.226 88.8227 108.045C88.3675 105.488 85.7594 103.272 82.5301 103.825C79.8687 104.281 77.5156 106.71 78.116 109.879H78.116Z" fill="#F6871F"/>
<path fill-rule="evenodd" clip-rule="evenodd" d="M127.41 73.0839L127.693 73.0423C128.87 73.1487 129.887 72.6876 130.525 72.1673C131.517 71.3579 132.217 68.284 132.664 66.784C132.934 65.8774 133.359 64.7287 133.52 63.8872L130.395 62.9968C130.109 63.6311 129.845 64.749 129.635 65.4639C129.391 66.2945 129.13 67.1247 128.872 67.9893C128.543 69.0915 127.454 72.215 127.41 73.0839V73.0839Z" fill="#A9A9A9"/>
<path fill-rule="evenodd" clip-rule="evenodd" d="M42.8553 37.5515L90.9046 37.5665L90.9382 37.4035L90.9375 37.2176V36.9156L42.8467 36.916L42.8553 37.5515Z" fill="white"/>
<path fill-rule="evenodd" clip-rule="evenodd" d="M103.431 56.1438C105.995 55.7366 107.48 57.7589 106.797 60.1481C106.303 61.8737 104.6 63.5938 102.576 63.9097C100.001 64.3114 98.4244 62.2942 99.1593 59.9066C99.7154 58.0999 101.306 56.4812 103.431 56.1438L103.431 56.1438ZM103.388 55.2573C102.841 55.463 102.465 55.4891 101.9 55.745C99.1471 56.9924 97.3163 60.1318 98.2467 62.8869C98.413 63.3795 98.7136 63.7419 98.8438 64.1262H98.9288L99.576 64.5855C103.196 67.0218 109.504 62.0217 107.94 57.5116C107.714 56.8613 107.557 56.7163 107.169 56.2853C106.796 55.8699 106.942 56.1234 107.012 55.9749C106.013 55.1684 104.839 55.1765 103.388 55.2573L103.388 55.2573Z" fill="#F6871F"/>
<path fill-rule="evenodd" clip-rule="evenodd" d="M113.806 10.65L108.636 9.64386C106.882 9.30456 105.11 9.06951 103.416 8.69177L103.419 14.1562L113.806 10.65H113.806Z" fill="#6D6D6D"/>
<path fill-rule="evenodd" clip-rule="evenodd" d="M47.2588 42.0722L86.4963 42.072L86.4878 41.4365L47.2987 41.4215L47.2588 42.0722Z" fill="white"/>
<path fill-rule="evenodd" clip-rule="evenodd" d="M113.583 69.2742C113.727 68.5069 114.1 67.5154 114.338 66.7175C114.594 65.8564 114.842 65.0379 115.095 64.1886C115.37 63.2611 116.325 59.6555 116.625 59.1492L118.518 52.5887L120.603 45.9539C120.59 45.4147 120.504 45.4969 120.117 45.3014C119.492 45.6181 119.589 45.826 119.374 46.5416L112.987 67.8403C112.806 68.4476 112.585 68.8339 112.737 69.46C113.023 69.5237 113.034 69.553 113.417 69.553C113.514 69.4195 113.524 69.3917 113.583 69.2742V69.2742Z" fill="#6D6D6D"/>
<path fill-rule="evenodd" clip-rule="evenodd" d="M130.395 62.9969L133.52 63.8872L135.456 57.2802C135.107 56.9801 132.992 56.4962 132.362 56.3646L130.395 62.9969V62.9969Z" fill="#F2F1F1"/>
<path fill-rule="evenodd" clip-rule="evenodd" d="M96.5808 77.5826L96.4855 77.7999L97.23 77.7997L97.2013 78.4514L95.5897 78.4506C93.2015 79.488 92.2561 79.2977 89.9087 78.4456L88.332 78.46C88.5127 78.8779 88.7542 79.0618 88.9416 79.3979L89.0355 79.4005L93.6078 79.4023V80.0531L89.7323 80.0497C91.3359 81.7022 94.6516 82.0097 97.019 80.2525C99.591 78.3434 99.307 74.3892 98.2395 73.4004C98.2513 75.1025 97.7053 76.9776 96.5808 77.5826L96.5808 77.5826Z" fill="#CECECE"/>
<path fill-rule="evenodd" clip-rule="evenodd" d="M16.5074 81.6325V80.5175C16.6607 80.595 17.09 80.7949 17.09 80.982C17.09 81.423 16.8848 81.5484 16.5074 81.6325ZM16.119 78.752V79.5882C15.8245 79.5226 15.712 79.5355 15.6785 79.203C15.6455 78.8755 15.7459 78.7817 16.119 78.752ZM16.119 77.8229V78.1016C15.6815 78.1109 15.504 78.1815 15.2602 78.3949C14.6751 78.9069 14.5722 80.0797 16.119 80.4245V81.6325C15.7815 81.4616 15.8161 81.4841 15.6532 81.149C15.1108 80.0338 14.2278 81.1972 15.224 81.9313C15.4538 82.1007 15.8074 82.2135 16.119 82.2829V82.9333C14.7287 82.9333 13.4971 81.5341 13.4971 80.4245V79.96C13.4971 78.4736 14.9638 77.241 16.499 77.2819C19.0593 77.35 20.3199 80.2528 18.6696 82.0289C18.1508 82.5873 17.3958 82.9333 16.5074 82.9333V82.2829C18.61 81.8142 18.0346 79.8957 16.5074 79.7741V78.752C17.2265 78.9358 16.6129 79.4024 17.3814 79.4024C17.9749 79.4024 17.7273 78.1276 16.5074 78.1016C16.5074 77.4933 16.5189 77.6883 16.3132 77.5441C16.1495 77.6529 16.119 77.5574 16.119 77.8228V77.8229ZM12.8174 79.7741C12.8174 81.0605 12.9441 81.7194 14.0044 82.7267C16.1398 84.7552 20.1003 83.2142 20.1003 80.1458C20.1003 76.5888 15.0437 75.2603 13.2229 78.4897C13.0538 78.7898 12.8174 79.3539 12.8174 79.7741H12.8174Z" fill="#F3901C"/>
<path fill-rule="evenodd" clip-rule="evenodd" d="M132.361 56.3646C132.991 56.4962 135.106 56.9801 135.456 57.2801C135.741 56.907 136.64 53.7123 136.67 53.072C136.772 50.9554 135.287 50.3241 134.591 49.7615L134.368 49.6686L132.361 56.3646V56.3646Z" fill="#A9A9A9"/>
<path fill-rule="evenodd" clip-rule="evenodd" d="M115.166 75.4998C115.166 76.2574 114.716 77.1569 114.319 77.5695C113.018 78.9203 110.366 78.774 109.369 76.7726C108.797 75.6226 109.194 74.2822 109.908 73.5343C111.668 71.6898 115.166 72.9717 115.166 75.4998V75.4998ZM108.175 75.3139C108.175 76.5379 108.414 77.3468 109.264 78.1739C111.305 80.1585 114.615 79.4011 115.652 77.2657C116.845 74.8084 115.35 71.7831 111.865 71.7831C109.994 71.7831 108.175 73.5129 108.175 75.3139L108.175 75.3139Z" fill="#F3901C"/>
<path fill-rule="evenodd" clip-rule="evenodd" d="M14.2744 52.6423L26.707 64.5354C26.7139 62.8579 26.8988 63.1602 25.9657 62.2683L21.3047 57.8083C19.6983 56.2711 16.5135 53.3471 15.172 51.9335C14.8512 52.1581 14.6748 52.4978 14.2744 52.6423H14.2744Z" fill="#A9A9A9"/>
<path fill-rule="evenodd" clip-rule="evenodd" d="M15.1719 51.9335C16.5134 53.3472 19.6981 56.2711 21.3045 57.8083L25.9656 62.2683C26.8987 63.1602 26.7137 62.8579 26.7069 64.5355L26.7036 64.6284C26.7162 64.6085 26.7285 64.5519 26.7315 64.5638L26.7036 61.3763C26.2664 61.0961 19.3505 54.3866 18.6197 53.6873C18.1994 53.2852 16.2217 51.269 15.8689 51.1553C15.6808 51.4975 15.4329 51.6241 15.1719 51.9336L15.1719 51.9335Z" fill="#6D6D6D"/>
<path fill-rule="evenodd" clip-rule="evenodd" d="M26.9277 98.9853C27.2379 99.2348 30.4297 99.0964 30.879 99.0964L59.9926 99.1151C60.0082 100.254 61.1244 99.9574 63.0205 99.9574L72.8319 99.9601C73.6911 99.9483 73.9611 99.8846 73.9659 99.0964C84.5506 99.0964 95.4622 99.0153 106.039 99.0972C106.188 99.0984 106.387 99.108 106.53 99.1026C106.632 99.0987 106.694 99.0978 106.794 99.0794C107.112 99.021 106.869 99.088 107.004 99.0109C106.893 99.0125 103.258 99.0818 103.198 98.9437C103.186 98.9171 103.152 98.9264 103.133 98.9127C102.379 99.1002 31.5273 99.1002 30.7737 98.9127C30.623 99.0174 30.8162 98.9392 30.5662 98.9941C30.4627 99.0169 30.4102 99.0169 30.3037 99.0217L26.9277 98.9853V98.9853Z" fill="#6D6D6D"/>
<path fill-rule="evenodd" clip-rule="evenodd" d="M78.1156 109.879C77.5152 106.71 79.8682 104.281 82.5297 103.825C85.7589 103.272 88.3671 105.489 88.8223 108.045C89.389 111.227 87.0734 113.628 84.3914 114.075C81.1495 114.616 78.5926 112.398 78.1156 109.879H78.1156ZM79.768 104.862C79.6352 105.073 79.606 105.069 79.4647 105.251C77.8238 105.233 74.957 105.069 73.8905 106.068C72.4015 107.463 76.7222 107.947 77.919 107.95L77.9049 108.42C77.8736 109.139 77.843 109.449 78.0051 110.136L78.1867 110.827C78.408 111.157 78.618 111.594 78.7692 111.927C79.0078 112.205 79.2078 112.435 79.456 112.717C79.6875 112.86 79.7789 113.012 80.0422 113.199C80.2552 113.35 80.4955 113.458 80.622 113.683C81.1593 113.728 81.6006 114.192 83.0733 114.302C87.0599 114.601 88.3343 111.382 88.7533 110.916C89.0733 109.505 89.4305 108.91 88.7927 107.147C88.3948 106.048 87.6327 105.182 86.7444 104.554C84.7117 103.118 81.5015 103.269 79.768 104.862H79.768Z" fill="#FCBE0F"/>
<path fill-rule="evenodd" clip-rule="evenodd" d="M1.18555 58.3127L2.62546 69.7507L3.88421 69.6239C3.88421 68.791 3.33822 65.0854 3.18668 63.9021L2.62184 59.7037C2.5685 59.2448 2.43717 58.6387 2.42762 58.1995L1.18555 58.3127V58.3127Z" fill="#BC3142"/>
<path fill-rule="evenodd" clip-rule="evenodd" d="M127.812 43.085L128.858 43.6359C129.083 43.3746 129.418 42.7473 129.603 42.3903C129.853 41.9067 130.053 41.5397 130.31 41.1161L131.706 38.5495C131.96 38.0621 132.177 37.7461 132.42 37.2808C132.659 36.8218 132.841 36.4214 133.099 35.98C133.366 35.5246 133.571 35.1684 133.81 34.7088L134.49 33.4186L133.396 32.9674C133.117 33.2427 129.68 39.6325 129.157 40.5642C128.742 41.3055 128.161 42.287 127.812 43.085V43.085Z" fill="#BC3142"/>
<path fill-rule="evenodd" clip-rule="evenodd" d="M78.6546 113.945L79.2856 113.881C78.7259 113.88 78.3141 113.273 78.1233 112.844L78.0928 112.862C76.7714 112.719 75.919 112.804 74.607 112.452C73.675 112.201 72.5828 111.799 72.3904 110.942C73.7581 111.914 75.7163 111.922 77.6873 112.029L77.4436 110.886L77.4463 110.896C76.1522 110.829 75.1701 110.817 73.9526 110.476C73.4606 110.339 72.9352 110.124 72.5845 109.926C71.9909 109.59 72.0706 109.31 71.6631 108.906C71.6631 111.597 72.2368 109.965 72.2524 111.267C72.2633 112.168 72.2603 112.569 73.3782 113.163C74.5605 113.791 76.6994 114.127 78.6546 113.945L78.6546 113.945Z" fill="#FEC011"/>
<path fill-rule="evenodd" clip-rule="evenodd" d="M126.722 42.6044L127.813 43.085C128.161 42.287 128.742 41.3054 129.157 40.5641C129.68 39.6325 133.117 33.2426 133.396 32.9673C133.147 32.7065 132.679 32.5114 132.354 32.3881C132.052 32.595 129.189 37.9754 128.793 38.7353C128.443 39.4086 126.827 42.1755 126.722 42.6044V42.6044Z" fill="#EE3C4A"/>
<path fill-rule="evenodd" clip-rule="evenodd" d="M0 58.4576C0 59.5467 0.877386 65.3721 1.07629 67.0365L1.45655 69.8915L2.62546 69.7508L1.18554 58.3127L0 58.4576L0 58.4576Z" fill="#EE3C4A"/>
<path fill-rule="evenodd" clip-rule="evenodd" d="M98.9287 64.1261C99.5975 65.2197 101.41 66.1704 103.434 65.877C104.651 65.6869 105.447 65.342 106.382 64.6796L107.191 64.0288C108.236 62.7308 109.024 61.8062 109.024 59.5179C109.089 58.8798 108.736 57.8623 108.487 57.4533C108.053 56.7419 107.882 56.5381 107.203 56.0437L107.012 55.9749C106.942 56.1233 106.796 55.8698 107.169 56.2853C107.557 56.7162 107.714 56.8612 107.94 57.5116C109.504 62.0217 103.196 67.0217 99.576 64.5854L98.9287 64.1261L98.9287 64.1261Z" fill="#FEC011"/>
<path fill-rule="evenodd" clip-rule="evenodd" d="M103.389 55.2573C104.839 55.1765 106.013 55.1684 107.012 55.9749L107.203 56.0438C107.203 55.4055 107.201 54.7667 107.204 54.1284C107.207 53.2763 107.21 52.9742 106.789 52.4806C105.973 51.522 105.111 51.7129 103.416 51.7129L103.389 55.2573V55.2573Z" fill="#103754"/>
<path fill-rule="evenodd" clip-rule="evenodd" d="M87.4188 70.6029L87.1907 71.0255C86.9901 71.6567 86.8516 72.0548 86.7344 72.7824L86.761 73.9202L86.884 74.5484L87.0548 75.1889C87.2023 75.4636 87.4036 75.8706 87.5025 76.1781L87.5579 76.3289C87.6382 76.3969 87.6487 76.3971 87.7282 76.4827C87.9536 76.7254 87.5206 76.2362 87.8149 76.591C87.9542 76.7589 87.8357 76.6431 87.9732 76.7807C88.3679 77.2991 88.5182 77.3956 88.9312 77.8058C89.1384 77.9116 89.7053 78.2894 89.9095 78.4456C92.2568 79.2977 93.2023 79.488 95.5905 78.4507C95.8791 78.1848 96.1881 78.0496 96.4863 77.8L96.5816 77.5827C96.2358 77.7187 96.0055 77.9335 95.6475 78.1013C90.9547 80.3001 85.4702 74.3394 88.313 69.9688C88.9881 68.9308 89.6245 68.8678 89.5516 68.6013C89.0832 68.7884 88.5922 69.2074 88.2982 69.4888C87.9001 69.87 87.7483 70.1603 87.4188 70.6029L87.4188 70.6029Z" fill="#FEC011"/>
<path fill-rule="evenodd" clip-rule="evenodd" d="M58.2538 75.2078C59.2964 75.2945 75.4957 75.1972 75.7051 75.1766L75.7174 74.5483L57.8242 74.5476V75.0353C58.0187 75.1576 57.5562 75.1498 58.2538 75.2079V75.2078Z" fill="#5CB2CC"/>
<path fill-rule="evenodd" clip-rule="evenodd" d="M58.2538 78.4599C59.2964 78.5466 75.4957 78.4492 75.7051 78.4286L75.7174 77.8004L57.8242 77.7997V78.2873C58.0187 78.4097 57.5562 78.4019 58.2538 78.4599V78.4599Z" fill="#5CB2CC"/>
<path fill-rule="evenodd" clip-rule="evenodd" d="M112.252 76.6148V75.8714C112.403 75.9683 112.544 75.9946 112.544 76.2431C112.544 76.5289 112.367 76.507 112.252 76.6148ZM111.572 74.8493C111.572 74.5923 111.647 74.6258 111.864 74.5706V75.1281C111.647 75.0727 111.572 75.1064 111.572 74.8493V74.8493ZM111.864 74.106C111.31 74.1178 110.99 74.3903 110.99 74.9422C110.99 75.5813 111.426 75.5776 111.864 75.7785V76.5218C111.293 76.3761 111.849 76.3285 111.281 75.9643C110.811 76.0835 110.85 76.4174 111.15 76.7367C111.653 77.2709 111.864 76.7055 111.864 77.544C109.443 77.3512 109.222 73.5485 112.252 73.5485C114.805 73.5485 114.824 77.544 112.252 77.544C112.252 76.8833 112.238 77.174 112.737 76.8927C113.151 76.6593 113.57 75.6077 112.252 75.3139L112.33 74.6819C112.602 75.0617 112.479 75.0352 112.738 75.0352C113.312 75.0352 113.059 74.1703 112.252 74.106C112.222 73.7641 112.221 73.7628 111.864 73.7343V74.106ZM112.349 73.0839C111.327 73.0839 110.949 73.1388 110.186 73.8943C108.598 75.4682 109.893 78.0245 112.066 78.0865C113.448 78.126 114.596 77.0072 114.741 75.7429C114.893 74.4223 113.647 73.0839 112.349 73.0839V73.0839Z" fill="#F3901C"/>
<path fill-rule="evenodd" clip-rule="evenodd" d="M36.2686 78.4504L54.1953 78.4506L54.2814 77.7997L36.312 77.7998L36.2686 78.4504Z" fill="#5CB2CC"/>
<path fill-rule="evenodd" clip-rule="evenodd" d="M36.3174 92.9684H54.2133V92.318H36.3174V92.9684Z" fill="#FF8B00"/>
<path fill-rule="evenodd" clip-rule="evenodd" d="M36.3166 75.1983L54.1949 75.1986L54.1839 74.5476L36.3115 74.5477L36.3166 75.1983Z" fill="#5CB2CC"/>
<path fill-rule="evenodd" clip-rule="evenodd" d="M57.5596 73.9203L67.3912 73.9249L67.7552 73.8971L67.7556 72.8036L67.3909 72.7825H57.5596V73.9203Z" fill="#2CA2CE"/>
<path fill-rule="evenodd" clip-rule="evenodd" d="M36.0742 73.9176L46.246 73.9201L46.2464 72.7823L36.4124 72.7703L36.0743 72.8434L36.0742 73.9176Z" fill="#2CA2CE"/>
<path fill-rule="evenodd" clip-rule="evenodd" d="M16.9938 74.0132H24.8593C25.6426 74.0132 25.7144 73.4417 25.4419 72.8982C24.4472 72.6764 18.3934 72.8053 16.8967 72.8053C15.9419 72.8053 16.1065 74.0132 16.9938 74.0132V74.0132Z" fill="#F3901C"/>
<path fill-rule="evenodd" clip-rule="evenodd" d="M80.6218 113.684L79.2853 113.88L78.6543 113.945C79.1133 114.645 81.0554 114.835 81.8991 114.951C83.6114 115.188 87.4338 114.544 88.7316 113.39C89.6092 112.609 90.0675 111.634 88.7532 110.916C88.3342 111.382 87.0597 114.601 83.0732 114.302C81.6004 114.192 81.1592 113.728 80.6218 113.683L80.6218 113.684Z" fill="#CECECE"/>
<path fill-rule="evenodd" clip-rule="evenodd" d="M36.3174 94.1764H52.2425L52.6049 94.1571L52.6044 93.5513L52.2429 93.5209L36.3174 93.5259V94.1764Z" fill="#FF8B00"/>
<path fill-rule="evenodd" clip-rule="evenodd" d="M36.2207 76.8236L52.2431 76.8282L52.6121 76.8007L52.5845 76.1737L36.336 76.1726L36.3177 76.5218V76.8236H36.2207Z" fill="#5CB2CC"/>
<path fill-rule="evenodd" clip-rule="evenodd" d="M74.1188 76.5216L74.0959 76.1726L74.2841 76.1729L57.8664 76.1727L57.8237 76.336V76.5218L57.7764 76.8236H74.1141L74.1188 76.5216Z" fill="#5CB2CC"/>
<path fill-rule="evenodd" clip-rule="evenodd" d="M111.378 88.973H110.893C108.265 88.973 108.322 84.8846 110.99 84.8846C112.785 84.8846 113.918 86.8507 112.701 88.2878C112.498 88.5279 111.776 88.973 111.378 88.973ZM110.893 89.6234C111.971 89.6234 112.296 89.5508 113.104 88.766C114.964 86.9601 113.293 84.2341 111.087 84.2341C107.323 84.2341 107.416 89.6234 110.892 89.6234H110.893Z" fill="#F3901C"/>
<path fill-rule="evenodd" clip-rule="evenodd" d="M72.4395 107.047C72.9256 107.556 72.523 107.518 73.2567 107.983C73.6552 108.235 73.9625 108.36 74.4467 108.519C75.428 108.842 76.4905 108.949 77.6061 108.994C77.6311 108.915 77.6681 108.752 77.6925 108.704C77.8489 108.395 77.7757 108.552 77.9046 108.42L77.9186 107.95C76.7219 107.947 72.4012 107.463 73.8902 106.068C74.9567 105.069 77.8235 105.233 79.4643 105.251C79.6057 105.069 79.6349 105.073 79.7677 104.862C79.5019 104.766 77.9319 104.645 77.4943 104.681C76.7817 104.739 75.9296 104.816 75.273 104.972C74.6851 105.111 73.9046 105.332 73.4268 105.621C72.8815 105.951 72.4395 106.207 72.4395 107.047V107.047Z" fill="#F6871F"/>
<path fill-rule="evenodd" clip-rule="evenodd" d="M72.3421 80.0519L72.101 80.008L72.1026 79.4351L71.7595 79.4023L58.1637 79.3934L57.8232 79.4472V80.008L57.9706 80.0519H72.3421Z" fill="#5CB2CC"/>
<path fill-rule="evenodd" clip-rule="evenodd" d="M36.3174 80.0528H50.4946H50.6159L50.5917 79.4023H36.3174V80.0528Z" fill="#5CB2CC"/>
<path fill-rule="evenodd" clip-rule="evenodd" d="M107.191 64.0288L107.209 66.9514C107.57 66.7108 108.272 65.9979 108.551 65.6392C109.348 64.6132 110.005 62.9189 109.802 61.4913C109.764 61.2275 109.634 60.6791 109.548 60.4336L109.208 59.7354C109.192 59.7118 109.138 59.6426 109.122 59.6232C109.11 59.6084 109.084 59.5819 109.074 59.5702C109.064 59.5583 109.042 59.5342 109.024 59.5179C109.024 61.8063 108.236 62.7308 107.191 64.0288L107.191 64.0288Z" fill="#CECECE"/>
<path fill-rule="evenodd" clip-rule="evenodd" d="M86.7603 73.9203L86.7336 72.7825L79.0664 72.8101V73.9186L86.7603 73.9203Z" fill="#2CA2CE"/>
<path fill-rule="evenodd" clip-rule="evenodd" d="M103.417 68.2314L103.434 65.8769C101.41 66.1704 99.5976 65.2196 98.9288 64.1261H98.8438C98.8281 66.4458 100.986 68.175 103.417 68.2314L103.417 68.2314Z" fill="#CECECE"/>
<path fill-rule="evenodd" clip-rule="evenodd" d="M83.626 110.813L83.7309 109.23C84.885 109.402 84.7718 110.693 83.626 110.813ZM83.3729 108.378C82.3736 108.427 82.3607 106.904 83.4743 107.023L83.3729 108.378ZM83.5106 106.442C82.7223 106.474 82.0722 106.877 82.0111 107.648C81.9188 108.814 82.7269 108.675 83.3123 109.136L83.1946 110.808C82.5678 110.754 82.5885 110.475 82.0431 110.366C81.8948 110.531 81.925 110.528 81.8096 110.716C82.1027 111.081 82.5138 111.3 83.1445 111.345C83.1424 111.431 83.1211 111.676 83.1247 111.74L83.2192 112.11C83.7531 112.011 83.4327 111.992 83.57 111.588C83.7791 110.973 84.5163 111.618 85.0262 110.49C85.54 109.354 84.7326 108.803 83.7795 108.608L83.8929 106.985C84.5085 107.128 84.5542 107.481 84.9686 107.092C84.9154 106.644 84.4078 106.528 83.9329 106.463C83.9497 106.134 84.0056 106.027 83.899 105.782C83.4374 105.847 83.5422 105.943 83.5106 106.442L83.5106 106.442Z" fill="#F6871F"/>
<path fill-rule="evenodd" clip-rule="evenodd" d="M94.3218 74.7801C94.0511 74.6229 93.5988 73.9704 93.446 73.6966L93.3452 73.2879C94.5624 73.0792 94.6616 74.0047 94.3218 74.7801V74.7801ZM92.4198 72.8969C92.0371 73.0123 91.6548 72.9471 91.4243 72.6643C91.0779 72.2387 91.2788 71.9445 91.4905 71.6198C91.7301 71.794 92.2915 72.6192 92.4198 72.8969V72.8969ZM91.1954 71.1672C90.6397 71.5513 90.467 72.2598 90.9157 72.9664C91.3469 73.6456 91.8606 73.6523 92.8539 73.4634C92.9913 73.7123 93.2005 73.9871 93.3717 74.2406C93.4881 74.413 93.5259 74.4635 93.6487 74.6389C93.8812 74.9711 93.8627 74.9637 93.7839 75.0412C93.1706 75.3956 92.7129 74.7436 92.7859 75.6365C93.2936 75.8301 93.7806 75.7114 94.1912 75.5327C94.5806 75.8585 94.5595 76.1949 94.8019 76.0892C95.1671 75.9299 94.7024 75.4836 94.5826 75.2075C95.1625 74.7866 95.3175 73.9659 94.8019 73.2413C94.3042 72.542 93.7688 72.5815 92.85 72.7826C92.6092 72.4145 92.0646 71.745 91.9236 71.3263C92.5081 71.2182 92.7219 71.402 92.732 70.8539C92.5808 70.7318 92.4438 70.6993 92.1552 70.7174C91.9171 70.7324 91.7733 70.7908 91.5694 70.8555C91.3879 70.6787 91.2396 70.2805 91.036 70.3713C90.7076 70.5178 91.0697 70.8988 91.1955 71.1672L91.1954 71.1672Z" fill="#F6871F"/>
<path fill-rule="evenodd" clip-rule="evenodd" d="M101.547 61.6607L102.697 60.4913C102.9 61.3643 102.393 61.8971 101.547 61.6607ZM102.931 59.6488C102.815 59.1585 102.884 58.8007 103.188 58.5533C103.467 58.3266 103.863 58.243 104.25 58.4417C103.991 58.7527 103.336 59.4606 102.931 59.6488ZM104.679 58.0092C103.656 57.4342 101.637 58.1959 102.509 60.1579L101.309 61.3286C100.861 60.8201 101.308 60.6881 100.697 60.7279C100.369 61.111 100.709 61.4763 100.817 61.8755L100.382 62.2631C100.695 62.5142 100.741 62.3617 101.086 62.0489C101.881 62.367 102.418 62.3349 102.96 61.7759C103.656 61.0578 103.368 60.8781 103.207 59.9826L104.543 58.7038C104.72 58.9952 104.717 59.3428 104.873 59.5906C105.811 59.5159 105.133 58.6332 104.973 58.2036L105.533 57.6908C105.043 57.3885 105.013 57.7714 104.679 58.0092V58.0092Z" fill="#F6871F"/>
<path fill-rule="evenodd" clip-rule="evenodd" d="M91.8372 91.0627C89.8618 91.4875 90.5366 94.4521 92.6043 93.8781C94.4201 93.3739 93.7553 90.6503 91.8372 91.0627Z" fill="#FF8B00"/>
<path fill-rule="evenodd" clip-rule="evenodd" d="M8.44727 27.8971L12.0168 26.6249L10.6483 23.187L8.44727 27.8971Z" fill="#6D6D6D"/>
<path fill-rule="evenodd" clip-rule="evenodd" d="M87.8985 91.0824C85.8891 91.5994 86.7355 94.4375 88.7192 93.8716C90.6099 93.3321 89.7659 90.602 87.8985 91.0824Z" fill="#FF8B00"/>
<path fill-rule="evenodd" clip-rule="evenodd" d="M95.6805 91.0969C93.6059 91.6693 94.6477 94.4969 96.5781 93.8626C98.2319 93.3191 97.6448 90.555 95.6805 91.0969Z" fill="#FF8B00"/>
<path fill-rule="evenodd" clip-rule="evenodd" d="M15.2305 34.7089C15.388 35.2317 15.2181 35.1828 16.5723 34.6773C17.1381 34.4661 17.6242 34.2898 18.1902 34.088C19.6525 33.5668 27.4817 30.7753 27.7775 30.5276L27.6553 30.1522C26.9551 30.2785 25.2908 30.9771 24.5465 31.2515C23.0041 31.8202 15.626 34.4017 15.2305 34.7089L15.2305 34.7089Z" fill="#6D6D6D"/>
<path fill-rule="evenodd" clip-rule="evenodd" d="M14.8877 33.8725L15.0168 34.2371C15.7204 34.0852 27.2729 29.8256 27.4376 29.6912L27.323 29.304C26.4329 29.4901 15.051 33.719 14.8877 33.8725L14.8877 33.8725Z" fill="#6D6D6D"/>
<path fill-rule="evenodd" clip-rule="evenodd" d="M15.5693 35.545L15.7083 35.9182C16.3611 35.8298 27.9727 31.5073 28.1168 31.3637L27.9846 31.0001C27.1719 31.1882 15.7413 35.4098 15.5693 35.545V35.545Z" fill="#6D6D6D"/>
<path fill-rule="evenodd" clip-rule="evenodd" d="M122.146 55.8356C122.614 56.1282 124.753 56.6265 125.536 56.8404C126.104 56.9953 126.683 57.1504 127.27 57.3234C128.56 57.7036 128.438 56.8638 128.285 56.6369C128.062 56.3067 125.521 55.7413 124.919 55.5757C123.945 55.3078 121.8 54.2935 122.146 55.8356V55.8356Z" fill="#6D6D6D"/>
<path fill-rule="evenodd" clip-rule="evenodd" d="M127.366 60.1135C127.24 59.6391 124.925 59.1774 124.109 58.9493C123.537 58.7894 122.958 58.6403 122.374 58.4753C121.849 58.3271 120.914 58.0906 121.099 58.9603C121.203 59.4499 123.811 59.9689 124.348 60.1154C124.937 60.2761 127.698 61.3669 127.366 60.1135L127.366 60.1135Z" fill="#6D6D6D"/>
<path fill-rule="evenodd" clip-rule="evenodd" d="M124.904 58.4689C126.116 58.7979 127.76 59.5069 127.878 58.6666C127.965 58.0444 127.13 57.9798 126.626 57.8424C125.519 57.5408 122.438 56.55 121.732 56.7134C121.556 57.0926 121.542 57.0454 121.648 57.5138C122.153 57.7939 124.099 58.2504 124.904 58.4689V58.4689Z" fill="#6D6D6D"/>
<path fill-rule="evenodd" clip-rule="evenodd" d="M89.6192 80.0574L89.0366 79.4006L88.9427 79.3981L79.3105 79.4024V80.0528L89.6192 80.0574Z" fill="#5CB2CC"/>
<path fill-rule="evenodd" clip-rule="evenodd" d="M16.2295 37.1967L16.3444 37.5895C16.651 37.5893 27.9749 33.5276 28.8096 33.1114L28.6262 32.6942L16.2295 37.1967V37.1967Z" fill="#6D6D6D"/>
<path fill-rule="evenodd" clip-rule="evenodd" d="M15.916 36.4743C16.065 36.9144 16.0623 36.8199 16.5639 36.6318C16.8187 36.5363 17.056 36.4412 17.3371 36.3387C17.8825 36.1398 18.438 35.9433 18.9578 35.7516L28.293 32.3277C28.4406 32.2363 28.376 32.2802 28.4543 32.2001L28.3236 31.8577C27.7573 31.939 18.9799 35.2392 17.4398 35.7868C17.0095 35.9398 16.115 36.1001 15.916 36.4743H15.916Z" fill="#6D6D6D"/>
<path fill-rule="evenodd" clip-rule="evenodd" d="M111.281 87.6721C111.208 87.5617 111.208 87.6921 111.204 87.4735C111.198 87.1462 111.21 87.3143 111.281 87.2075C111.328 87.4196 111.37 87.4673 111.281 87.6721ZM110.892 86.2783V86.65C110.651 86.4808 110.559 86.4693 110.892 86.2783ZM110.892 85.9066C110.169 85.9642 109.868 86.8862 110.892 87.1146V87.6721C110.527 87.4161 110.805 87.3339 110.31 87.2075C110.032 87.6808 110.436 87.9419 110.892 88.0437V88.3225C109.152 88.2854 109.002 85.5349 111.184 85.5349C112.87 85.5349 113.105 88.2815 111.184 88.3225V88.0437C111.665 87.9364 111.766 87.7759 111.766 87.3004C111.766 87.0432 111.603 87.0181 111.43 86.8786C111.104 86.6161 111.196 86.9152 111.184 86.3712L111.504 86.5908C111.795 86.6112 111.84 86.3484 111.392 85.9888C111.164 85.8054 111.178 85.9567 111.087 85.6279L110.892 85.9066V85.9066ZM109.145 86.9287C109.145 89.2543 112.932 89.4013 112.932 86.9287C112.932 84.9907 110.092 84.5179 109.353 86.1987C109.314 86.287 109.145 86.8569 109.145 86.9287Z" fill="#F3901C"/>
<path fill-rule="evenodd" clip-rule="evenodd" d="M62.1221 18.7269H71.8564L71.7831 18.0764H62.0488L62.1221 18.7269Z" fill="#2CA2CE"/>
<path fill-rule="evenodd" clip-rule="evenodd" d="M84.4316 18.6809L84.7708 18.736L94.1179 18.7269V18.0764L84.4316 18.0791V18.6809Z" fill="#2CA2CE"/>
<path fill-rule="evenodd" clip-rule="evenodd" d="M39.7882 18.7269H48.8427L49.1352 18.736L49.4761 18.6935L49.4744 18.1224L49.1352 18.0674L49.0369 18.0765H39.7148L39.7882 18.7269Z" fill="#2CA2CE"/>
<path fill-rule="evenodd" clip-rule="evenodd" d="M73.29 18.7269H83.0243L82.951 18.0764H73.411H73.29V18.7269Z" fill="#2CA2CE"/>
<path fill-rule="evenodd" clip-rule="evenodd" d="M50.9561 18.7269H60.4962H60.617V18.0764H50.8828L50.9561 18.7269Z" fill="#2CA2CE"/>
<path fill-rule="evenodd" clip-rule="evenodd" d="M14.5508 33.0363L14.6813 33.3941L26.7826 29.0225C27.2353 28.8171 26.9764 29.0167 27.0879 28.762C26.907 28.3669 27.0426 28.3847 26.4544 28.6054L14.7214 32.9091C14.5707 32.9986 14.6251 32.9656 14.5508 33.0363V33.0363Z" fill="#6D6D6D"/>
<path fill-rule="evenodd" clip-rule="evenodd" d="M16.5733 38.0416L16.7229 38.4888C19.6187 37.5268 23.0748 36.1855 26.0513 35.1067L28.3733 34.2619C28.7089 34.1418 28.9996 34.0884 29.1209 33.8726L29.0194 33.5564L16.5732 38.0416H16.5733Z" fill="#6D6D6D"/>
<path fill-rule="evenodd" clip-rule="evenodd" d="M36.332 91.4367L45.9589 91.4355L45.9865 90.8034L36.3635 90.783L36.332 91.4367Z" fill="#FF8B00"/>
<path fill-rule="evenodd" clip-rule="evenodd" d="M71.6631 108.906C72.0706 109.31 71.9909 109.59 72.5845 109.926C72.9352 110.124 73.4606 110.339 73.9526 110.476C75.1701 110.817 76.1522 110.829 77.4463 110.896L77.4053 110.193C76.3368 109.903 75.3841 110.007 74.2117 109.579C73.2087 109.213 72.4922 108.817 72.4107 107.649C71.9955 107.98 71.6631 108.192 71.6631 108.906L71.6631 108.906Z" fill="#F6871F"/>
<path fill-rule="evenodd" clip-rule="evenodd" d="M72.4111 107.649C72.4927 108.816 73.2092 109.213 74.2122 109.579C75.3846 110.007 76.3373 109.903 77.4058 110.193L77.6071 108.994C76.4915 108.949 75.429 108.842 74.4477 108.519C73.9635 108.36 73.6562 108.235 73.2576 107.982C72.524 107.518 72.9266 107.556 72.4404 107.047L72.4111 107.649V107.649Z" fill="#FCBE0F"/>
<path fill-rule="evenodd" clip-rule="evenodd" d="M88.3641 78.46L87.9762 77.8166L87.8534 77.8167L79.3047 77.7999L79.3336 78.4503L88.3641 78.46Z" fill="#5CB2CC"/>
<path fill-rule="evenodd" clip-rule="evenodd" d="M87.5885 76.8273L87.5582 76.329L87.5028 76.1782L79.3236 76.1729L79.3105 76.8237L87.5885 76.8273Z" fill="#5CB2CC"/>
<path fill-rule="evenodd" clip-rule="evenodd" d="M87.0544 75.1888L86.8837 74.5483L79.3047 74.5476L79.3336 75.1984L87.0544 75.1888Z" fill="#5CB2CC"/>
<path fill-rule="evenodd" clip-rule="evenodd" d="M12.5312 49.8545L14.0366 52.3117C14.0999 52.4089 14.0935 52.4016 14.1505 52.4816C14.2841 52.6687 14.1779 52.5362 14.2741 52.6424C14.6745 52.4979 14.8509 52.1582 15.1717 51.9336C15.4327 51.6241 15.6806 51.4975 15.8687 51.1553C15.5991 50.9015 14.8236 50.5143 14.4737 50.3139C14.0195 50.0537 13.4505 49.7676 13.0118 49.4456C12.7064 49.5821 12.6874 49.6299 12.5313 49.8545L12.5312 49.8545Z" fill="#EEA738"/>
<path fill-rule="evenodd" clip-rule="evenodd" d="M132.354 32.3879C132.678 32.5113 133.147 32.7063 133.396 32.9672L134.49 33.4184C134.621 32.8515 134.878 31.6401 134.878 31.0241L134.101 30.6813L132.354 32.3879H132.354Z" fill="#EDEDED"/>
<path fill-rule="evenodd" clip-rule="evenodd" d="M17.2549 39.8194C17.4154 40.2994 17.4124 40.2228 17.959 40.0066C18.741 39.6974 24.3409 37.7985 24.4372 37.5412C24.6907 36.8642 23.4399 37.482 22.8372 37.7001L17.7023 39.5669C17.6697 39.5795 17.5239 39.6391 17.4975 39.653C17.4773 39.6637 17.4524 39.6778 17.4336 39.6889C17.4146 39.7001 17.3888 39.7187 17.3721 39.7294L17.2549 39.8194L17.2549 39.8194Z" fill="#6D6D6D"/>
<path fill-rule="evenodd" clip-rule="evenodd" d="M0.485525 56.0791C0.384421 56.2818 0.00630768 58.1205 0 58.4576L1.18554 58.3127L2.42761 58.1995L1.26234 56.0021L0.48554 56.0792L0.485525 56.0791Z" fill="#EDEDED"/>
<path fill-rule="evenodd" clip-rule="evenodd" d="M78.0921 112.862C77.9692 112.597 77.8225 112.338 77.6866 112.029C75.7156 111.922 73.7574 111.914 72.3896 110.942C72.5821 111.799 73.6743 112.201 74.6062 112.451C75.9183 112.804 76.7706 112.719 78.0921 112.862V112.862Z" fill="#F6871F"/>
<path fill-rule="evenodd" clip-rule="evenodd" d="M33.2822 37.0318C33.5527 37.4746 33.9192 37.9785 34.2774 38.3256L34.7321 38.0365C34.6235 37.7705 34.448 37.6111 34.2825 37.3337H36.3166V36.7299H34.2825C34.448 36.4525 34.6235 36.2931 34.7392 36.018L34.295 35.7155C34.0075 35.9996 33.4491 36.6938 33.2822 37.0318L33.2822 37.0318Z" fill="white"/>
<path fill-rule="evenodd" clip-rule="evenodd" d="M99.1469 36.0706C99.3403 36.3243 99.4622 36.4566 99.624 36.7299H97.5898V37.3337H99.624C99.4606 37.6278 99.3482 37.7288 99.1673 37.9693L99.6063 38.3554C100.018 37.9446 100.33 37.516 100.624 37.0318C100.351 36.5841 99.9853 36.0863 99.629 35.7346L99.147 36.0706H99.1469Z" fill="white"/>
<path fill-rule="evenodd" clip-rule="evenodd" d="M89.6187 80.0574L89.7329 80.0499L93.6085 80.0532V79.4024L89.0361 79.4006L89.6187 80.0574Z" fill="#4A90A5"/>
<path fill-rule="evenodd" clip-rule="evenodd" d="M20.3613 27.1655L20.5094 27.6285C21.1571 27.4926 24.1655 26.3065 25.2883 25.9198C25.6674 25.7892 25.8649 25.8248 25.8057 25.525C25.7292 25.1381 25.5723 25.29 25.2461 25.3988C23.9354 25.8362 21.4263 26.9332 20.3613 27.1655H20.3613Z" fill="#6D6D6D"/>
<path fill-rule="evenodd" clip-rule="evenodd" d="M31.9972 3.1167C32.3251 4.18755 34.143 3.72863 33.7795 2.49139C33.4866 1.49471 31.6078 1.8449 31.9972 3.1167Z" fill="#FA6120"/>
<path fill-rule="evenodd" clip-rule="evenodd" d="M115.627 42.4415L114.08 42.0146L113.641 43.4761L115.183 43.9147L115.627 42.4415Z" fill="#6D6D6D"/>
<path fill-rule="evenodd" clip-rule="evenodd" d="M128.858 43.6357L127.813 43.0849L126.722 42.6044C126.671 42.6758 126.667 42.6504 126.61 42.7855C126.493 43.0686 126.512 43.2131 126.603 43.4566C127.05 44.6495 128.631 44.4211 128.858 43.6357H128.858Z" fill="#EFEEEE"/>
<path fill-rule="evenodd" clip-rule="evenodd" d="M2.62497 69.7508L1.45605 69.8915C1.58188 70.4969 2.07555 71.0445 2.88962 70.9336C3.43344 70.8595 3.96787 70.2989 3.91517 69.7448L3.88371 69.6239L2.62497 69.7508Z" fill="#EFEEEE"/>
<path fill-rule="evenodd" clip-rule="evenodd" d="M113.426 42.7928C114.036 41.848 112.473 41.1632 112.022 42.0242C111.522 42.9799 112.893 43.618 113.426 42.7928Z" fill="#BC3142"/>
<path fill-rule="evenodd" clip-rule="evenodd" d="M114.129 24.855C113.793 24.9905 113.478 25.2192 113.694 25.7985C113.834 26.1747 114.282 26.4477 114.823 26.2185C115.665 25.8623 115.185 24.4284 114.129 24.855Z" fill="#6D6D6D"/>
<path fill-rule="evenodd" clip-rule="evenodd" d="M78.123 112.844C78.3139 113.273 78.7257 113.88 79.2854 113.88L80.6219 113.683C80.4954 113.458 80.2551 113.35 80.0421 113.199C79.7788 113.012 79.6874 112.86 79.4559 112.717L78.123 112.844V112.844Z" fill="#F56502"/>
<path fill-rule="evenodd" clip-rule="evenodd" d="M111.432 21.1428C111.653 21.3074 111.62 21.3176 111.767 21.1342L103.416 15.078C103.522 15.4091 103.535 15.3573 103.818 15.5558C104.009 15.6896 104.148 15.7885 104.324 15.9103L110.438 20.3738C110.716 20.5784 111.237 20.9193 111.432 21.1428V21.1428Z" fill="#737373"/>
<path fill-rule="evenodd" clip-rule="evenodd" d="M109.946 42.243L109.976 42.4501L111.372 42.7903L111.771 41.5085C111.766 41.3695 111.807 41.3959 111.672 41.4061L109.946 42.243H109.946Z" fill="#EEA738"/>
<path fill-rule="evenodd" clip-rule="evenodd" d="M77.4434 110.885L77.6871 112.029L78.7691 111.927C78.6179 111.594 78.4079 111.157 78.1866 110.827L77.4434 110.885V110.885Z" fill="#F56502"/>
<path fill-rule="evenodd" clip-rule="evenodd" d="M77.6875 112.029C77.8235 112.338 77.9701 112.597 78.093 112.862L78.1235 112.843L79.4563 112.717C79.2081 112.435 79.0082 112.205 78.7696 111.927L77.6875 112.029H77.6875Z" fill="#ED4704"/>
<path fill-rule="evenodd" clip-rule="evenodd" d="M83.625 110.813C84.7708 110.693 84.884 109.402 83.7299 109.23L83.625 110.813Z" fill="#FCBE0F"/>
<path fill-rule="evenodd" clip-rule="evenodd" d="M93.3447 73.288L93.4455 73.6967C93.5983 73.9705 94.0506 74.623 94.3213 74.7801C94.6611 74.0048 94.5619 73.0792 93.3447 73.288V73.288Z" fill="#FCBE0F"/>
<path fill-rule="evenodd" clip-rule="evenodd" d="M102.931 59.6487C103.336 59.4605 103.991 58.7526 104.249 58.4417C103.863 58.2429 103.467 58.3266 103.188 58.5532C102.884 58.8006 102.815 59.1585 102.931 59.6487Z" fill="#FCBE0F"/>
<path fill-rule="evenodd" clip-rule="evenodd" d="M83.3719 108.377L83.4732 107.023C82.3597 106.904 82.3726 108.427 83.3719 108.377Z" fill="#FCBE0F"/>
<path fill-rule="evenodd" clip-rule="evenodd" d="M24.2031 24.098L24.5325 24.9504L25.4284 24.6582L25.1345 23.8066L24.2031 24.098Z" fill="#6D6D6D"/>
<path fill-rule="evenodd" clip-rule="evenodd" d="M92.4192 72.8971C92.2909 72.6193 91.7295 71.7941 91.49 71.6199C91.2782 71.9446 91.0773 72.2389 91.4237 72.6644C91.6542 72.9472 92.0366 73.0124 92.4192 72.8971V72.8971Z" fill="#FCBE0F"/>
<path fill-rule="evenodd" clip-rule="evenodd" d="M88.3645 78.4599L88.3328 78.46L89.9095 78.4457C89.7053 78.2894 89.1384 77.9116 88.9312 77.8058L87.9766 77.8165L88.3645 78.4599L88.3645 78.4599Z" fill="#4A90A5"/>
<path fill-rule="evenodd" clip-rule="evenodd" d="M11.2646 55.6155C11.2646 56.3459 11.6672 56.08 11.8473 56.08C12.4691 54.84 11.2646 54.3044 11.2646 55.6155Z" fill="#6D6D6D"/>
<path fill-rule="evenodd" clip-rule="evenodd" d="M115.36 86.5571V86.7429C115.772 86.9518 115.893 86.9642 116.175 86.4985C116.666 85.6885 116.018 85.2564 115.475 86.2958C115.332 86.5696 115.36 86.1608 115.36 86.5571V86.5571Z" fill="#6D6D6D"/>
<path fill-rule="evenodd" clip-rule="evenodd" d="M13.4007 45.766C13.7284 45.766 14.3208 44.5581 13.4978 44.5581H13.3035C13.2658 44.6335 13.0913 45.1474 13.0672 45.2674C13.0217 45.4937 13.0817 45.766 13.4007 45.766V45.766Z" fill="#6D6D6D"/>
<path fill-rule="evenodd" clip-rule="evenodd" d="M41.8525 106.999C41.8525 107.521 43.1149 107.909 43.1149 107.371C43.1149 106.955 41.8525 106.423 41.8525 106.999Z" fill="#6D6D6D"/>
<path fill-rule="evenodd" clip-rule="evenodd" d="M11.7495 66.5797C11.793 66.5797 12.3321 66.8395 12.3321 66.208C12.3321 65.1227 11.5493 65.1936 11.5597 65.8208C11.5618 65.9466 11.6979 66.4769 11.7495 66.5797V66.5797Z" fill="#6D6D6D"/>
<path fill-rule="evenodd" clip-rule="evenodd" d="M11.1676 58.8675C11.1676 59.5446 11.1003 59.6108 11.556 59.6108C11.9431 59.6108 11.8473 59.3477 11.8473 58.6817C11.8473 58.3461 11.6023 58.4029 11.2647 58.4029C11.2139 58.6113 11.1676 58.6166 11.1676 58.8675H11.1676Z" fill="#6D6D6D"/>
<path fill-rule="evenodd" clip-rule="evenodd" d="M113.418 89.5305C113.418 90.5779 115.197 88.6942 114.098 88.6942C113.729 88.6942 113.418 89.3926 113.418 89.5305Z" fill="#6D6D6D"/>
<path fill-rule="evenodd" clip-rule="evenodd" d="M62.9238 112.76C62.9238 113.11 63.6645 113.039 63.8949 113.039C64.2627 113.039 64.3337 112.625 64.1129 112.469C63.8906 112.313 63.3537 112.388 63.0209 112.388C62.9586 112.637 62.9238 112.563 62.9238 112.76V112.76Z" fill="#6D6D6D"/>
<path fill-rule="evenodd" clip-rule="evenodd" d="M13.206 73.4557H13.6915C14.0535 71.9691 12.2543 71.7347 13.206 73.4557Z" fill="#6D6D6D"/>
<path fill-rule="evenodd" clip-rule="evenodd" d="M95.5908 78.4506L97.2024 78.4513L97.2311 77.7997L96.4866 77.7999C96.1885 78.0495 95.8794 78.1847 95.5908 78.4506H95.5908Z" fill="#4A90A5"/>
<path fill-rule="evenodd" clip-rule="evenodd" d="M12.1377 69.0885C12.1377 69.9605 12.3048 70.018 12.7203 70.1106C13.4332 69.1289 12.1377 68.4766 12.1377 69.0885Z" fill="#6D6D6D"/>
<path fill-rule="evenodd" clip-rule="evenodd" d="M55.6406 111.831C56.2679 112.233 56.2842 112.007 56.7088 112.202C56.8977 111.932 56.9053 112.078 57.0001 111.738C56.6867 111.422 56.3389 111.377 55.8349 111.366C55.7289 111.558 55.7002 111.586 55.6406 111.831V111.831Z" fill="#6D6D6D"/>
<path fill-rule="evenodd" clip-rule="evenodd" d="M119.438 39.5406C119.561 39.4785 119.827 39.4129 119.827 39.2618C119.827 38.2313 118.631 37.9997 118.952 38.8757C119.063 39.1761 119.179 39.3746 119.438 39.5406V39.5406Z" fill="#6D6D6D"/>
<path fill-rule="evenodd" clip-rule="evenodd" d="M94.6768 105.977C94.6768 106.473 95.3271 106.221 95.6021 106.026C95.9305 105.793 95.8421 105.917 95.8421 105.419C95.5087 105.335 95.558 105.211 95.0182 105.56C94.835 105.679 94.6768 105.734 94.6768 105.977Z" fill="#6D6D6D"/>
<path fill-rule="evenodd" clip-rule="evenodd" d="M48.6494 109.787V110.065C50.0215 110.695 50.2046 109.961 49.545 109.673C49.2934 109.563 48.6494 109.294 48.6494 109.787Z" fill="#6D6D6D"/>
<path fill-rule="evenodd" clip-rule="evenodd" d="M11.2646 62.2126C11.2646 63.294 11.3779 63.1751 11.9444 63.0488C11.9444 62.7304 12.0229 62.2167 11.8595 62.0038C11.6975 61.7927 11.2646 61.8606 11.2646 62.2126V62.2126Z" fill="#6D6D6D"/>
<path fill-rule="evenodd" clip-rule="evenodd" d="M119.049 80.6103C119.437 80.6103 119.632 79.888 119.632 79.5881L119.246 79.3972C118.827 79.6715 118.367 80.6103 119.049 80.6103V80.6103Z" fill="#6D6D6D"/>
<path fill-rule="evenodd" clip-rule="evenodd" d="M24.665 94.0834C24.665 94.3191 25.1635 94.9197 25.3448 94.9197C25.5672 94.9197 25.4577 94.8882 25.7332 94.8268C25.7332 94.3688 25.7728 94.4489 25.5226 94.1921C24.7838 93.4336 24.665 94.0684 24.665 94.0834V94.0834Z" fill="#6D6D6D"/>
<path fill-rule="evenodd" clip-rule="evenodd" d="M52.1455 110.902V111.087C52.3665 111.199 52.8569 111.448 53.1675 111.327C54.0961 110.965 52.1455 110.075 52.1455 110.902V110.902Z" fill="#6D6D6D"/>
<path fill-rule="evenodd" clip-rule="evenodd" d="M91.375 107.557C91.5588 107.889 91.6073 107.992 92.0228 107.817C93.4421 107.218 92.1522 106.446 91.375 107.557Z" fill="#6D6D6D"/>
<path fill-rule="evenodd" clip-rule="evenodd" d="M97.7842 104.119C97.7842 104.826 98.9494 104.208 98.9494 103.84C98.9494 103.058 97.7842 103.799 97.7842 104.119Z" fill="#6D6D6D"/>
<path fill-rule="evenodd" clip-rule="evenodd" d="M108.854 95.1056C108.854 95.2686 109.134 95.3418 109.222 95.3343C109.396 95.3193 109.503 95.1879 109.61 95.0891C110.013 94.7204 110.066 94.7059 109.825 94.2693C109.156 94.2693 108.854 94.9151 108.854 95.1056H108.854Z" fill="#6D6D6D"/>
<path fill-rule="evenodd" clip-rule="evenodd" d="M120.216 41.7706C120.216 42.1148 120.389 42.5572 120.507 42.7928C120.886 42.7928 121.177 42.7705 121.019 42.2248C120.731 41.2292 120.216 41.6272 120.216 41.7707V41.7706Z" fill="#6D6D6D"/>
<path fill-rule="evenodd" clip-rule="evenodd" d="M121.477 74.0131C121.832 74.0131 122.309 72.8052 121.671 72.8052C121.196 72.8052 120.855 74.0131 121.477 74.0131Z" fill="#6D6D6D"/>
<path fill-rule="evenodd" clip-rule="evenodd" d="M70.3037 112.76C70.3037 113.086 70.5237 113.124 70.8272 113.091C72.0718 112.953 71.4687 112.388 71.1777 112.388C70.8174 112.388 70.3037 112.305 70.3037 112.76H70.3037Z" fill="#6D6D6D"/>
<path fill-rule="evenodd" clip-rule="evenodd" d="M20.2949 88.5083C20.2949 89.5243 21.8761 89.6318 21.0394 88.5393C20.6874 88.0797 20.2949 88.1507 20.2949 88.5083Z" fill="#6D6D6D"/>
<path fill-rule="evenodd" clip-rule="evenodd" d="M38.6475 105.326C38.6475 105.378 39.0774 106.325 39.9098 105.791C39.7273 105.041 38.6475 104.873 38.6475 105.326Z" fill="#6D6D6D"/>
<path fill-rule="evenodd" clip-rule="evenodd" d="M109.242 23.8374C109.242 24.3393 110.31 24.9911 110.31 24.302C110.31 24.0985 110.208 24.0673 110.067 23.8841C109.67 23.3644 109.242 23.5061 109.242 23.8374L109.242 23.8374Z" fill="#6D6D6D"/>
<path fill-rule="evenodd" clip-rule="evenodd" d="M35.54 103.468C35.54 103.78 36.1155 104.119 36.6082 104.119L36.8024 103.84C36.3969 103.106 35.54 103.059 35.54 103.468V103.468Z" fill="#6D6D6D"/>
<path fill-rule="evenodd" clip-rule="evenodd" d="M59.3301 112.295C59.3301 112.795 60.5924 112.916 60.5924 112.388C60.5924 111.94 59.3301 111.806 59.3301 112.295Z" fill="#6D6D6D"/>
<path fill-rule="evenodd" clip-rule="evenodd" d="M111.475 92.6897C111.854 92.6052 112.252 92.2549 112.252 91.9464C112.252 91.2539 111.644 91.6194 111.371 92.0413C111.172 92.347 111.209 92.4322 111.42 92.6439C111.431 92.6541 111.458 92.6737 111.475 92.6897Z" fill="#6D6D6D"/>
<path fill-rule="evenodd" clip-rule="evenodd" d="M120.312 77.3582C120.722 77.3582 121.26 76.1503 120.604 76.1503C120.265 76.1503 120.201 76.4653 120.118 76.7182C120.066 76.8742 120.026 76.9532 120.048 77.069C120.066 77.1674 120.162 77.3582 120.312 77.3582H120.312Z" fill="#6D6D6D"/>
<path fill-rule="evenodd" clip-rule="evenodd" d="M23.4013 92.1321C23.4013 91.5805 23.1423 91.11 22.5274 91.11C22.1997 91.7026 22.7292 92.2819 23.4013 92.1321Z" fill="#6D6D6D"/>
<path fill-rule="evenodd" clip-rule="evenodd" d="M117.496 83.7696C117.896 83.7696 118.436 82.6545 117.787 82.6545C117.491 82.6545 117.377 82.942 117.256 83.1801C117.119 83.4513 117.05 83.7696 117.496 83.7696V83.7696Z" fill="#6D6D6D"/>
<path fill-rule="evenodd" clip-rule="evenodd" d="M45.1533 108.486C45.3438 108.83 45.3454 108.853 45.7759 109.016C46.5125 109.296 46.7823 108.615 45.8199 108.301C45.4934 108.194 45.4055 108.22 45.1533 108.486Z" fill="#6D6D6D"/>
<path fill-rule="evenodd" clip-rule="evenodd" d="M66.6133 112.853C66.6133 113.223 66.8883 113.132 67.5843 113.132C67.9385 113.132 68.2764 112.481 67.0016 112.481C66.7744 112.481 66.6133 112.635 66.6133 112.853V112.853Z" fill="#6D6D6D"/>
<path fill-rule="evenodd" clip-rule="evenodd" d="M23.9524 25.1955C24.1138 25.0073 24.1904 24.9176 24.1788 24.5417C23.8587 24.3288 23.4694 24.1321 23.2747 24.5531C23.0416 25.0572 23.456 25.2657 23.9524 25.1955V25.1955Z" fill="#BC3142"/>
<path fill-rule="evenodd" clip-rule="evenodd" d="M106.718 21.2357C106.718 21.3621 106.999 21.9791 107.786 21.9791C107.881 21.5882 107.921 21.6781 107.625 21.3954C107.53 21.3049 107.187 20.957 107.106 20.957C106.919 20.957 106.718 21.1227 106.718 21.2357Z" fill="#6D6D6D"/>
<path fill-rule="evenodd" clip-rule="evenodd" d="M87.854 77.8166L87.9768 77.8166L88.9314 77.8058C88.5184 77.3956 88.3681 77.2992 87.9735 76.7808L87.5889 76.8272C87.7335 77.168 87.8705 77.4702 87.854 77.8166H87.854Z" fill="#CECECE"/>
<path fill-rule="evenodd" clip-rule="evenodd" d="M120.263 57.9856C119.474 57.7498 119.174 58.2975 119.56 58.659C119.946 59.0207 120.484 58.7151 120.263 57.9856Z" fill="#6D6D6D"/>
<path fill-rule="evenodd" clip-rule="evenodd" d="M120.748 57.0492C121.014 56.2842 120.407 55.9995 120.038 56.3786C119.665 56.7625 120.043 57.2155 120.748 57.0492Z" fill="#6D6D6D"/>
<path fill-rule="evenodd" clip-rule="evenodd" d="M101.547 61.6606C102.393 61.897 102.9 61.3642 102.697 60.4912L101.547 61.6606Z" fill="#FCBE0F"/>
<path fill-rule="evenodd" clip-rule="evenodd" d="M120.635 54.6984C120.51 54.789 120.553 54.5481 120.439 54.9057C120.392 55.0521 120.418 55.1468 120.49 55.2533C120.616 55.4399 120.937 55.5342 121.188 55.3385C121.56 55.0491 121.207 54.2812 120.635 54.6984Z" fill="#6D6D6D"/>
<path fill-rule="evenodd" clip-rule="evenodd" d="M77.6065 108.994L77.4053 110.193L78.0052 110.136C77.8431 109.449 77.8737 109.139 77.905 108.42C77.7762 108.552 77.8493 108.395 77.693 108.704C77.6685 108.752 77.6315 108.916 77.6065 108.994V108.994Z" fill="#F56502"/>
<path fill-rule="evenodd" clip-rule="evenodd" d="M0.485367 56.0792L1.26216 56.0021C1.20511 55.7496 1.14124 55.6401 1.02952 55.3733C0.902926 55.0712 0.905008 55.0301 0.679532 54.8721C0.641203 55.3125 0.485352 55.5739 0.485352 56.0792L0.485367 56.0792Z" fill="#242C3C"/>
<path fill-rule="evenodd" clip-rule="evenodd" d="M134.101 30.6813L134.877 31.0241L135.019 30.4756C135.065 30.2193 135.072 30.1693 135.072 29.8771C134.711 30.1083 134.38 30.3711 134.101 30.6813V30.6813Z" fill="#242C3C"/>
<path fill-rule="evenodd" clip-rule="evenodd" d="M77.4462 110.896L77.4435 110.886L78.1868 110.827L78.0052 110.136L77.4053 110.193L77.4462 110.896Z" fill="#ED4704"/>
<path fill-rule="evenodd" clip-rule="evenodd" d="M22.3271 25.7445L23.1831 25.4763L22.8899 24.5983L22.3271 25.7445Z" fill="#EEA738"/>
<path fill-rule="evenodd" clip-rule="evenodd" d="M12.5311 49.8544C12.6872 49.6299 12.7062 49.5821 13.0116 49.4455C12.6487 49.2447 12.2857 49.0517 11.9434 48.8323C12.0028 49.0765 12.0393 49.1403 12.1759 49.3531C12.2493 49.4673 12.2623 49.4819 12.3268 49.5801L12.3991 49.6975C12.5442 49.9014 12.4212 49.7385 12.531 49.8544H12.5311Z" fill="#242C3C"/>
<path fill-rule="evenodd" clip-rule="evenodd" d="M87.5879 76.8272H87.5884L87.973 76.7808C87.8355 76.6432 87.9539 76.759 87.8147 76.5911C87.5203 76.2362 87.9533 76.7255 87.728 76.4828C87.6485 76.3972 87.638 76.397 87.5576 76.329L87.5879 76.8272V76.8272Z" fill="#4A90A5"/>
<path fill-rule="evenodd" clip-rule="evenodd" d="M109.976 42.4501L109.946 42.243C109.865 42.2907 109.568 42.3721 109.976 42.4501Z" fill="#F0D4A5"/>
<path fill-rule="evenodd" clip-rule="evenodd" d="M111.771 41.5085L111.863 41.3074C111.515 41.3074 111.771 41.2842 111.672 41.4061C111.807 41.3959 111.766 41.3695 111.771 41.5085H111.771Z" fill="#F0D4A5"/>
</svg>
