<?xml version="1.0" encoding="UTF-8"?>
<!DOCTYPE svg PUBLIC "-//W3C//DTD SVG 1.1//EN" "http://www.w3.org/Graphics/SVG/1.1/DTD/svg11.dtd">
<!-- Creator: CorelDRAW 2019 (64-Bit) -->
<svg xmlns="http://www.w3.org/2000/svg" xml:space="preserve" width="95.3414mm" height="89.061mm" version="1.1" style="shape-rendering:geometricPrecision; text-rendering:geometricPrecision; image-rendering:optimizeQuality; fill-rule:evenodd; clip-rule:evenodd"
viewBox="0 0 1875.94 1752.36"
 xmlns:xlink="http://www.w3.org/1999/xlink"
 xmlns:xodm="http://www.corel.com/coreldraw/odm/2003">
 <defs>
  <style type="text/css">
   <![CDATA[
    .fil0 {fill:#505050}
   ]]>
  </style>
 </defs>
 <g id="Слой_x0020_1">
  <metadata id="CorelCorpID_0Corel-Layer"/>
  <path class="fil0" d="M92.44 1165.02l139 -43.51c6.41,13.51 37.17,128.39 47.43,158.83 17.27,51.24 32.54,107.09 47.39,159.55 15.18,53.61 32.31,105.78 47.64,159.3 8.16,28.49 14.82,14.4 -53.71,37.47 -13.37,4.5 -70.09,23.2 -80.06,24.03l-147.71 -495.69zm1331.87 -235.33l-289.75 420.32 -107.71 -75.25c0.82,-4.14 214.2,-271.17 235.99,-298.66l-1.4 -1.11c115.95,0 145.62,-40.7 162.87,-45.3zm0 0l0 0zm-406.56 -269.39c0,-121.49 128.46,-176 242.94,-137.61 83.73,28.08 178.31,115.44 178.31,225.78 0,85.33 -68.96,150.61 -154.3,150.61l0 -7.35c0,-97.45 -97.81,-179.2 -201.91,-146.79 -8.9,2.78 -34.32,16.91 -38.11,16.99 -5.09,-21.86 -26.94,-45.64 -26.94,-101.63zm-75.51 1.14c0.82,88.47 38.32,126.5 43.68,149.48l-153.14 124.81 -64.59 -38.29 179.08 -282.88 -5.03 46.87zm-279.46 261.45l176.25 104.64c44.27,-38.42 92.55,-75.96 138.99,-113.08 20.63,-16.49 49.03,-42.98 69.68,-56.44 7.09,-4.63 12.93,-5.68 18.5,-12.11 16.39,-18.94 33.98,-32.53 65.43,-32.53 40.71,0 79.6,37.55 79.6,77.14 0,41.75 -43.19,83.9 -63.96,109.92 -25.99,32.56 -50.78,64.76 -76.73,97.15 -51.37,64.13 -103.66,128.76 -153.74,194.03 -55.97,72.95 -110.27,109.38 -213.76,134.01 -46.84,11.14 -95.39,20.73 -142.05,31.84 -23.25,5.53 -48.09,10.5 -71.27,15.68 -18.35,4.1 -54.96,14.83 -70.8,16.15l-105.38 -355.08c19.94,-1.68 29.11,-14.85 37.77,-28.44l78.87 -121.95c53.88,-80.48 104.43,-162.69 157.97,-243.67 21.12,-31.94 29.1,-51.16 65.45,-69.25 11.78,-5.87 194.52,-61.04 206.16,-62.01l-197 314.01zm842.35 -109.9l8.58 -68.19c4.9,-34.48 -21.7,-103.49 -32.64,-125.32 -49.3,-98.44 -165.27,-183.25 -290.65,-183.25 -30.08,0 -57.55,2.04 -83.75,10.54 -11.02,3.57 -56.79,24.84 -58.3,24.97l254.68 -369.82c42.13,29.3 464.5,324.67 468.98,325.32l-266.9 385.75zm-1214.78 245.28l-8.64 -28.14 -281.72 84.03 190.53 638.21 282 -85.23 -32.83 -106.45c20.28,-6.16 125.22,-27.38 157.66,-35.03 103.89,-24.51 195.98,-32.31 285.73,-96.33 20.11,-14.34 33.94,-26.93 51.95,-43.57 14.22,-13.13 35.95,-41.22 44.7,-53.66l172.81 121.54 723.38 -1044.9c-6.82,-2.14 -405.36,-281.88 -451.61,-312.92 -37.47,-25.14 -75.6,-52.25 -112.64,-78.39 -32.02,-22.6 -24.2,-27.39 -47.71,11.13 -11.09,18.16 -27.03,38.18 -39.15,56.36 -50,75.06 -104.13,151.63 -156.56,225.48 -25.82,36.36 -51.3,78.23 -78.26,112.77 -13.83,17.72 -26,37.67 -39.12,56.39 -23.08,32.93 -12.63,27.68 -55.58,39.93 -48.49,13.82 -95.36,27.69 -145.6,42.99 -42.03,12.79 -109.72,28.12 -143.21,47.82 -42.92,25.24 -63.46,59.95 -89.39,101.64 -24.35,39.14 -50.76,76.57 -75.28,115.74 -14.35,22.92 -146.06,229.14 -151.47,230.58z"/>
 </g>
</svg>
