<?xml version="1.0" encoding="UTF-8"?>
<!DOCTYPE svg PUBLIC "-//W3C//DTD SVG 1.1//EN" "http://www.w3.org/Graphics/SVG/1.1/DTD/svg11.dtd">
<!-- Creator: CorelDRAW 2019 (64-Bit) -->
<svg xmlns="http://www.w3.org/2000/svg" xml:space="preserve" width="129.388mm" height="98.5939mm" version="1.1" style="shape-rendering:geometricPrecision; text-rendering:geometricPrecision; image-rendering:optimizeQuality; fill-rule:evenodd; clip-rule:evenodd"
viewBox="0 0 21279.92 16215.28"
 xmlns:xlink="http://www.w3.org/1999/xlink"
 xmlns:xodm="http://www.corel.com/coreldraw/odm/2003">
 <defs>
  <style type="text/css">
   <![CDATA[
    .fil0 {fill:#505050}
   ]]>
  </style>
 </defs>
 <g id="Слой_x0020_1">
  <metadata id="CorelCorpID_0Corel-Layer"/>
  <path class="fil0" d="M3076.37 793.91c28.4,-15.97 24.9,-23.3 69.88,-23.3l14955.46 0 0 9341.35c-132.59,-63.63 -2128.89,-23.29 -2469.28,-23.29l-156.67 -472.3c-29.27,-82.71 -49.42,-182.67 -71.1,-255.04 -18.7,-62.48 -25.1,-69.65 -40.34,-122.72l-337.55 -1106.75c65.28,-31.31 113.27,-31.2 186.36,-69.88l-722.15 -1630.66c76.92,-51.49 141.42,-115.82 194.45,-201.57 240.43,-388.88 249.02,-894 33.67,-1307.76 -307.06,-589.97 -577.17,-547 -794.6,-859.36 -102.53,-147.28 -122.82,-427.84 -79.65,-653.4 33.86,-177.03 272.31,-595.28 335.49,-741.57 62.5,-144.66 23.17,-84.77 -5.31,-85.41l-43.53 12.7c-5.26,1.69 -11.63,4.75 -17.24,6.63l-816.49 330.33c-198.77,109.22 -90.36,35.03 -245.65,173.68 -49.22,43.95 -66.12,46.81 -116.38,93.27 -336.78,311.27 -587.47,735.21 -709.47,1177.44 -15.26,55.29 -33.09,95.44 -40.18,169.47 -8.39,87.38 -12.02,123.48 -20.64,189.64 -20.44,157.08 -5.56,569.51 28.55,731.61l71.28 258.46c2.57,10.36 7.34,24.92 12.53,37.25 136.77,324.26 182.31,375.01 294.18,537.64 53.8,78.2 146.8,141.85 221.12,198.2 149.83,113.58 430.39,212.32 626.28,212.32l71.38 441.13c26.4,104.42 32.88,71.16 47.56,208.67 8.01,75.05 16.17,165.39 38.17,241.37l169.02 902.55c85.49,-1.91 129.11,-19.11 186.36,-46.59l512.49 1630.67c-3595.21,0 -7190.42,0 -10785.64,0l-537 -0.64c-107.96,-20.34 -45.38,-23.06 -45.38,-92.54l0 -9201.57zm-861.93 186.36l0 8968.62c0,239.02 72.18,375.52 196.16,549.28 107.46,150.62 241.65,211.26 403.04,295.82l29.77 16.81c-279.26,0 -725.39,-16.46 -932.07,46.31 -257.19,78.1 -448.15,59.03 -682.05,133.51l-541.29 157.33c-122.16,46.68 -243.23,85.83 -347.47,165.04 -78.2,59.44 -145.03,94.6 -200.55,172.16 -178.2,248.9 -187,477.08 -22.09,723.35l14978.76 0 828.51 2642.46c35.75,97.48 50.44,168.3 85.03,264.41 19.09,53.06 30.76,61.59 51.74,111.33 112.25,266.02 337.84,988.57 618.78,988.57 132.82,0 256.88,-10.26 362.47,-56.86 92.25,-40.69 152.21,-66.21 203.36,-146.11 120.85,-188.79 13.73,-499.42 -29.8,-705.79 -71.33,-338.17 -266.7,-852.44 -319.33,-1078.37l-369.69 -1214.4c-35.94,-95.88 -48.06,-187.19 -76.94,-272.5 -18.55,-54.78 -31.59,-71.99 -46.95,-116.11 -29.37,-84.39 -95.83,-324.69 -95.83,-416.64l4822.09 0c66.89,0 47.99,-17.7 78.37,-61.39 143.17,-205.91 76.79,-622.24 -249.69,-815.57l-72.53 -43.95c-196.93,-126.31 -571.39,-231.04 -805.12,-266.45l-478.22 -82.4c-175.86,-38.73 -406.15,-39.42 -583.59,-83.63l-107.59 -15.48c-203.67,-17.22 -333.5,-28.85 -553.75,-28.85 168.05,-146.06 365.61,-54.47 578.9,-609.16 29.27,-76.13 26.77,37.2 26.77,-66.39l0 -9387.93 -104.04 -268.69 -181.08 -214.94c-289.9,-273.42 -659.72,-261.81 -1042.71,-261.81l-652.27 23.29c-239.81,0 -455.59,-35.79 -730.09,-6.43 -54.04,5.79 -49.73,1.12 -95.47,0.44 -5.38,-0.08 -12.02,-0.74 -17.19,-0.69l-388.29 3.4c-249.21,-28.53 -463.18,0.64 -689.39,-2.71 -5.38,-0.08 -12.04,-0.74 -17.2,-0.69l-387.35 2.4c-371.95,-26.28 -568.31,15.08 -772.67,2.47 -5.2,-0.31 -74.55,-5.66 -75.41,-5.66l-1183.48 8.14c-250.46,0.3 -470.67,-24.57 -749.62,-4.95 -351.97,24.77 -716.53,-40.47 -1074.99,-2.15 -54.04,5.79 -49.75,1.12 -95.47,0.44 -5.38,-0.08 -12.02,-0.74 -17.2,-0.69l-835.24 -17.38c-118.92,3.57 -143.55,24.41 -278.06,24.92l-1305.61 -0.18c-250.46,0.3 -470.65,-24.57 -749.6,-4.95l-459.78 3.29c-313.87,-26.36 -653.39,0.99 -956.69,0.99l-606.45 -24.06c-118.92,3.57 -143.55,24.41 -278.06,24.92 -337.61,1.32 -636.96,-39.24 -963.29,-8.09 -482.52,46.05 -1039.57,-112.87 -1502.46,81.36 -181.54,76.16 -343.6,226.72 -437.82,400.8 -83.38,154.09 -102.22,312.07 -102.22,480.17z"/>
 </g>
</svg>
