<svg width="145" height="104" viewBox="0 0 145 104" fill="none" xmlns="http://www.w3.org/2000/svg">
<path fill-rule="evenodd" clip-rule="evenodd" d="M120.643 63.5693C120.421 63.7052 120.609 63.6603 120.218 63.7529L94.9311 63.7235L94.9281 62.8781C101.246 62.6512 112.783 62.8446 119.649 62.8446C120.513 62.8446 120.643 62.6053 120.643 63.5692L120.643 63.5693ZM80.1393 62.9157L80.1398 63.7697L54.4295 63.7719V63.2351C54.6889 62.9421 54.3483 62.8107 55.8145 62.8293C60.9309 62.8943 78.1432 62.597 80.1394 62.9157H80.1393ZM14.7908 63.7998C14.3574 63.7679 13.4939 63.8346 13.9383 63.0681C14.1989 62.6186 14.0331 62.9088 14.8182 62.8348L37.0679 62.8445C38.6282 62.8411 40.2028 62.5396 39.6109 63.5032C39.3673 63.8999 40.0774 63.6909 38.8492 63.7967L14.7908 63.7997L14.7908 63.7998ZM90.1705 59.78L90.4524 60.6233L54.4231 60.624L54.43 59.8937C54.6824 59.7469 54.4634 59.8204 54.8874 59.7344L90.1704 59.78H90.1705ZM15.5954 60.6333C13.6598 60.6745 14.0038 60.4666 13.9362 60.0608C14.4163 59.6504 13.4366 59.8002 14.8031 59.6735L49.491 59.7139C49.7103 59.7791 50.122 59.3206 49.9461 60.2167C49.8336 60.7904 50.5417 60.6601 47.8987 60.6261C47.1271 60.6161 46.3496 60.6239 45.5774 60.6239C36.1754 60.6239 24.7229 60.439 15.5954 60.6332V60.6333ZM54.5713 57.2972C54.5415 57.2376 54.4672 57.2526 54.4235 57.2206L54.4343 56.7194L55.4287 56.5285C55.7657 56.5153 56.2456 56.5387 56.6005 56.5406L88.5138 56.5395C89.6236 56.5306 89.9151 56.4187 90.4436 56.7193L90.4543 57.4414C88.5925 57.5553 55.6231 57.6219 54.7237 57.3665C54.6815 57.3545 54.6009 57.3567 54.5713 57.2972V57.2972ZM15.5955 57.4819C13.6586 57.5243 14.0005 57.2979 13.934 56.8864C14.2874 56.6183 13.2605 56.656 14.8044 56.5212L18.3081 56.5414C27.7907 56.5414 39.0463 56.7153 48.2905 56.5332C49.1373 56.5165 50.0886 56.2906 49.9447 57.0527C49.8053 57.7911 50.3305 57.3807 49.1038 57.4977L45.5773 57.4721C36.206 57.4721 24.6786 57.2832 15.5954 57.4819L15.5955 57.4819ZM90.3711 54.3027C86.9157 54.4105 55.3109 54.4799 54.4393 54.214L54.432 53.5451C55.0487 53.2671 55.6257 53.3841 56.6005 53.3888L63.3701 53.3895C71.4218 53.3895 83.2255 53.1133 90.452 53.4095L90.3712 54.3027H90.3711ZM13.9622 53.3906L49.9472 53.4544L49.899 54.3152L13.9642 54.2696L13.9621 53.3906H13.9622ZM54.4435 50.3708C55.2016 50.0847 86.9489 50.1377 90.4357 50.259L90.3931 51.1658L54.4618 51.1688L54.4435 50.3707V50.3708ZM13.9754 50.2443L49.9378 50.296L49.9146 51.1655L13.9549 51.1103L13.9755 50.2443H13.9754ZM95.006 44.9395L118.879 44.9416L118.879 47.1977L94.9249 47.1544L95.006 44.9395V44.9395ZM54.5422 44.9383L78.3903 44.9605L78.3888 47.1954L54.4186 47.1968L54.5423 44.9383H54.5422ZM13.9977 44.9388L37.9104 44.9884L37.909 47.0971C37.1202 47.2958 15.1288 47.3342 13.9427 47.1219L13.9978 44.9389L13.9977 44.9388ZM94.9667 23.8464L130.943 23.8375L130.955 40.0648L94.9283 40.0104L94.9668 23.8464H94.9667ZM54.4843 23.8462L90.4448 23.8617L90.453 40.0635L54.4263 40.0649L54.4843 23.8462V23.8462ZM49.8735 40.0678L14.0303 40.0604C13.5569 39.1094 13.8802 37.191 13.8802 36.0029C13.8802 32.9323 13.6875 26.1287 13.9201 23.8581C14.9983 23.6415 48.721 23.6229 49.9727 23.851C50.1605 25.5968 50.228 39.3026 49.8736 40.0678L49.8735 40.0678ZM23.8611 14.1668L47.8049 14.2176L47.7857 16.4172L23.8396 16.3403L23.8611 14.1667V14.1668ZM16.1976 12.5579C20.454 11.2157 22.5896 16.7107 18.5722 18.0169C14.2795 19.4125 11.9287 13.9039 16.1976 12.5579V12.5579ZM124.871 15.7552C123.381 15.7552 120.148 16.0604 118.998 15.6204L119.027 14.9523C119.873 14.6501 130.065 14.6553 130.945 14.9522L130.928 15.6206C129.748 16.0704 126.419 15.7552 124.871 15.7552L124.871 15.7552ZM117.574 14.9521L117.56 15.6205C116.877 15.8917 106.835 15.9016 105.642 15.6831L105.663 14.8964C106.915 14.6822 116.763 14.6641 117.574 14.9522V14.9521ZM92.3009 14.8339L104.177 14.8354L104.147 15.7571L92.2705 15.7L92.3009 14.8339ZM78.9373 14.8323L90.8061 14.8467L90.7813 15.7555L78.9039 15.7132L78.9373 14.8323V14.8323ZM65.5702 14.8305L77.4384 14.8602L77.418 15.7538L65.5269 15.7312L65.5703 14.8305H65.5702ZM123.493 73.6171L123.548 60.5698L94.9265 60.6234L94.9338 59.7453C98.9854 59.3041 121.547 60.1911 123.67 59.5606L123.662 57.554L94.9184 57.4138L94.9438 56.5384L123.538 56.5848L123.55 54.3128L94.9598 54.2883L94.9567 53.3936L123.547 53.4355L123.545 51.1624L94.9464 51.1348L94.9732 50.2468L123.548 50.2797C123.55 49.4862 123.322 48.1259 123.755 47.5707C124.093 44.9995 126.725 45.0401 129.706 45.0403C132.7 45.0407 135.821 45.1138 138.799 45.0252L138.81 4.95689L6.11257 4.94604L6.06934 73.6011L123.493 73.617L123.493 73.6171Z" fill="white"/>
<path fill-rule="evenodd" clip-rule="evenodd" d="M139.132 73.6868L123.493 73.617L6.06878 73.6011L6.11202 4.94603L138.81 4.95688L138.798 45.0251L139.132 73.6868H139.132ZM0.128327 78.7974L123.675 78.8003L145 78.771L144.597 45.1916L144.583 2.60086C144.447 1.76415 143.299 0.752919 142.512 0.380365C141.209 -0.237239 127.427 0.0829949 124.87 0.0829949C85.9329 0.0829949 46.9953 0.0829949 8.05765 0.0829949C4.2295 0.0829949 2.52446 -0.41308 0.759728 1.63088C-0.422957 3.0006 0.128327 6.5711 0.128327 8.77065V78.7975V78.7974Z" fill="#0E3652"/>
<path fill-rule="evenodd" clip-rule="evenodd" d="M53.8933 90.6353C54.3615 90.9731 54.2792 90.1727 54.2792 91.1134C54.2945 90.7787 53.9614 90.7778 56.0168 90.7982L72.2662 90.8015C78.3108 90.8015 85.0676 90.5576 91.0249 90.8398L91.0258 90.9694C91.0258 90.6344 106.61 90.8015 107.078 90.8015C112.601 90.8015 133.559 90.8015 139.081 90.8015C141.641 90.679 143.231 90.1779 143.722 86.948C144.117 84.3523 144.546 81.1944 144.564 78.8004L0.128329 78.7975C0.128329 81.1839 0.129045 83.5702 0.128329 85.9565C0.127852 87.5522 -0.151048 90.3181 3.06994 90.7664C4.3062 90.9385 17.5773 90.8015 20.0484 90.8015C24.2019 90.8015 52.408 91.1308 53.8932 90.6353H53.8933Z" fill="#B6BBC6"/>
<path fill-rule="evenodd" clip-rule="evenodd" d="M54.4258 40.0649L90.4525 40.0635L90.4443 23.8617L54.4837 23.8462L54.4258 40.0649Z" fill="#2AACB7"/>
<path fill-rule="evenodd" clip-rule="evenodd" d="M94.9277 40.0103L130.954 40.0647L130.943 23.8374L94.9662 23.8464L94.9277 40.0103Z" fill="#F0A546"/>
<path fill-rule="evenodd" clip-rule="evenodd" d="M14.0303 40.0604L49.8735 40.0677L49.8922 23.8897L14.0546 23.8408L14.0303 40.0604Z" fill="#FC601E"/>
<path fill-rule="evenodd" clip-rule="evenodd" d="M51.1855 100.96C54.6413 100.717 92.5622 100.75 93.7333 101.072C93.6661 100.235 92.6705 97.2858 92.3953 96.1341C92.0891 94.8528 91.0903 91.9207 91.0257 90.9695L91.0247 90.8399C85.0675 90.5577 78.3107 90.8016 72.266 90.8016L56.0167 90.7982C53.9613 90.7778 54.2944 90.7788 54.279 91.1135C54.279 90.1728 54.3613 90.9732 53.8932 90.6354C53.8749 91.6281 53.5164 92.379 53.2726 93.2728L51.8433 98.3867C51.6078 99.199 51.2696 100.16 51.1856 100.96L51.1855 100.96Z" fill="#A5AAB4"/>
<path fill-rule="evenodd" clip-rule="evenodd" d="M93.7334 101.072C92.5623 100.75 54.6414 100.717 51.1856 100.96C48.2652 101.151 46.1572 100.238 46.1572 104H98.7617C98.7617 101.191 97.3367 100.497 93.7334 101.072V101.072Z" fill="#B6BBC6"/>
<path fill-rule="evenodd" clip-rule="evenodd" d="M123.662 57.554L123.407 50.2795C122.974 50.8346 123.55 49.4862 123.547 50.2797L94.9728 50.2468L94.946 51.1348L123.544 51.1624L123.546 53.4355L94.9564 53.3936L94.9595 54.2883L123.549 54.3128L123.538 56.5848L94.9434 56.5384L94.918 57.4138L123.662 57.5541L123.662 57.554Z" fill="#B7C8CB"/>
<path fill-rule="evenodd" clip-rule="evenodd" d="M13.9425 47.1218C15.1286 47.3342 37.12 47.2958 37.9088 47.0971L37.9102 44.9884L13.9975 44.9388L13.9424 47.1218L13.9425 47.1218Z" fill="#B7C8CB"/>
<path fill-rule="evenodd" clip-rule="evenodd" d="M54.418 47.1968L78.3883 47.1954L78.3898 44.9606L54.5416 44.9384L54.418 47.1968Z" fill="#B7C8CA"/>
<path fill-rule="evenodd" clip-rule="evenodd" d="M94.9248 47.1545L118.879 47.1977L118.879 44.9416L95.006 44.9395L94.9248 47.1545Z" fill="#B7C8CA"/>
<path fill-rule="evenodd" clip-rule="evenodd" d="M23.8398 16.3403L47.786 16.4172L47.8052 14.2176L23.8614 14.1667L23.8398 16.3403Z" fill="#B7C8CA"/>
<path fill-rule="evenodd" clip-rule="evenodd" d="M54.4318 53.5451L54.4391 54.214C55.3106 54.4799 86.9155 54.4105 90.3708 54.3027L90.4516 53.4095C83.2251 53.1133 71.4214 53.3895 63.3697 53.3895L56.6001 53.3888C55.6253 53.3841 55.0483 53.2671 54.4316 53.5451H54.4318Z" fill="#B9C9CC"/>
<path fill-rule="evenodd" clip-rule="evenodd" d="M54.4434 50.3708L54.4616 51.1689L90.393 51.1658L90.4356 50.259C86.9488 50.1378 55.2015 50.0848 54.4434 50.3709V50.3708Z" fill="#B9C9CC"/>
<path fill-rule="evenodd" clip-rule="evenodd" d="M54.4336 56.7195L54.4229 57.2207C54.4665 57.2527 54.5409 57.2377 54.5706 57.2973C54.6003 57.3568 54.6808 57.3547 54.7231 57.3667C55.6224 57.6221 88.5918 57.5554 90.4536 57.4415L90.4429 56.7195C89.9144 56.4188 89.623 56.5307 88.5131 56.5397L56.5999 56.5408C56.2449 56.5388 55.7651 56.5154 55.4281 56.5286L54.4336 56.7196V56.7195Z" fill="#B6C7C9"/>
<path fill-rule="evenodd" clip-rule="evenodd" d="M13.9355 60.0609C14.0032 60.4668 13.6592 60.6746 15.5948 60.6334C24.7223 60.4391 36.1747 60.6241 45.5768 60.6241C46.3489 60.6241 47.1266 60.6163 47.898 60.6263C50.541 60.6603 49.8328 60.7906 49.9455 60.2169C50.1213 59.3208 49.7096 59.7793 49.4904 59.7141L14.8025 59.6737C13.436 59.8004 14.4156 59.6506 13.9355 60.061V60.0609Z" fill="#B6C7C9"/>
<path fill-rule="evenodd" clip-rule="evenodd" d="M16.1971 12.5578C11.9283 13.9038 14.2791 19.4124 18.5717 18.0168C22.5891 16.7106 20.4535 11.2156 16.1971 12.5578Z" fill="#B7C8CA"/>
<path fill-rule="evenodd" clip-rule="evenodd" d="M13.9639 54.2697L49.8988 54.3153L49.9469 53.4544L13.9619 53.3906L13.9639 54.2697Z" fill="#B9C9CC"/>
<path fill-rule="evenodd" clip-rule="evenodd" d="M13.9541 51.1103L49.9138 51.1654L49.9371 50.2959L13.9747 50.2443L13.9541 51.1103Z" fill="#B9C9CC"/>
<path fill-rule="evenodd" clip-rule="evenodd" d="M54.4298 59.8937L54.4229 60.624L90.4522 60.6233L90.1703 59.78L54.8873 59.7344C54.4633 59.8204 54.6823 59.7469 54.4299 59.8937H54.4298Z" fill="#B6C7C9"/>
<path fill-rule="evenodd" clip-rule="evenodd" d="M13.9338 56.8866C14.0003 57.2981 13.6584 57.5244 15.5954 57.4821C24.6785 57.2833 36.2059 57.4722 45.5772 57.4722L49.1037 57.4979C50.3304 57.3809 49.8052 57.7912 49.9447 57.0529C50.0885 56.2907 49.1373 56.5167 48.2904 56.5334C39.0462 56.7155 27.7906 56.5416 18.3081 56.5416L14.8044 56.5214C13.2604 56.6562 14.2873 56.6184 13.9339 56.8866L13.9338 56.8866Z" fill="#B6C7C9"/>
<path fill-rule="evenodd" clip-rule="evenodd" d="M123.547 60.5697C124.124 59.8925 123.678 60.2518 123.67 59.5604C121.546 60.1909 98.9847 59.3038 94.9331 59.7451L94.9258 60.6232L123.547 60.5697H123.547Z" fill="#B6C7C9"/>
<path fill-rule="evenodd" clip-rule="evenodd" d="M54.4288 63.2352V63.7719L80.1391 63.7697L80.1386 62.9157C78.1424 62.597 60.9301 62.8943 55.8137 62.8294C54.3475 62.8108 54.6881 62.9421 54.4287 63.2352H54.4288Z" fill="#B6C7C9"/>
<path fill-rule="evenodd" clip-rule="evenodd" d="M13.9381 63.0681C13.4937 63.8347 14.3572 63.7679 14.7906 63.7998L38.8489 63.7968C40.0772 63.691 39.3671 63.9 39.6107 63.5033C40.2025 62.5396 38.628 62.8411 37.0676 62.8446L14.8179 62.8349C14.0328 62.9089 14.1988 62.6186 13.9381 63.0682L13.9381 63.0681Z" fill="#B6C7C9"/>
<path fill-rule="evenodd" clip-rule="evenodd" d="M94.9308 63.7235L120.218 63.7529C120.609 63.6603 120.421 63.7052 120.643 63.5693C120.643 62.6054 120.512 62.8447 119.649 62.8447C112.783 62.8447 101.245 62.6512 94.9277 62.8782L94.9307 63.7236L94.9308 63.7235Z" fill="#B6C7C9"/>
<path fill-rule="evenodd" clip-rule="evenodd" d="M119.027 14.9522L118.998 15.6203C120.148 16.0603 123.381 15.7551 124.871 15.7551C126.42 15.7551 129.748 16.0702 130.928 15.6205L130.945 14.952C130.065 14.6551 119.874 14.6499 119.027 14.9521L119.027 14.9522Z" fill="#B9C9CC"/>
<path fill-rule="evenodd" clip-rule="evenodd" d="M105.642 15.683C106.835 15.9015 116.877 15.8916 117.559 15.6204L117.574 14.952C116.763 14.6639 106.915 14.682 105.663 14.8963L105.642 15.6829V15.683Z" fill="#B9C9CC"/>
<path fill-rule="evenodd" clip-rule="evenodd" d="M14.0304 40.0605L14.0547 23.8409L49.8923 23.8898L49.8736 40.0678C50.228 39.3026 50.1606 25.5969 49.9727 23.851C48.7211 23.6229 14.9984 23.6415 13.9201 23.8581C13.6875 26.1287 13.8802 32.9323 13.8802 36.0029C13.8802 37.191 13.5569 39.1094 14.0303 40.0604L14.0304 40.0605Z" fill="#FE9D74"/>
<path fill-rule="evenodd" clip-rule="evenodd" d="M65.5264 15.7311L77.4176 15.7537L77.438 14.8601L65.5698 14.8304L65.5264 15.7311Z" fill="#B9C9CC"/>
<path fill-rule="evenodd" clip-rule="evenodd" d="M78.9033 15.7131L90.7806 15.7555L90.8055 14.8466L78.9367 14.8323L78.9033 15.7131Z" fill="#B9C9CC"/>
<path fill-rule="evenodd" clip-rule="evenodd" d="M92.2705 15.7L104.147 15.7571L104.177 14.8354L92.3009 14.8339L92.2705 15.7Z" fill="#B9C9CC"/>
</svg>
