<?xml version="1.0" encoding="UTF-8"?>
<!DOCTYPE svg PUBLIC "-//W3C//DTD SVG 1.1//EN" "http://www.w3.org/Graphics/SVG/1.1/DTD/svg11.dtd">
<!-- Creator: CorelDRAW 2019 (64-Bit) -->
<svg xmlns="http://www.w3.org/2000/svg" xml:space="preserve" width="97.7745mm" height="90.9883mm" version="1.1" style="shape-rendering:geometricPrecision; text-rendering:geometricPrecision; image-rendering:optimizeQuality; fill-rule:evenodd; clip-rule:evenodd"
viewBox="0 0 4470.71 4160.41"
 xmlns:xlink="http://www.w3.org/1999/xlink"
 xmlns:xodm="http://www.corel.com/coreldraw/odm/2003">
 <defs>
  <style type="text/css">
   <![CDATA[
    .fil0 {fill:#505050}
   ]]>
  </style>
 </defs>
 <g id="Слой_x0020_1">
  <metadata id="CorelCorpID_0Corel-Layer"/>
  <g id="_1841666313056">
   <path class="fil0" d="M2022.83 4160.41c104.88,0 207.02,-6.92 306.23,-20.58 97.66,-13.44 226.25,-42.59 317.82,-73.16l316.28 -130.14c12.14,-5.78 23.09,-13.75 35.19,-20.24l71.09 -39.79c43.74,-24.27 95.27,-58.56 135.53,-89.14l95.82 -73.4c31.36,-23.89 63.6,-49.92 91.22,-78.02 10.37,-10.56 18.58,-15.47 29.21,-26.22 19.08,-19.3 36.24,-36.27 55.43,-55.45 19.46,-19.46 34.71,-37.31 54.03,-56.84l52.3 -61.5c9.14,-10.86 16.01,-19.68 24.92,-30.52l47.7 -63.17c47.93,-66.68 89.44,-136.09 131.97,-206.48 7.54,-12.46 11.7,-23.45 19.3,-36.14 12.84,-21.46 27.59,-50.27 37.1,-73.75 9.83,-24.28 25.4,-51.46 33.9,-76.98 4.18,-12.59 2.82,-8.07 8.24,-18.02l30.83 -82.97c22.25,-63.58 44.86,-128.61 60.14,-193.69 3.8,-16.2 5.88,-30.79 9.47,-45.97 6.05,-25.68 17.5,-66.7 17.5,-96.28l-11.64 40.88c-10.18,62.27 -68.66,235.01 -87.12,280.51l-101.63 213.47c-19.2,34.49 -56.84,100.81 -79.27,130.81l-65.2 92.35c-28.04,41.29 -61.6,78.26 -93.68,116.4 -31.78,37.79 -67.04,72.83 -101.98,108.1l-83.9 76.57c-10.05,7.69 -17.18,15.35 -28.26,24.27 -39.27,31.59 -77.4,62.67 -118.82,91.25 -11.47,7.91 -18.88,14.59 -30.29,22.22 -38.88,26 -87.2,59.57 -128.99,81.1 -28.03,14.45 -55.93,32.84 -85.45,45.85l-52.71 26.07c-13.52,6.48 -20.94,11.05 -35.66,16.87 -63.8,25.19 -125.47,54.44 -192.16,73.35l-100.89 30.41c-36.88,10.6 -112.93,27.42 -151.22,32.62 -139.78,18.97 -208.24,28.66 -356.5,28.66 -77.22,0 -143.78,-6.61 -212.46,-15.13 -33.39,-4.14 -65.93,-8.74 -99.37,-14.43 -32.14,-5.46 -65,-13.36 -96.95,-19.77 -46.55,-9.36 -87.52,-24.29 -132.26,-36.97 -98.39,-27.91 -196.49,-69.68 -287.64,-115.02 -13.15,-6.54 -22.58,-12.82 -35.95,-19.49l-109.37 -62.77c-24.71,-15.56 -47.62,-29.76 -70.63,-46.1 -47.99,-34.05 -135.44,-95.97 -177.27,-137.84l-45.31 -42.21c-12.87,-10.75 -18.79,-16.14 -30.51,-27.86l-55.46 -58.32c-44.6,-50.65 -92.53,-98.96 -130.85,-155.1 -26.9,-39.41 -57.09,-75.66 -81.66,-116.73l-32.37 -55.16c-19.62,-35.35 -45.68,-74.06 -60.97,-111.17 -16.99,-41.23 -37.01,-76.59 -53.74,-118.39 -22.31,-55.72 -43.44,-109.3 -60.3,-167.29 -9.11,-31.34 -16.05,-59.76 -25.36,-91.33 -4.27,-14.49 -7.49,-31.15 -10.39,-45.05l-41.11 -276.92 -2.9 -169.23c0,-101.96 14.19,-235.99 39.11,-334.35l24.5 -100.96c4.76,-17.47 8.1,-31.33 12.86,-48.4 4.23,-15.19 10.05,-29.59 15,-46.27l32.72 -92.75c12.17,-30.25 23.68,-59.1 37.27,-88.19 51.7,-110.64 110.8,-217.56 183.29,-315.64 9.47,-12.81 16.32,-22.68 26.22,-35.05 22.79,-28.49 43.32,-59.56 68.86,-85.78l44.1 -49.26c16.04,-20.11 77.93,-81.42 95.04,-94.62 34.82,-26.88 66.15,-58.71 100.89,-85.84 64.93,-50.72 131.97,-95.56 201.92,-139.45 35.45,-22.25 74.49,-40.56 109.98,-62.17 23.72,-14.44 92.42,-44.7 117.82,-54.33l160.27 -58.56c128.62,-40.48 319.77,-76.53 454.59,-76.46 31.65,0.02 60.73,-4.59 88.33,-0.79 10.16,1.4 20.91,0.82 31.29,0.8 110.84,-0.26 226.67,17.53 334.4,42 35.37,8.03 64.08,15.26 98.65,23.9 63.6,15.88 125.56,40.72 185.96,64.97 60.11,24.15 77.46,35.14 128.34,58.39 68.92,31.51 133.85,73.45 196.89,115.31l72.41 53.05c24.17,18.88 44.69,35.3 68.13,54.42 30.85,25.16 110.3,97.27 129.47,121.44l15.32 16.77c0.43,0.43 1.04,1.04 1.46,1.47 139.88,144.32 253.52,324.26 332.13,508.17l42.95 111.68c3.73,9.36 4.87,14.92 7.82,24.28l21.93 71.53c10.28,28.97 4.63,21.34 -51.72,27.78 -37.51,4.28 -75.65,9.3 -111.14,14.33 -16.97,2.41 -39.26,2.83 -50.9,10.37 -27.36,17.77 -33.1,61.79 -18.82,89.53 16.47,31.98 95.44,90.27 123.96,124.04 13.77,16.31 47.44,42.57 65.17,60.3l80.19 77.38c7.23,7.15 10.39,8.25 17.54,14.55 11.21,9.86 19.49,20.73 30.69,30.59l194 182.38c69.08,69.84 100.34,-27.28 138.74,-84.48 4.69,-6.99 8.46,-12.14 12.87,-19.23 5.11,-8.21 7.18,-13.77 12.78,-22.25 9.35,-14.17 16.26,-25.34 24.71,-39.47l257.18 -410.97c25.95,-40.03 28.72,-78.3 -6.99,-110.86 -19.38,-17.66 -44.23,-9.51 -72.37,-6.42 -41.51,4.57 -127.7,20.43 -163.4,20.43 -13.95,-59.83 -34.79,-116.11 -55.07,-172.51 -20.02,-55.67 -43.42,-109.61 -67.43,-163.07l-36.94 -76.85c-28.34,-55.68 -60.51,-110.27 -93.18,-163.58l-80.81 -120.5c-32.5,-43.54 -64.09,-86.77 -99.79,-127.79 -0.56,-0.63 -2.2,-2.44 -2.78,-3.06l-107.45 -117.22c-28.54,-28.54 -55.7,-59.75 -87.24,-84.91l-61.56 -55.14c-6.92,-6.58 -9.01,-7.43 -15.91,-13.27 -51.18,-43.31 -105.09,-84.49 -160.8,-122.21 -99.36,-67.28 -202.68,-128.16 -312.65,-177.54 -89.8,-40.34 -197.74,-86.13 -291.86,-110.79 -30.57,-8.01 -58.57,-15.31 -89.46,-24.34 -60.12,-17.56 -129.95,-26.54 -191.41,-39.09 -33.12,-6.77 -67.43,-9.16 -102.6,-14.11 -59.57,-8.4 -236.52,-16.67 -279.72,-10.75 -20.61,2.83 -42.19,-1.1 -62.96,1.23 -57.19,6.42 -121.76,8.36 -178.93,16.55 -90.46,12.98 -180.62,30.68 -268.23,55.65 -17.51,5 -32.88,7.88 -51.06,13.15 -10.86,3.14 -12.93,5.41 -23.42,8.67l-121.8 41.59c-66.34,23.67 -127.86,53.31 -190.95,83.32l-54.07 27.61c-43.04,21.85 -83.12,45.8 -123.24,72.26 -8.15,5.37 -12.14,6.68 -20.44,11.65 -37.69,22.55 -100.43,65.36 -134.54,93.05l-176.38 147.49 -97.91 97.58c-29.37,35.14 -63.5,67.31 -91.37,104.12 -32.59,43.03 -67.92,84.28 -98.01,129.58l-134.5 221.45c-73.21,134.06 -147.97,321.01 -178.53,472.11 -5.39,26.64 -15.16,49.34 -19.53,76.75 -6.24,39.19 -14.57,70.96 -20.44,110.85 -3.03,20.56 -4.49,37.65 -7.2,57l-14.44 148.94c-0.59,10.93 0,23.88 0.02,35.03 0.05,40.01 -7.43,82.89 -1.23,123.77 3.05,20.19 0.09,42.13 1.21,62.97 5.73,106.03 22.54,243.39 47.87,343.1 13.17,51.89 24.17,104.24 40.75,154.72 11.02,33.55 19.77,63.8 32.26,96.12 32.45,83.94 64.83,168.74 108.4,247.55l134.28 224.61c45.79,65.77 120.39,161.48 172.55,215.49l32.14 34.97c26.86,26.55 52.82,54.84 81.58,78.89l195.91 162.98c12.86,9.45 24.57,16.89 37.55,26.63 62.44,46.77 171.28,109.32 242.99,145.08l325.8 129.38c35.57,10.18 67,19.38 103.1,28.19l106.33 22.06c19.16,3.18 37.02,5.98 54.18,10.01 17.43,4.08 39.65,6.31 58.61,8.5 78.63,9.09 157.21,17.75 244.85,17.75z"/>
   <path class="fil0" d="M1906.12 1931.35c8,29.95 107.44,141.96 113.79,169.22 -18.16,27.12 -34.31,55.44 -17.51,90.45 -15.3,10.24 -26.09,23.33 -40.14,35.71l-42.27 36.52c-13.69,12.05 -23.84,26.12 -38.45,37.4 -15.86,12.24 -26.49,24.56 -40.35,38.43l-78.78 75.86c-31.84,31.84 -150.07,148.05 -171.85,175.36l-128.65 142.7c-6.52,6.62 -13.05,12.01 -18.91,19.02l-17.08 20.85c-11.47,10.25 -29.2,29.17 -36.26,42.52 18.14,-4.22 65.08,-47.43 80.83,-59.22l386.45 -325.48c13.54,-10.8 21.66,-23.29 35.82,-34.21 14.88,-11.49 24.33,-22.66 37.37,-35.57l36.54 -33.49c12.74,-12.74 22.68,-25.82 38.66,-34.28l-27.49 106.72c-5.25,18.47 -9.52,34.27 -13.96,53.14l-39.7 161.62c-3.72,14.71 -23.89,99.59 -23.89,113.25l5.84 0c1.13,-13.56 6.67,-22.32 11.66,-32.09 23.86,-46.68 74.49,-172.02 91.52,-217.75l86.25 -220.11c5.6,-11.2 19.44,-13.29 32.31,-14.36 47.33,70.65 226.63,299.35 276.8,362.19l242.58 294.27c30.5,39.47 67.38,75.47 97.97,115.02l112.97 129.2c10.53,12.59 27.58,33.4 39.99,41.71 -4.31,-18.48 -156.91,-224.79 -175.91,-250.08l-90.45 -122.54c-15.82,-21.07 -29.95,-41.38 -46.55,-61.41 -8.06,-9.72 -14.61,-20.11 -22.22,-30.29 -8.38,-11.19 -15.83,-20.05 -24.2,-31.24 -15.35,-20.56 -30.64,-38.76 -45.85,-59.18l-335.96 -413.9c17.38,-25.95 30.68,-57.46 11.68,-93.36l150.41 -161.79c9.16,-8.9 86.25,-93.98 88.85,-103.71 -8.5,2.26 -96.31,72.93 -116.32,87.91 -31.45,23.57 -85.69,73.9 -114.19,92.98l214.04 -696.28c30.11,-103.24 77.36,-293.16 98.9,-402.93 2.37,-12.09 7.73,-25.56 8.03,-38.66 -12.79,9.37 -57.02,126.01 -63.39,140.85l-44.65 107.06c-38.31,85.99 -113.23,286.77 -149.52,390.24l-20.04 55.83c-2.17,6.53 -3.47,12.15 -6.05,20.21 -2.2,6.84 -5.15,11.82 -7.73,18.51l-76.63 229.74c-20.04,65.35 -37.58,131.54 -59.59,197.16 -6.29,18.74 -15.35,14.01 -30.48,22.03 -13.44,-25.4 -46.93,-53.64 -65.43,-77.54 -13.26,-17.15 -55.2,-65.07 -68.79,-74.17z"/>
   <path class="fil0" d="M2040.34 3466.01l0 385.12c0,6.73 2.03,8.76 8.76,8.76l90.45 0c6.72,0 8.75,-2.03 8.75,-8.76l0 -385.12c0,-6.72 -2.03,-8.75 -8.75,-8.75l-90.45 0c-6.73,0 -8.76,2.03 -8.76,8.75z"/>
   <path class="fil0" d="M2040.34 685.53l0 379.29c0,6.73 2.03,8.75 8.76,8.75l99.2 0 0 -393.88c0,-12.09 -7.32,-6.84 -14.54,-6.74 -22.86,0.32 -23.33,-5.08 -62.22,0.21 -16.06,2.19 -15.97,-1.19 -28.28,-2.22 -1.53,6.54 -2.92,6.71 -2.92,14.59z"/>
   <path class="fil0" d="M499.72 2310.64c0,14.05 27.5,8.77 40.85,8.75l361.81 0 0 -96.29c0,-11.15 -0.89,-1.06 2.93,-8.75l-405.58 0 0 96.29z"/>
   <path class="fil0" d="M3286.25 2319.39l393.92 0c6.72,0 8.75,-2.03 8.75,-8.75l0 -96.29 -402.67 0 0 105.04z"/>
   <path class="fil0" d="M701.05 3037.12c3.78,16.21 45.81,74.18 49.6,90.44 12.67,-1.05 86.65,-47.45 106.76,-59.55l179.19 -106.75c-4.86,-9.19 -6.76,-12.97 -12.87,-22.14l-39.66 -68.31c-13.6,3.17 -151.75,86.75 -176.79,103.32l-69.57 41.3c-13.98,8.37 -22.72,14.31 -36.67,21.69z"/>
   <path class="fil0" d="M3154.95 1569.57c0.81,9.73 6.39,16.2 11.11,23.9 5.02,8.18 7.95,13.32 13.42,21.59 5.55,8.38 7.82,13.92 12.83,22.19 4.4,7.28 10.05,14.55 12.24,22.76 16.01,-0.36 57.74,-30.32 72.02,-38.85l211.01 -124.54c-0.36,-15.7 -28.01,-54.93 -37.38,-70.58l-15.14 -22.79c-78.93,41.76 -200.1,123.97 -280.11,166.31z"/>
   <path class="fil0" d="M1246.68 913.1c0.43,19.53 67.35,125.49 78.24,143.51l82.24 142.41c11.24,-0.93 36.78,-16.42 47.27,-22.76 16.08,-9.69 29.7,-18.16 46.1,-26.84 -2.71,-10.12 -32.5,-57.53 -39.85,-71.02 -36.29,-66.65 -88.09,-144.98 -123.54,-211.98 -20.88,1.73 -67.41,41.31 -90.46,46.68z"/>
   <path class="fil0" d="M1246.68 3611.89c0,9.25 10.94,11.1 19.17,15.85l68.36 39.59c4.73,-7.06 5.93,-6.54 10.75,-15.51 44.71,-83.18 112.1,-185.33 155.57,-267.49 -16.26,-10.9 -77.94,-51.24 -93.37,-52.53 -2.64,11.35 -12.43,23.37 -18.41,34.12 -16.43,29.54 -142.07,239.06 -142.07,245.98z"/>
   <path class="fil0" d="M3154.95 2964.18c12.33,2.88 25.18,12.49 36.28,19.16l208.27 124.36c9.91,5.98 26.55,18.88 38.48,19.87l49.61 -87.53c-5.69,-8.5 -148.48,-93.58 -173.16,-106.95l-71.02 -42.77c-16.58,-9.17 -26.36,-18.47 -38.86,-19.51 -2.31,9.94 -6.83,14.96 -11.83,23.19 -8.45,13.89 -36.68,57.1 -37.77,70.18z"/>
   <path class="fil0" d="M2688.1 3384.32c37.16,55.5 106.74,184.96 144.16,246.8 7.89,13.03 15.22,23.1 22.15,36.2 11.99,-3.2 30.91,-18.29 44.75,-25.28 14.72,-7.44 30.9,-20.87 45.71,-24.32 -1.03,-12.38 -12.21,-26.62 -18.44,-37l-144.97 -248.93c-9.73,0.81 -16.23,6.41 -23.9,11.12 -8.52,5.24 -14.85,8.95 -23.71,14.23l-45.75 27.18z"/>
   <path class="fil0" d="M2691.02 1146.51c5.27,7.88 76.93,51.39 90.45,52.51 6.99,-13.2 13.72,-22.48 20.43,-35l102.28 -174.92c6.72,-11.68 13.37,-22.68 20.88,-34.56 4.41,-6.99 18.2,-31.56 19.82,-38.53 -14.8,-7.83 -29.57,-16.81 -44.3,-25.73 -12.08,-7.31 -36.07,-23.58 -49.08,-23.87 -3.58,15.42 -156.49,263 -160.48,280.09z"/>
   <path class="fil0" d="M701.05 1496.62c11.47,2.67 24.78,13.31 36.01,19.43l173.53 103.66c12.3,7.41 22.08,13.3 34.65,20.8 10.04,5.99 25.45,17.06 35.93,19.5 9.32,-6.23 20.89,-30.05 27.94,-42.08 9.25,-15.73 23.52,-35.53 24.59,-48.36 -46.15,-30.91 -137.29,-80 -190.26,-113.2l-89.85 -53.11c-11.72,22.14 -51.35,79.31 -52.52,93.37z"/>
   <polygon class="fil0" points="1906.12,1931.35 1906.12,1928.43 1902.71,1930.86 "/>
   <path class="fil0" d="M4004.04 2509.04l0.87 -0.87c-0.06,0.06 -1.16,0.59 -0.87,0.87z"/>
  </g>
 </g>
</svg>
